<svg width="30" height="30" viewBox="0 0 30 30" fill="none" xmlns="http://www.w3.org/2000/svg">
<path fill-rule="evenodd" clip-rule="evenodd" d="M2.5 27.5H3.75L8.75 22.5H22.5C23.4946 22.5 24.4484 22.1049 25.1517 21.4017C25.8549 20.6984 26.25 19.7446 26.25 18.75V7.5C26.25 6.50544 25.8549 5.55161 25.1517 4.84835C24.4484 4.14509 23.4946 3.75 22.5 3.75H6.25C5.25544 3.75 4.30161 4.14509 3.59835 4.84835C2.89509 5.55161 2.5 6.50544 2.5 7.5V27.5ZM8.09999 14.9C9.0941 14.9 9.89999 14.0941 9.89999 13.1C9.89999 12.1059 9.0941 11.3 8.09999 11.3C7.10588 11.3 6.29999 12.1059 6.29999 13.1C6.29999 14.0941 7.10588 14.9 8.09999 14.9ZM16.2 13.1C16.2 14.0941 15.3941 14.9 14.4 14.9C13.4059 14.9 12.6 14.0941 12.6 13.1C12.6 12.1059 13.4059 11.3 14.4 11.3C15.3941 11.3 16.2 12.1059 16.2 13.1ZM20.6 14.9C21.5941 14.9 22.4 14.0941 22.4 13.1C22.4 12.1059 21.5941 11.3 20.6 11.3C19.6059 11.3 18.8 12.1059 18.8 13.1C18.8 14.0941 19.6059 14.9 20.6 14.9Z" fill="#142346"/>
</svg>
