<svg width="30" height="30" viewBox="0 0 30 30" fill="none" xmlns="http://www.w3.org/2000/svg">
<g clip-path="url(#clip0_111_391)">
<path d="M6.53761 14.881L10.0309 16.5321C10.4787 16.7441 10.8417 16.5527 10.8417 16.1048C10.8417 15.657 10.4787 15.1222 10.0309 14.9102L6.53761 13.2592C6.08975 13.0472 5.72678 13.2388 5.72678 13.6866C5.72678 14.1345 6.08975 14.669 6.53761 14.881Z" fill="#142346"/>
<path fill-rule="evenodd" clip-rule="evenodd" d="M24.2234 22.2069C25.3892 21.6075 26.1221 20.4076 26.1221 19.0977V11.6376C26.1221 11.1746 26.0266 10.7276 25.8565 10.3138L15.06 15.8578V26.6947C15.4377 26.6402 15.809 26.5276 16.1575 26.3492L24.2234 22.2069ZM20.1117 6.41678L8.98635 12.1297L14.561 14.9923L25.3517 9.45137C25.0495 9.07411 24.6684 8.75745 24.2234 8.52832L20.1117 6.41678ZM12.9646 26.3492C13.3129 26.528 13.6844 26.6406 14.0621 26.6947V15.8578L3.26565 10.3138C3.09549 10.7276 3 11.1746 3 11.6376V19.0977C3 20.4076 3.73289 21.6075 4.89874 22.2069L12.9646 26.3492ZM12.9646 4.38603L4.89874 8.52832C4.45374 8.75745 4.0726 9.07411 3.77043 9.45137L8.17021 11.7106L8.16858 11.7078L19.2925 5.99606L16.1575 4.38603C15.6566 4.12874 15.1092 4 14.561 4C14.0127 4 13.4655 4.12874 12.9646 4.38603ZM8.59192 16.8996L5.09866 15.2486C4.65081 15.0366 4.28783 14.502 4.28783 14.0542C4.28783 13.6063 4.65081 13.4147 5.09866 13.6267L8.59192 15.2778C9.03978 15.4898 9.40275 16.0245 9.40275 16.4724C9.40275 16.9202 9.03978 17.1116 8.59192 16.8996Z" fill="#142346"/>
</g>
<defs>
<clipPath id="clip0_111_391">
<rect width="30" height="30" fill="white"/>
</clipPath>
</defs>
</svg>
