<svg width="30" height="30" viewBox="0 0 30 30" fill="none" xmlns="http://www.w3.org/2000/svg">
<path fill-rule="evenodd" clip-rule="evenodd" d="M25 20.7143V6.42858C25 5.67082 24.699 4.9441 24.1632 4.40828C23.6273 3.87246 22.9006 3.57144 22.1429 3.57144H10.7143C9.95653 3.57144 9.2298 3.87246 8.69398 4.40828C8.15817 4.9441 7.85715 5.67082 7.85715 6.42858V20.7143C7.85715 21.4721 8.15817 22.1988 8.69398 22.7346C9.2298 23.2704 9.95653 23.5714 10.7143 23.5714H22.1429C22.9006 23.5714 23.6273 23.2704 24.1632 22.7346C24.699 22.1988 25 21.4721 25 20.7143Z" stroke="#142346" stroke-linecap="round" stroke-linejoin="round"/>
<path d="M7.57857 7.05002L4.71571 8.09288C4.00388 8.35215 3.42416 8.88351 3.10403 9.57012C2.7839 10.2567 2.74956 11.0424 3.00857 11.7543L7.89428 25.1786C8.02265 25.5312 8.21923 25.8551 8.4728 26.1317C8.72636 26.4084 9.03194 26.6324 9.37208 26.7909C9.71222 26.9494 10.0803 27.0394 10.4552 27.0557C10.8301 27.0719 11.2045 27.0142 11.5571 26.8857L19.5114 23.7457M12.1429 10.7143H19.2857M12.1429 13.5714H20.7143M12.1429 16.4286H16.4286" stroke="#142346" stroke-linecap="round" stroke-linejoin="round"/>
</svg>
