<svg width="30" height="30" viewBox="0 0 30 30" fill="none" xmlns="http://www.w3.org/2000/svg">
<path d="M3.75 25.7375L8.2375 21.25H22.5C23.163 21.25 23.7989 20.9866 24.2678 20.5178C24.7366 20.0489 25 19.413 25 18.75V7.5C25 6.83696 24.7366 6.20107 24.2678 5.73223C23.7989 5.26339 23.163 5 22.5 5H6.25C5.58696 5 4.95107 5.26339 4.48223 5.73223C4.01339 6.20107 3.75 6.83696 3.75 7.5V25.7375ZM3.75 27.5H2.5V7.5C2.5 6.50544 2.89509 5.55161 3.59835 4.84835C4.30161 4.14509 5.25544 3.75 6.25 3.75H22.5C23.4946 3.75 24.4484 4.14509 25.1517 4.84835C25.8549 5.55161 26.25 6.50544 26.25 7.5V18.75C26.25 19.7446 25.8549 20.6984 25.1517 21.4017C24.4484 22.1049 23.4946 22.5 22.5 22.5H8.75L3.75 27.5ZM8.125 11.25C8.62228 11.25 9.09919 11.4475 9.45083 11.7992C9.80246 12.1508 10 12.6277 10 13.125C10 13.6223 9.80246 14.0992 9.45083 14.4508C9.09919 14.8025 8.62228 15 8.125 15C7.62772 15 7.15081 14.8025 6.79917 14.4508C6.44754 14.0992 6.25 13.6223 6.25 13.125C6.25 12.6277 6.44754 12.1508 6.79917 11.7992C7.15081 11.4475 7.62772 11.25 8.125 11.25ZM8.125 12.5C7.95924 12.5 7.80027 12.5658 7.68306 12.6831C7.56585 12.8003 7.5 12.9592 7.5 13.125C7.5 13.2908 7.56585 13.4497 7.68306 13.5669C7.80027 13.6842 7.95924 13.75 8.125 13.75C8.29076 13.75 8.44973 13.6842 8.56694 13.5669C8.68415 13.4497 8.75 13.2908 8.75 13.125C8.75 12.9592 8.68415 12.8003 8.56694 12.6831C8.44973 12.5658 8.29076 12.5 8.125 12.5ZM14.375 11.25C14.8723 11.25 15.3492 11.4475 15.7008 11.7992C16.0525 12.1508 16.25 12.6277 16.25 13.125C16.25 13.6223 16.0525 14.0992 15.7008 14.4508C15.3492 14.8025 14.8723 15 14.375 15C13.8777 15 13.4008 14.8025 13.0492 14.4508C12.6975 14.0992 12.5 13.6223 12.5 13.125C12.5 12.6277 12.6975 12.1508 13.0492 11.7992C13.4008 11.4475 13.8777 11.25 14.375 11.25ZM14.375 12.5C14.2092 12.5 14.0503 12.5658 13.9331 12.6831C13.8158 12.8003 13.75 12.9592 13.75 13.125C13.75 13.2908 13.8158 13.4497 13.9331 13.5669C14.0503 13.6842 14.2092 13.75 14.375 13.75C14.5408 13.75 14.6997 13.6842 14.8169 13.5669C14.9342 13.4497 15 13.2908 15 13.125C15 12.9592 14.9342 12.8003 14.8169 12.6831C14.6997 12.5658 14.5408 12.5 14.375 12.5ZM20.625 11.25C21.1223 11.25 21.5992 11.4475 21.9508 11.7992C22.3025 12.1508 22.5 12.6277 22.5 13.125C22.5 13.6223 22.3025 14.0992 21.9508 14.4508C21.5992 14.8025 21.1223 15 20.625 15C20.1277 15 19.6508 14.8025 19.2992 14.4508C18.9475 14.0992 18.75 13.6223 18.75 13.125C18.75 12.6277 18.9475 12.1508 19.2992 11.7992C19.6508 11.4475 20.1277 11.25 20.625 11.25ZM20.625 12.5C20.4592 12.5 20.3003 12.5658 20.1831 12.6831C20.0658 12.8003 20 12.9592 20 13.125C20 13.2908 20.0658 13.4497 20.1831 13.5669C20.3003 13.6842 20.4592 13.75 20.625 13.75C20.7908 13.75 20.9497 13.6842 21.0669 13.5669C21.1842 13.4497 21.25 13.2908 21.25 13.125C21.25 12.9592 21.1842 12.8003 21.0669 12.6831C20.9497 12.5658 20.7908 12.5 20.625 12.5Z" fill="#142346"/>
</svg>
