<svg width="30" height="30" viewBox="0 0 30 30" fill="none" xmlns="http://www.w3.org/2000/svg">
<g clip-path="url(#clip0_109_628)">
<path d="M26.5611 18.7301C26.5611 20.04 25.8282 21.2399 24.6623 21.8394L16.5965 25.9817C16.248 26.16 15.8766 26.2726 15.499 26.3271V15.4903L26.2954 9.94625C26.4656 10.36 26.5611 10.8071 26.5611 11.27V18.7301ZM9.42529 11.7621L20.5506 6.04921L24.6623 8.16075C25.1073 8.38988 25.4884 8.70654 25.7906 9.0838L14.9999 14.6247L9.42529 11.7621ZM14.501 26.3271C14.1234 26.273 13.7518 26.1604 13.4035 25.9817L5.33768 21.8394C4.17183 21.2399 3.43894 20.04 3.43894 18.7301V11.27C3.43894 10.8071 3.53443 10.36 3.70459 9.94625L14.501 15.4903V26.3271ZM5.33768 8.16075L13.4035 4.01846C13.9044 3.76118 14.4517 3.63243 14.9999 3.63243C15.5481 3.63243 16.0956 3.76118 16.5965 4.01846L19.7314 5.62849L8.60752 11.3402L8.60915 11.3431L4.20937 9.0838C4.51154 8.70654 4.89268 8.38988 5.33768 8.16075ZM25.3466 6.82943L17.2808 2.68714C16.5648 2.31907 15.7817 2.13544 14.9999 2.13544C14.2178 2.13544 13.4352 2.31948 12.7192 2.68714L4.65335 6.82943C2.98864 7.68413 1.94174 9.39863 1.94174 11.27V18.7301C1.94174 20.6015 2.98864 22.3154 4.65335 23.1707L12.7192 27.313C13.4352 27.6804 14.2178 27.8647 14.9999 27.8647C15.7822 27.8647 16.5648 27.6804 17.2802 27.313L25.3466 23.1707C27.0114 22.3154 28.058 20.6015 28.058 18.7301V11.27C28.058 9.39863 27.0114 7.68413 25.3466 6.82943Z" fill="#142346"/>
<path d="M6.53761 14.881L10.0309 16.5321C10.4787 16.7441 10.8417 16.5527 10.8417 16.1048C10.8417 15.657 10.4787 15.1222 10.0309 14.9102L6.53761 13.2592C6.08975 13.0472 5.72678 13.2388 5.72678 13.6866C5.72678 14.1345 6.08975 14.669 6.53761 14.881Z" fill="#142346"/>
</g>
<defs>
<clipPath id="clip0_109_628">
<rect width="30" height="30" fill="white"/>
</clipPath>
</defs>
</svg>
