<svg width="30" height="30" viewBox="0 0 30 30" fill="none" xmlns="http://www.w3.org/2000/svg">
<path d="M4 24.7775V12.5375C4.00016 12.2165 4.07757 11.9003 4.22569 11.6156C4.37381 11.3308 4.58828 11.0859 4.851 10.9015L14.426 4.1815C14.5943 4.06338 14.7949 4 15.0005 4C15.2061 4 15.4067 4.06338 15.575 4.1815L25.149 10.9015C25.4117 11.0859 25.6262 11.3308 25.7743 11.6156C25.9224 11.9003 25.9998 12.2165 26 12.5375V24.7775C26 25.0427 25.8946 25.2971 25.7071 25.4846C25.5196 25.6721 25.2652 25.7775 25 25.7775H19.667C19.4018 25.7775 19.1474 25.6721 18.9599 25.4846C18.7724 25.2971 18.667 25.0427 18.667 24.7775V19.1035C18.667 18.8383 18.5616 18.5839 18.3741 18.3964C18.1866 18.2089 17.9322 18.1035 17.667 18.1035H12.333C12.0678 18.1035 11.8134 18.2089 11.6259 18.3964C11.4384 18.5839 11.333 18.8383 11.333 19.1035V24.7775C11.333 25.0427 11.2276 25.2971 11.0401 25.4846C10.8526 25.6721 10.5982 25.7775 10.333 25.7775H5C4.73478 25.7775 4.48043 25.6721 4.29289 25.4846C4.10536 25.2971 4 25.0427 4 24.7775Z" fill="#142346" stroke="#142346"/>
</svg>
