<svg width="300" height="234" viewBox="0 0 300 234" fill="none" xmlns="http://www.w3.org/2000/svg">
<g clip-path="url(#clip0_68_1215)">
<path d="M216.42 43.1846H194.448V8.12207L216.42 15.1346V43.1846Z" fill="#2F2E41"/>
<path d="M220.321 221.208L215.786 221.315L213.259 200.943L219.95 200.785L220.321 221.208Z" fill="#A0616A"/>
<path d="M204.764 230.668C204.764 231.434 205.307 232.055 205.978 232.055H214.978C214.978 232.055 215.864 228.495 219.475 226.962L219.724 232.055H224.367L223.805 223.866C223.805 223.866 225.047 219.485 222.467 217.246C219.888 215.007 221.977 215.318 221.977 215.318L220.963 210.25L213.946 211.075L213.895 219.031L210.49 226.928L205.496 229.395C205.051 229.614 204.764 230.115 204.764 230.668Z" fill="#2F2E41"/>
<path d="M197.082 221.208L192.547 221.315L190.02 200.943L196.711 200.785L197.082 221.208Z" fill="#A0616A"/>
<path d="M181.525 230.668C181.525 231.434 182.068 232.055 182.739 232.055H191.739C191.739 232.055 192.625 228.495 196.236 226.962L196.485 232.055H201.128L200.566 223.866C200.566 223.866 201.808 219.485 199.228 217.246C196.649 215.007 198.738 215.318 198.738 215.318L197.724 210.25L190.707 211.075L190.656 219.031L187.251 226.928L182.257 229.395C181.812 229.614 181.525 230.115 181.525 230.668Z" fill="#2F2E41"/>
<path d="M217.823 81.5197L188.837 98.8172L182.292 125.465L185.565 207.745H199.918L203.096 128.503L209.459 207.745H224.036L227.723 118.76C228.739 112.293 227.937 105.671 225.409 99.6331L217.823 81.5197Z" fill="#2F2E41"/>
<path d="M211.278 28.6921L199.122 27.7571L195.85 34.3021L186.5 36.6396L184.162 65.6247C188.787 77.6387 191.689 89.1194 188.837 98.8172L224.368 96.9472L218.435 80.9068C218.435 80.9068 218.29 74.9747 221.563 67.0272C224.835 59.0796 219.693 38.5096 219.693 38.5096L212.213 36.6396L211.278 28.6921Z" fill="#EE0979"/>
<path d="M129.435 39.9673C130.618 40.0039 131.712 39.7703 132.572 39.3516L143.825 40.4132L144.173 35.0438L132.721 34.5451C131.888 34.074 130.811 33.773 129.628 33.7364C126.924 33.6526 124.689 34.9795 124.635 36.7001C124.582 38.4207 126.731 39.8835 129.435 39.9673Z" fill="#A0616A"/>
<path d="M196 56.3587C196 56.3587 195.602 39.2537 191.851 36.6863C190.304 35.6275 166.514 35.3869 165.647 35.2971C160.302 34.7432 156.499 32.6212 151.999 32.3886C141.032 31.8218 135.488 34.4832 135.488 34.4832L135.294 39.9749L196 56.3587Z" fill="#EE0979"/>
<path d="M204.165 27.3139C209.525 27.3139 213.87 22.9686 213.87 17.6083C213.87 12.248 209.525 7.90262 204.165 7.90262C198.804 7.90262 194.459 12.248 194.459 17.6083C194.459 22.9686 198.804 27.3139 204.165 27.3139Z" fill="#A0616A"/>
<path d="M201.221 3.15597C199.133 4.47193 197.604 3.52978 196.113 4.19346C193.2 5.49018 188.281 14.5978 188.725 18.4109C189.353 23.8111 191.338 24.0335 191.279 27.9079C191.183 34.1293 190.689 34.1035 191.963 36.2759C193.38 38.692 201.407 38.036 202.897 34.7595C203.191 34.1131 199.925 34.3673 196.317 25.8871C194.507 21.6317 195.696 17.754 196.317 16.0696C196.463 15.6752 196.53 12.8754 196.84 13.1861C199.565 15.9106 201.092 13.919 202.737 13.6905C206.113 13.2214 208.656 15.9453 209.68 14.9674C210.443 14.2397 209.47 12.3158 209.84 12.1742C210.234 12.0232 211.539 14.1338 212.394 16.4039C212.945 17.8679 213.22 18.5998 213.192 19.4366C213.104 22.0207 212.445 29.3473 211.277 31.4971C208.756 36.1395 211.931 37.8912 213.91 37.5528C215.509 37.2794 222.578 38.3559 222.965 37.5746C223.31 36.8786 222.522 29.7195 221.695 23.0639C220.701 15.0642 216.715 7.71298 210.466 2.62051C210.1 2.32188 209.826 2.11698 209.68 2.03869C209.334 1.85325 205.766 0.000234067 203.136 1.48004C202.168 2.02481 202.326 2.45942 201.221 3.15597Z" fill="#2F2E41"/>
<path d="M79.9809 228.785L74.5959 228.784L72.0342 208.013L79.982 208.013L79.9809 228.785Z" fill="#FFB6B6"/>
<path d="M61.531 228.662C61.3634 228.945 61.2749 229.856 61.2749 230.185C61.2749 231.194 62.0932 232.012 63.1026 232.012H79.7795C80.4681 232.012 81.0263 231.454 81.0263 230.765V230.071C81.0263 230.071 81.8513 227.984 80.1528 225.412C80.1528 225.412 78.0418 227.426 74.8874 224.272L73.9572 222.587L67.2238 227.511L63.4916 227.971C62.6751 228.071 61.9511 227.955 61.531 228.662Z" fill="#2F2E41"/>
<path d="M102.685 228.785L97.3001 228.784L94.7384 208.013L102.686 208.013L102.685 228.785Z" fill="#FFB6B6"/>
<path d="M84.2353 228.662C84.0676 228.945 83.9791 229.856 83.9791 230.185C83.9791 231.194 84.7974 232.012 85.8068 232.012H102.484C103.172 232.012 103.731 231.454 103.731 230.765V230.071C103.731 230.071 104.556 227.984 102.857 225.412C102.857 225.412 100.746 227.426 97.5916 224.272L96.6614 222.587L89.928 227.511L86.1958 227.971C85.3793 228.071 84.6553 227.955 84.2353 228.662Z" fill="#2F2E41"/>
<path d="M103.753 97.6459L64.2478 97.1918L60.161 123.075L70.1509 212.529H83.2478L86.2709 129.205L91.7199 214.119H105.13L111.246 117.399L103.753 97.6459Z" fill="#2F2E41"/>
<path d="M271.234 225.217C272.172 225.276 272.691 224.11 271.981 223.431L271.91 223.15C271.92 223.128 271.929 223.105 271.938 223.083C272.887 220.821 276.102 220.836 277.043 223.102C277.878 225.113 278.941 227.127 279.203 229.253C279.32 230.191 279.267 231.148 279.059 232.068C281.015 227.795 282.044 223.129 282.044 218.436C282.044 217.257 281.98 216.078 281.848 214.902C281.739 213.94 281.59 212.984 281.396 212.037C280.349 206.916 278.082 202.039 274.812 197.965C273.24 197.106 271.929 195.762 271.137 194.152C270.853 193.572 270.63 192.947 270.524 192.31C270.703 192.334 271.199 189.609 271.064 189.442C271.313 189.064 271.759 188.876 272.032 188.507C273.386 186.67 275.252 186.991 276.226 189.486C278.306 190.536 278.327 192.278 277.05 193.953C276.238 195.019 276.126 196.46 275.413 197.601C275.487 197.695 275.563 197.786 275.636 197.88C276.981 199.605 278.144 201.458 279.124 203.406C278.847 201.241 279.256 198.634 279.953 196.953C280.747 195.038 282.235 193.425 283.545 191.77C285.119 189.781 288.347 190.649 288.624 193.17C288.627 193.194 288.629 193.219 288.632 193.243C288.437 193.353 288.246 193.47 288.06 193.593C286.998 194.295 287.365 195.942 288.624 196.136L288.652 196.141C288.582 196.842 288.462 197.537 288.286 198.22C289.967 204.721 286.338 207.088 281.156 207.195C281.042 207.253 280.93 207.312 280.816 207.368C281.341 208.846 281.76 210.362 282.071 211.899C282.35 213.257 282.543 214.63 282.652 216.008C282.787 217.747 282.775 219.495 282.628 221.231L282.637 221.17C283.009 219.258 284.048 217.472 285.555 216.234C287.801 214.389 290.974 213.71 293.396 212.227C294.563 211.513 296.057 212.436 295.854 213.788L295.844 213.852C295.483 213.999 295.131 214.169 294.791 214.36C294.596 214.47 294.406 214.586 294.219 214.709C293.157 215.412 293.524 217.059 294.783 217.253L294.811 217.257C294.832 217.26 294.849 217.263 294.87 217.266C294.251 218.736 293.389 220.099 292.31 221.276C291.259 226.95 286.744 227.489 281.915 225.836H281.913C281.385 228.136 280.613 230.382 279.622 232.523H271.439C271.41 232.432 271.384 232.338 271.357 232.247C272.114 232.294 272.876 232.25 273.621 232.112C273.014 231.368 272.407 230.617 271.8 229.872C271.785 229.857 271.774 229.842 271.762 229.828C271.454 229.446 271.143 229.068 270.835 228.687L270.835 228.686C270.816 227.516 270.956 226.349 271.234 225.217Z" fill="#F2F2F2"/>
<path d="M0 232.708C0 233.008 0.240678 233.249 0.540388 233.249H299.46C299.759 233.249 300 233.008 300 232.708C300 232.409 299.759 232.168 299.46 232.168H0.540388C0.240678 232.168 0 232.409 0 232.708Z" fill="#CCCCCC"/>
<path d="M90.3576 29.7602H76.2971L73.5565 35.2092L60.161 41.3608L64.9289 76.5309L61.2962 99.6892H106.674L102.618 72.8983L108.067 40.6582L93.0821 34.7552L90.3576 29.7602Z" fill="#E6E6E6"/>
<path d="M137.422 114.984C136.809 113.733 136.529 112.447 136.561 111.322L129.966 99.7721L135.554 96.7949L141.642 108.831C142.551 109.496 143.396 110.504 144.009 111.756C145.41 114.614 145.071 117.653 143.252 118.545C141.433 119.436 138.823 117.842 137.422 114.984Z" fill="#FFB6B6"/>
<path d="M93.9539 39.1084C93.9539 39.1084 98.4027 34.5311 103.393 37.7164C108.384 40.9017 126.589 73.4976 126.589 73.4976L140.633 101.52L130.72 106.138L118.761 79.3044L93.6455 52.2767L93.9539 39.1084Z" fill="#E6E6E6"/>
<path d="M82.7318 27.1042C89.7439 27.1042 95.4283 21.4198 95.4283 14.4077C95.4283 7.39566 89.7439 1.71127 82.7318 1.71127C75.7198 1.71127 70.0354 7.39566 70.0354 14.4077C70.0354 21.4198 75.7198 27.1042 82.7318 27.1042Z" fill="#FFB6B6"/>
<path d="M78.7473 24.626C78.8061 25.8698 78.8355 26.4918 78.6444 26.5669C78.0691 26.7932 70.6618 22.4186 69.7896 19.5065C69.3828 18.1483 69.7263 18.1212 69.4293 14.2572C69.1453 10.5615 68.827 10.532 69.2034 9.61772C69.6218 8.60148 70.8995 7.3494 73.4548 4.84523C74.4211 3.89838 74.9042 3.42496 75.2091 3.18019C76.1334 2.43832 79.5768 -0.325383 82.7342 0.0316777C84.0577 0.181348 83.8315 0.709757 88.7757 3.39096C89.2016 3.6219 89.7727 3.92676 90.5613 4.27677C92.4795 5.12805 93.6694 5.34875 94.2959 5.58614C98.0925 7.02489 96.9783 15.0394 96.652 15.0853C96.5331 15.1021 96.5008 14.0628 95.8778 13.9769C95.317 13.8995 94.96 14.6887 94.4502 14.7174C93.0583 14.7959 94.6041 13.4634 91.1974 11.9835C89.8731 11.4082 93.5581 14.0022 90.0501 13.9601C84.5643 13.8942 88.0728 14.2434 85.9895 15.3377C84.4701 16.1358 78.3581 11.7437 78.6064 13.1471C78.7816 14.137 79.4999 14.422 79.3963 15.531C79.2959 16.6054 78.4884 17.7634 77.7762 17.8059C77.1198 17.8451 76.76 16.9239 76.5411 17.0121C76.3029 17.108 76.5645 18.264 77.0781 19.4516C77.7301 20.9594 78.1193 20.9712 78.4631 22.1308C78.6609 22.7977 78.6897 23.4071 78.7473 24.626Z" fill="#2F2E41"/>
<path d="M178.816 111.256L97.0091 90.442C91.7797 89.1115 88.6077 83.7745 89.9382 78.5451L100.115 38.5444C101.446 33.3149 106.783 30.1429 112.012 31.4734L193.819 52.2872C199.049 53.6177 202.221 58.9547 200.89 64.1841L190.713 104.185C189.382 109.414 184.045 112.586 178.816 111.256Z" fill="white"/>
<path d="M178.816 111.256L97.0091 90.442C94.3944 89.7767 92.2941 88.1099 90.7936 85.8997C88.6106 82.6839 88.041 78.6353 88.9994 74.8686L97.5337 41.3251C98.492 37.5584 100.927 34.2743 104.382 32.4929C106.756 31.2685 109.398 30.8081 112.012 31.4734L193.819 52.2872C199.057 53.6199 202.223 58.9463 200.89 64.1841L190.713 104.185C189.382 109.414 184.045 112.586 178.816 111.256ZM111.788 32.3535C107.037 31.1445 108.279 35.448 107.07 40.1998C101.171 63.3828 113.371 87.3507 135.59 96.2147C147.584 101 157.56 104.911 157.56 104.911C174.175 109.138 191.071 99.0958 195.298 82.481L200.01 63.9602C201.219 59.2084 198.347 54.3763 193.595 53.1673L111.788 32.3535Z" fill="#3F3D56"/>
<path d="M150.065 63.8753C149.495 59.189 145.234 55.8521 140.548 56.4221C135.906 56.9868 132.59 61.1731 133.082 65.8067L132.946 65.8232L135.01 82.794L150.626 80.8943C151.12 80.921 151.622 80.9078 152.13 80.846C156.816 80.2759 160.153 76.0148 159.583 71.3285C159.013 66.6421 154.752 63.3052 150.065 63.8753Z" fill="#EE0979"/>
<path d="M120.132 224.192C119.471 222.487 117.553 221.642 115.849 222.303C114.161 222.958 113.316 224.846 113.943 226.538L113.894 226.557L116.289 232.729L121.968 230.525C122.156 230.488 122.343 230.435 122.528 230.363C124.232 229.702 125.077 227.784 124.416 226.08C123.754 224.376 121.837 223.53 120.132 224.192Z" fill="#E6E6E6"/>
<path d="M247.276 224.192C246.615 222.487 244.697 221.642 242.993 222.303C241.305 222.958 240.46 224.846 241.087 226.538L241.038 226.557L243.433 232.729L249.112 230.525C249.299 230.488 249.487 230.435 249.671 230.363C251.376 229.702 252.221 227.784 251.56 226.08C250.898 224.376 248.98 223.53 247.276 224.192Z" fill="#E6E6E6"/>
<path d="M143.36 112.788C149.379 112.788 154.258 107.909 154.258 101.89C154.258 95.8713 149.379 90.9921 143.36 90.9921C137.341 90.9921 132.462 95.8713 132.462 101.89C132.462 107.909 137.341 112.788 143.36 112.788Z" fill="#EE0979"/>
<path d="M93.8189 57.6928C92.6495 58.4504 91.406 58.881 90.2849 58.9833L79.6011 66.904L75.9808 61.7099L87.2083 54.2344C87.7599 53.2531 88.6612 52.2942 89.8305 51.5366C92.5019 49.8059 95.5603 49.781 96.6617 51.481C97.763 53.181 96.4903 55.9621 93.8189 57.6928Z" fill="#FFB6B6"/>
<path d="M68.7955 39.2095C68.7955 39.2095 60.622 38.3013 59.2597 41.4799C57.8975 44.6585 55.173 76.4444 55.173 76.4444L59.7138 84.1639L89.4921 61.6266L83.4617 55.5962L70.6995 61.6266L68.7955 39.2095Z" fill="#E6E6E6"/>
<path d="M187.182 49.4804C188.153 50.4794 189.269 51.1762 190.339 51.5256L198.991 61.6266L203.677 57.3693L194.396 47.5811C194.077 46.5016 193.412 45.3661 192.441 44.3671C190.222 42.0849 187.246 41.3795 185.794 42.7916C184.341 44.2036 184.963 47.1983 187.182 49.4804Z" fill="#A0616A"/>
<path d="M215.693 37.0341C215.693 37.0341 223.863 37.969 224.484 41.3712C225.104 44.7733 220.681 76.3677 220.681 76.3677L214.535 82.882L190.524 54.2791L197.746 49.7431L208.845 58.4643L215.693 37.0341Z" fill="#EE0979"/>
<path d="M105.526 73.7173C109.288 73.7173 112.339 70.6669 112.339 66.904C112.339 63.1411 109.288 60.0907 105.526 60.0907C101.763 60.0907 98.7123 63.1411 98.7123 66.904C98.7123 70.6669 101.763 73.7173 105.526 73.7173Z" fill="#E6E6E6"/>
</g>
<defs>
<clipPath id="clip0_68_1215">
<rect width="300" height="233.249" fill="white"/>
</clipPath>
</defs>
</svg>
