<svg width="300" height="281" viewBox="0 0 300 281" fill="none" xmlns="http://www.w3.org/2000/svg">
<g clip-path="url(#clip0_68_1213)">
<path d="M228.603 66.5834H227.063V24.4093C227.063 17.9356 224.492 11.727 219.914 7.14933C215.337 2.57169 209.128 0 202.654 0H113.305C106.831 0 100.622 2.57169 96.0446 7.14933C91.467 11.727 88.8953 17.9356 88.8953 24.4093V255.779C88.8953 262.253 91.467 268.462 96.0446 273.039C100.622 277.617 106.831 280.189 113.305 280.189H202.656C209.13 280.189 215.338 277.617 219.916 273.039C224.493 268.462 227.065 262.253 227.065 255.779V96.6035H228.603V66.5834Z" fill="#3F3D56"/>
<path d="M222.088 22.776V257.414C222.088 262.322 220.138 267.029 216.668 270.5C213.197 273.971 208.491 275.922 203.582 275.924H112.395C107.485 275.924 102.775 273.974 99.3026 270.503C95.83 267.031 93.8785 262.322 93.8776 257.412V22.776C93.8791 17.866 95.8308 13.1577 99.3034 9.68656C102.776 6.21542 107.485 4.26572 112.395 4.26627H123.456C122.913 5.60194 122.707 7.05057 122.854 8.48483C123.002 9.9191 123.5 11.2951 124.304 12.4918C125.109 13.6886 126.195 14.6695 127.467 15.3483C128.739 16.0271 130.158 16.383 131.6 16.3848H183.586C185.028 16.3829 186.448 16.0267 187.72 15.3477C188.992 14.6687 190.078 13.6876 190.882 12.4907C191.686 11.2937 192.183 9.91762 192.331 8.48326C192.479 7.04891 192.272 5.60024 191.728 4.26462H203.577C208.485 4.26549 213.192 6.21539 216.663 9.68564C220.134 13.1559 222.085 17.8625 222.087 22.7706L222.088 22.776Z" fill="#E6E6E6"/>
<path d="M212.373 263.676H103.594C102.665 263.675 101.775 263.306 101.118 262.649C100.462 261.992 100.092 261.102 100.091 260.174V31.4906C100.092 30.562 100.462 29.6718 101.118 29.0152C101.775 28.3586 102.665 27.9893 103.594 27.9882H212.373C213.301 27.9893 214.191 28.3586 214.848 29.0152C215.505 29.6718 215.874 30.562 215.875 31.4906V260.174C215.874 261.102 215.505 261.992 214.848 262.649C214.191 263.306 213.301 263.675 212.373 263.676Z" fill="white"/>
<path d="M157.571 105.197C174.123 105.197 187.541 91.7788 187.541 75.2267C187.541 58.6746 174.123 45.2565 157.571 45.2565C141.019 45.2565 127.601 58.6746 127.601 75.2267C127.601 91.7788 141.019 105.197 157.571 105.197Z" fill="#E6E6E6"/>
<path d="M157.159 101.14C171.47 101.14 183.072 89.538 183.072 75.2267C183.072 60.9154 171.47 49.3138 157.159 49.3138C142.848 49.3138 131.246 60.9154 131.246 75.2267C131.246 89.538 142.848 101.14 157.159 101.14Z" fill="white"/>
<path d="M157.736 60.5292C154.814 60.5292 151.957 61.3957 149.528 63.0191C147.098 64.6425 145.205 66.9499 144.086 69.6495C142.968 72.3491 142.675 75.3197 143.246 78.1856C143.816 81.0515 145.223 83.684 147.289 85.7502C149.355 87.8164 151.988 89.2236 154.854 89.7936C157.719 90.3637 160.69 90.0711 163.39 88.9529C166.089 87.8347 168.397 85.941 170.02 83.5114C171.644 81.0818 172.51 78.2254 172.51 75.3033C172.51 71.385 170.953 67.6271 168.183 64.8564C165.412 62.0857 161.654 60.5292 157.736 60.5292ZM157.736 64.9615C158.612 64.9615 159.469 65.2215 160.198 65.7085C160.927 66.1955 161.495 66.8877 161.831 67.6977C162.166 68.5076 162.254 69.3987 162.083 70.2585C161.912 71.1183 161.49 71.9081 160.87 72.528C160.25 73.1478 159.46 73.57 158.601 73.741C157.741 73.912 156.85 73.8243 156.04 73.4888C155.23 73.1533 154.538 72.5852 154.051 71.8563C153.563 71.1274 153.304 70.2705 153.304 69.3938C153.304 68.8118 153.418 68.2354 153.641 67.6977C153.864 67.1599 154.19 66.6713 154.602 66.2597C155.013 65.8481 155.502 65.5216 156.04 65.2989C156.577 65.0761 157.154 64.9615 157.736 64.9615ZM157.736 86.2987C155.985 86.2907 154.262 85.8556 152.718 85.0313C151.173 84.2069 149.853 83.0181 148.871 81.568C148.942 78.6133 154.781 76.9865 157.736 76.9865C160.691 76.9865 166.529 78.6133 166.6 81.568C165.618 83.0173 164.298 84.2055 162.753 85.0299C161.209 85.8544 159.487 86.2903 157.736 86.2999V86.2987Z" fill="#EE0979"/>
<path d="M182.305 115.268H130.455V119.166H182.305V115.268Z" fill="#E6E6E6"/>
<path d="M188.771 125.395H123.517V129.292H188.771V125.395Z" fill="#E6E6E6"/>
<path d="M203.945 154.484H112.021V246.408H203.945V154.484Z" fill="#E6E6E6"/>
<path d="M201.517 156.429H113.483V244.463H201.517V156.429Z" fill="white"/>
<path d="M165.881 164.927H131.612V167.502H165.881V164.927Z" fill="#E6E6E6"/>
<path d="M184.53 172.488H131.612V175.064H184.53V172.488Z" fill="#EE0979"/>
<path d="M175.29 179.69H132.162V182.265H175.29V179.69Z" fill="#E6E6E6"/>
<path d="M156.789 187.591H131.612V190.167H156.789V187.591Z" fill="#E6E6E6"/>
<path d="M169.611 195.309H131.612V197.884H169.611V195.309Z" fill="#EE0979"/>
<path d="M165.881 203.075H131.612V205.651H165.881V203.075Z" fill="#E6E6E6"/>
<path d="M184.53 210.636H131.612V213.212H184.53V210.636Z" fill="#EE0979"/>
<path d="M175.29 217.838H132.162V220.413H175.29V217.838Z" fill="#E6E6E6"/>
<path d="M156.789 225.739H131.612V228.315H156.789V225.739Z" fill="#E6E6E6"/>
<path d="M169.611 233.457H131.612V236.033H169.611V233.457Z" fill="#E6E6E6"/>
<path d="M285.449 199.851C285.204 200.28 284.877 200.656 284.486 200.959C284.096 201.261 283.649 201.483 283.172 201.613C282.696 201.743 282.198 201.778 281.708 201.715C281.218 201.653 280.745 201.495 280.316 201.249C279.887 201.004 279.511 200.677 279.209 200.286C278.906 199.896 278.684 199.449 278.554 198.972C278.424 198.496 278.389 197.998 278.452 197.508C278.514 197.018 278.673 196.545 278.918 196.116C278.926 196.102 278.935 196.087 278.943 196.072C279.048 195.896 279.167 195.728 279.298 195.57L276.133 173.015L276.038 172.339L275.396 167.736L275.301 167.073L275.651 167.089L281.782 167.37L283.426 167.444L283.632 171.643L284.798 195.248C285.408 195.831 285.803 196.602 285.921 197.437C286.039 198.272 285.873 199.122 285.449 199.851Z" fill="#FFB8B8"/>
<path d="M276.056 172.543L283.842 171.829C284.246 171.791 284.618 171.595 284.878 171.283C285.137 170.971 285.263 170.57 285.228 170.166L283.786 153.976C283.717 153.204 283.497 152.453 283.138 151.766C282.778 151.079 282.287 150.469 281.693 149.972C281.098 149.475 280.411 149.1 279.671 148.868C278.932 148.636 278.154 148.552 277.382 148.621C276.609 148.69 275.858 148.91 275.172 149.27C274.485 149.629 273.875 150.12 273.378 150.714C272.881 151.309 272.505 151.996 272.274 152.736C272.042 153.475 271.958 154.253 272.027 155.026C272.037 155.137 272.05 155.248 272.066 155.359L274.401 171.239C274.455 171.603 274.637 171.935 274.915 172.176C275.193 172.417 275.549 172.549 275.916 172.55C275.963 172.551 276.01 172.548 276.056 172.543Z" fill="#EE0979"/>
<path d="M281.958 159.464C282.745 157.233 282.782 154.807 282.062 152.553C281.342 150.3 279.904 148.344 277.969 146.984C275.034 144.975 271.016 144.254 266.69 149.405C258.037 159.706 255.771 171.037 255.771 171.037L273.489 173.921C273.489 173.921 279.514 166.556 281.958 159.464Z" fill="#EE0979"/>
<path d="M253.301 275.497H248.25L245.847 256.013H253.302L253.301 275.497Z" fill="#FFB8B8"/>
<path d="M238.509 280.187H254.385V274.053H244.643C243.016 274.053 241.456 274.7 240.305 275.85C239.155 277 238.509 278.561 238.509 280.187Z" fill="#2F2E41"/>
<path d="M294.833 271.091L290.037 272.677L281.639 254.931L288.718 252.591L294.833 271.091Z" fill="#FFB8B8"/>
<path d="M282.258 280.187L297.333 275.205L295.408 269.381L286.158 272.438C285.393 272.691 284.685 273.092 284.075 273.618C283.465 274.144 282.965 274.786 282.603 275.505C282.241 276.225 282.024 277.009 281.965 277.812C281.906 278.615 282.006 279.423 282.258 280.187Z" fill="#2F2E41"/>
<path d="M270.835 141.875C276.425 141.875 280.956 137.344 280.956 131.755C280.956 126.166 276.425 121.635 270.835 121.635C265.246 121.635 260.715 126.166 260.715 131.755C260.715 137.344 265.246 141.875 270.835 141.875Z" fill="#FFB8B8"/>
<path d="M261.974 270.073L266.666 239.111C266.716 238.78 266.879 238.477 267.128 238.254C267.376 238.031 267.695 237.901 268.028 237.886C268.362 237.871 268.691 237.973 268.958 238.174C269.225 238.375 269.414 238.662 269.493 238.987L276.637 268.494C276.75 268.946 277.027 269.34 277.415 269.598C277.803 269.856 278.273 269.96 278.733 269.889L298.439 266.722C298.701 266.68 298.95 266.583 299.17 266.436C299.391 266.29 299.578 266.098 299.718 265.874C299.858 265.649 299.949 265.397 299.984 265.135C300.018 264.873 299.997 264.606 299.92 264.353L274.224 179.637C274.152 179.396 274.143 179.14 274.199 178.895L275.055 175.187C275.149 174.785 275.105 174.363 274.932 173.989C274.758 173.614 274.464 173.309 274.096 173.121C270.597 171.336 261.735 167.624 255.047 171.689C254.83 171.822 254.642 171.997 254.495 172.204C254.347 172.412 254.244 172.647 254.19 172.896L234.117 267.241C234.063 267.497 234.063 267.762 234.118 268.019C234.174 268.275 234.283 268.517 234.439 268.728C234.595 268.939 234.793 269.115 235.022 269.243C235.251 269.372 235.504 269.45 235.765 269.474L259.976 271.642C260.031 271.647 260.086 271.649 260.14 271.649C260.584 271.648 261.012 271.489 261.348 271.2C261.684 270.911 261.906 270.511 261.973 270.073L261.974 270.073Z" fill="#2F2E41"/>
<path d="M277.546 124.605C276.783 124.146 276.106 123.557 275.545 122.866C275.269 122.516 275.086 122.102 275.016 121.661C274.946 121.221 274.991 120.77 275.146 120.352C275.657 119.224 277.176 118.869 278.354 119.252C279.532 119.635 280.441 120.559 281.301 121.449C282.059 122.232 282.839 123.053 283.197 124.083C283.555 125.112 283.371 126.418 282.477 127.043C281.6 127.656 280.338 127.405 279.494 126.747C278.65 126.088 278.128 125.111 277.63 124.163L277.546 124.605Z" fill="#2F2E41"/>
<path d="M280.974 121.721C281.03 118.87 284.28 116.825 287.087 117.33C289.894 117.836 292.052 120.229 293.132 122.869C295.414 128.446 293.701 134.809 291.502 140.422C289.304 146.034 286.582 151.728 286.903 157.745C287.121 160.998 288.212 164.131 290.062 166.814C291.913 169.498 294.454 171.632 297.417 172.991C294.249 174.427 290.462 172.943 287.8 170.705C281.888 165.733 279.606 156.882 282.377 149.672C283.744 146.116 286.153 143.074 288.033 139.76C289.914 136.447 291.294 132.542 290.323 128.858C289.351 125.174 285.219 122.192 281.687 123.617L280.974 121.721Z" fill="#2F2E41"/>
<path d="M270.229 136.246C271.111 134.755 272 132.798 270.388 131.494C270.038 131.224 269.637 131.026 269.209 130.913C268.78 130.8 268.334 130.773 267.896 130.835C266.078 131.054 264.098 131.145 262.338 130.484C261.678 130.257 261.07 129.9 260.551 129.433C260.032 128.967 259.612 128.4 259.316 127.768C258.409 125.616 259.545 123 261.444 121.64C262.606 120.838 263.979 120.396 265.39 120.371C266.802 120.346 268.189 120.739 269.379 121.499C271.839 120.413 274.823 120.896 277.058 122.392C279.293 123.887 280.822 126.283 281.653 128.84C282.418 131.041 282.55 133.414 282.033 135.686C281.617 137.267 280.827 138.725 279.728 139.935C278.63 141.146 277.256 142.074 275.722 142.641C275.125 142.877 274.476 142.951 273.841 142.857C273.206 142.763 272.607 142.504 272.104 142.105C272.104 142.105 270.709 140.888 270.273 139.421C269.937 138.294 269.758 137.042 270.229 136.246Z" fill="#2F2E41"/>
<path d="M240.206 145.276C240.257 145.498 240.29 145.724 240.305 145.952L258.005 156.163L262.307 153.686L266.893 159.69L259.703 164.815C259.122 165.23 258.423 165.444 257.709 165.427C256.996 165.409 256.308 165.161 255.748 164.719L237.494 150.32C236.67 150.625 235.773 150.672 234.922 150.455C234.07 150.238 233.305 149.766 232.728 149.103C232.151 148.441 231.79 147.618 231.692 146.745C231.594 145.872 231.764 144.989 232.18 144.215C232.596 143.441 233.238 142.812 234.02 142.412C234.802 142.011 235.687 141.858 236.558 141.974C237.43 142.089 238.245 142.466 238.896 143.056C239.547 143.646 240.003 144.42 240.204 145.276H240.206Z" fill="#FFB8B8"/>
<path d="M258.597 156.647L264.318 164.061C264.481 164.272 264.687 164.445 264.923 164.569C265.158 164.693 265.418 164.764 265.684 164.779C265.949 164.793 266.215 164.751 266.463 164.653C266.711 164.556 266.935 164.406 267.12 164.215L273.596 157.49C274.692 156.674 275.419 155.457 275.617 154.105C275.815 152.754 275.468 151.379 274.653 150.283C273.837 149.187 272.62 148.46 271.268 148.262C269.917 148.064 268.542 148.41 267.446 149.226C267.39 149.268 267.335 149.31 267.28 149.354L259.158 153.896C258.926 154.026 258.724 154.205 258.567 154.42C258.41 154.635 258.301 154.881 258.247 155.143C258.194 155.404 258.197 155.673 258.257 155.933C258.318 156.192 258.433 156.436 258.596 156.647L258.597 156.647Z" fill="#EE0979"/>
<path d="M50.97 174.317C50.7679 174.409 50.5735 174.518 50.3887 174.641L31.9078 166.754L31.2485 161.885L23.8639 161.84L24.3002 173.006L48.6931 179.458C48.7445 179.628 48.8061 179.794 48.8777 179.956C49.2304 180.708 49.7976 181.34 50.508 181.771C51.2185 182.203 52.0405 182.414 52.8709 182.38C53.7013 182.345 54.503 182.066 55.1754 181.578C55.8478 181.089 56.3608 180.413 56.65 179.634C56.9392 178.855 56.9918 178.007 56.8011 177.199C56.6104 176.39 56.1849 175.655 55.5781 175.087C54.9713 174.519 54.2102 174.143 53.3905 174.006C52.5707 173.87 51.7288 173.978 50.9704 174.318L50.97 174.317Z" fill="#A0616A"/>
<path d="M21.1783 275.498H26.2299L28.633 256.013H21.1775L21.1783 275.498Z" fill="#A0616A"/>
<path d="M29.8381 274.054H20.0958V280.186H35.9722C35.9722 278.559 35.3259 276.999 34.1756 275.849C33.0252 274.698 31.465 274.052 29.8381 274.052V274.054Z" fill="#2F2E41"/>
<path d="M1.5321 274.07L6.55902 274.565L10.8611 255.41L3.44151 254.681L1.5321 274.07Z" fill="#A0616A"/>
<path d="M10.2947 273.484L0.601137 272.529L0 278.632L15.7966 280.188C15.8755 279.387 15.7958 278.577 15.562 277.807C15.3282 277.036 14.9449 276.319 14.434 275.696C13.9231 275.074 13.2945 274.558 12.5842 274.178C11.8739 273.799 11.0962 273.563 10.2947 273.484Z" fill="#2F2E41"/>
<path d="M19.772 141.219C25.3612 141.219 29.8922 136.688 29.8922 131.099C29.8922 125.51 25.3612 120.979 19.772 120.979C14.1828 120.979 9.65186 125.51 9.65186 131.099C9.65186 136.688 14.1828 141.219 19.772 141.219Z" fill="#A0616A"/>
<path d="M27.3589 271.557C27.7932 271.558 28.2139 271.406 28.5468 271.127C28.8796 270.848 29.1032 270.46 29.1781 270.033C31.7908 255.521 40.3395 208.062 40.5438 206.746C40.5484 206.716 40.5506 206.685 40.5504 206.654V203.116C40.5508 202.987 40.5106 202.861 40.4355 202.757L39.3065 201.175C39.2528 201.099 39.1824 201.036 39.1007 200.992C39.019 200.947 38.9281 200.922 38.8351 200.918C32.3982 200.616 11.3173 199.731 10.2988 201.004C9.27608 202.281 9.6395 206.157 9.72191 206.921L9.71778 207L0.247014 267.57C0.172826 268.053 0.291853 268.546 0.578333 268.942C0.864814 269.338 1.2957 269.605 1.77775 269.686L7.69302 270.661C8.13356 270.731 8.58487 270.642 8.96485 270.408C9.34482 270.174 9.62824 269.811 9.76353 269.386C11.593 263.54 17.7279 243.873 19.854 236.263C19.8676 236.215 19.8981 236.174 19.9399 236.147C19.9816 236.12 20.0318 236.109 20.0811 236.116C20.1304 236.123 20.1755 236.147 20.2081 236.185C20.2407 236.223 20.2585 236.271 20.2582 236.321C20.1519 243.575 19.8952 262.083 19.805 268.475L19.7955 269.164C19.7916 269.63 19.9627 270.08 20.2749 270.426C20.5872 270.773 21.0179 270.989 21.482 271.033L27.1859 271.549C27.2434 271.555 27.3012 271.557 27.3589 271.557Z" fill="#2F2E41"/>
<path d="M26.1948 145.198C27.9608 146.248 29.0177 148.178 29.6242 150.143C30.7469 153.778 31.4227 157.536 31.6366 161.334L32.2778 172.706L40.2116 202.855C33.3351 208.673 29.3688 207.351 20.1118 202.592C10.8549 197.833 9.79761 204.179 9.79761 204.179L7.94673 178.526L5.30225 150.494C5.89596 149.779 6.56793 149.133 7.30559 148.568C9.74992 146.667 12.5939 145.345 15.6231 144.703C18.6524 144.06 21.7879 144.114 24.7935 144.859L26.1948 145.198Z" fill="#E6E6E6"/>
<path d="M28.7718 180.406C28.5585 180.486 28.3519 180.582 28.1538 180.694L9.87971 171.547L9.57645 166.592L2.03856 166.072L1.63477 177.367L26.0548 185.443C26.2541 186.299 26.7091 187.074 27.3595 187.665C28.0099 188.256 28.8247 188.634 29.6956 188.751C30.5665 188.867 31.4521 188.715 32.2348 188.316C33.0174 187.917 33.6599 187.289 34.0768 186.515C34.4937 185.742 34.6652 184.86 34.5685 183.986C34.4718 183.113 34.1115 182.29 33.5355 181.626C32.9596 180.963 32.1952 180.49 31.3442 180.272C30.4931 180.053 29.5958 180.099 28.7714 180.403L28.7718 180.406Z" fill="#A0616A"/>
<path d="M5.43414 150.62C0.938352 152.207 0.145996 169.398 0.145996 169.398C5.43537 166.489 11.7825 171.249 11.7825 171.249C11.7825 171.249 13.1047 166.753 14.6915 160.935C15.1706 159.299 15.2279 157.567 14.8581 155.903C14.4882 154.238 13.7032 152.694 12.576 151.415C12.576 151.415 9.93035 149.032 5.43414 150.62Z" fill="#E6E6E6"/>
<path d="M10.6996 133.775C11.9604 132.767 13.6807 134.6 13.6807 134.6L14.6894 125.522C14.6894 125.522 20.9936 126.277 25.0291 125.27C29.0647 124.262 29.6947 128.927 29.6947 128.927C29.9027 127.043 29.9449 125.144 29.8208 123.252C29.5686 120.983 26.2904 118.713 20.4901 117.2C14.6898 115.687 11.6637 122.244 11.6637 122.244C7.62659 124.261 9.43709 134.784 10.6996 133.775Z" fill="#2F2E41"/>
</g>
<defs>
<clipPath id="clip0_68_1213">
<rect width="300" height="280.189" fill="white"/>
</clipPath>
</defs>
</svg>
