<svg width="300" height="253" viewBox="0 0 300 253" fill="none" xmlns="http://www.w3.org/2000/svg">
<g clip-path="url(#clip0_68_1214)">
<path d="M248.751 204.092L149.221 158.655L200.471 46.3944L300 91.8315L248.751 204.092Z" fill="#F2F2F2"/>
<path d="M263.912 138.875L188.566 104.478C188.424 104.413 188.314 104.294 188.259 104.148C188.205 104.002 188.21 103.84 188.275 103.698C188.34 103.556 188.458 103.446 188.605 103.391C188.751 103.337 188.913 103.343 189.054 103.407L264.401 137.805C264.543 137.869 264.653 137.988 264.708 138.134C264.762 138.28 264.757 138.442 264.692 138.584C264.627 138.726 264.509 138.836 264.362 138.891C264.216 138.945 264.054 138.94 263.912 138.875Z" fill="white"/>
<path d="M268.102 129.697L192.756 95.2999C192.685 95.2678 192.622 95.2222 192.569 95.1657C192.517 95.1092 192.476 95.0428 192.449 94.9704C192.422 94.8981 192.409 94.8211 192.412 94.7439C192.415 94.6667 192.433 94.5908 192.465 94.5205C192.497 94.4502 192.543 94.387 192.599 94.3343C192.656 94.2817 192.722 94.2407 192.794 94.2137C192.867 94.1867 192.944 94.1742 193.021 94.1769C193.098 94.1797 193.174 94.1976 193.244 94.2297L268.591 128.627C268.661 128.659 268.724 128.705 268.777 128.761C268.83 128.818 268.871 128.884 268.898 128.956C268.925 129.029 268.937 129.106 268.934 129.183C268.932 129.26 268.914 129.336 268.882 129.406C268.85 129.477 268.804 129.54 268.747 129.592C268.691 129.645 268.625 129.686 268.552 129.713C268.48 129.74 268.403 129.753 268.326 129.75C268.248 129.747 268.173 129.729 268.102 129.697Z" fill="white"/>
<path d="M272.292 120.519L196.945 86.1222C196.875 86.0902 196.812 86.0445 196.759 85.988C196.707 85.9315 196.666 85.8651 196.639 85.7928C196.612 85.7204 196.599 85.6434 196.602 85.5662C196.605 85.489 196.622 85.4131 196.655 85.3428C196.687 85.2726 196.732 85.2093 196.789 85.1567C196.845 85.104 196.912 85.063 196.984 85.036C197.056 85.009 197.133 84.9965 197.211 84.9993C197.288 85.002 197.364 85.0199 197.434 85.052L272.781 119.449C272.922 119.514 273.032 119.633 273.087 119.779C273.141 119.925 273.135 120.086 273.07 120.228C273.006 120.37 272.887 120.48 272.741 120.535C272.595 120.589 272.434 120.584 272.292 120.519Z" fill="white"/>
<path d="M276.482 111.342L201.135 76.9446C201.065 76.9125 201.002 76.8669 200.949 76.8103C200.896 76.7538 200.855 76.6875 200.828 76.6151C200.801 76.5427 200.789 76.4657 200.792 76.3885C200.794 76.3113 200.812 76.2354 200.844 76.1652C200.876 76.0949 200.922 76.0316 200.979 75.979C201.035 75.9263 201.101 75.8854 201.174 75.8584C201.246 75.8313 201.323 75.8189 201.4 75.8216C201.478 75.8243 201.554 75.8423 201.624 75.8744L276.97 110.272C277.041 110.304 277.104 110.349 277.157 110.406C277.209 110.462 277.25 110.529 277.277 110.601C277.304 110.673 277.317 110.75 277.314 110.828C277.311 110.905 277.293 110.981 277.261 111.051C277.229 111.121 277.183 111.184 277.127 111.237C277.07 111.29 277.004 111.331 276.932 111.358C276.859 111.385 276.782 111.397 276.705 111.394C276.628 111.392 276.552 111.374 276.482 111.342Z" fill="white"/>
<path d="M260.126 147.169L184.779 112.772C184.709 112.74 184.646 112.694 184.593 112.637C184.541 112.581 184.5 112.515 184.473 112.442C184.446 112.37 184.433 112.293 184.436 112.216C184.439 112.138 184.457 112.063 184.489 111.992C184.521 111.922 184.566 111.859 184.623 111.806C184.679 111.753 184.746 111.713 184.818 111.686C184.891 111.658 184.968 111.646 185.045 111.649C185.122 111.651 185.198 111.669 185.268 111.702L260.615 146.099C260.757 146.163 260.867 146.282 260.921 146.428C260.976 146.574 260.97 146.736 260.905 146.878C260.841 147.02 260.722 147.13 260.576 147.185C260.43 147.239 260.268 147.234 260.126 147.169Z" fill="white"/>
<path d="M272.708 97.879L213.853 71.0105C213.522 70.8679 213.254 70.6085 213.102 70.2817C212.949 69.9549 212.922 69.5835 213.026 69.238C213.089 69.0503 213.191 68.8779 213.325 68.732C213.459 68.5862 213.622 68.4702 213.804 68.3914C213.986 68.3127 214.182 68.273 214.381 68.2749C214.579 68.2768 214.774 68.3203 214.954 68.4026L273.792 95.2629C274.129 95.4063 274.401 95.6694 274.556 96.0015C274.711 96.3337 274.737 96.7114 274.63 97.0618C274.565 97.2472 274.462 97.4169 274.327 97.5602C274.193 97.7034 274.03 97.8171 273.849 97.894C273.668 97.9709 273.474 98.0093 273.277 98.0067C273.081 98.0041 272.887 97.9606 272.708 97.879Z" fill="white"/>
<path d="M46.248 91.8315L145.778 46.3944L197.027 158.655L97.4973 204.092L46.248 91.8315Z" fill="#F2F2F2"/>
<path d="M82.3356 138.875L157.682 104.478C157.752 104.445 157.816 104.4 157.868 104.343C157.921 104.287 157.962 104.22 157.989 104.148C158.016 104.076 158.028 103.999 158.026 103.922C158.023 103.844 158.005 103.768 157.973 103.698C157.941 103.628 157.895 103.565 157.839 103.512C157.782 103.459 157.716 103.418 157.643 103.391C157.571 103.364 157.494 103.352 157.417 103.355C157.34 103.357 157.264 103.375 157.194 103.407L81.847 137.805C81.7767 137.837 81.7135 137.882 81.6608 137.939C81.6082 137.995 81.5672 138.062 81.5402 138.134C81.5132 138.206 81.5007 138.283 81.5034 138.361C81.5062 138.438 81.5241 138.514 81.5562 138.584C81.5883 138.654 81.6339 138.717 81.6904 138.77C81.7469 138.823 81.8133 138.864 81.8856 138.891C81.958 138.918 82.035 138.93 82.1122 138.927C82.1894 138.925 82.2653 138.907 82.3356 138.875Z" fill="white"/>
<path d="M78.1457 129.697L153.492 95.2999C153.634 95.2351 153.745 95.1166 153.799 94.9704C153.854 94.8243 153.848 94.6624 153.783 94.5205C153.718 94.3786 153.6 94.2682 153.454 94.2137C153.308 94.1592 153.146 94.1649 153.004 94.2297L77.6572 128.627C77.5869 128.659 77.5236 128.705 77.471 128.761C77.4183 128.818 77.3774 128.884 77.3503 128.956C77.3233 129.029 77.3109 129.106 77.3136 129.183C77.3164 129.26 77.3343 129.336 77.3664 129.406C77.3984 129.477 77.444 129.54 77.5006 129.592C77.5571 129.645 77.6235 129.686 77.6958 129.713C77.7682 129.74 77.8452 129.753 77.9224 129.75C77.9996 129.747 78.0755 129.729 78.1457 129.697Z" fill="white"/>
<path d="M73.9561 120.519L149.303 86.1222C149.445 86.0574 149.555 85.9389 149.61 85.7928C149.664 85.6466 149.658 85.4848 149.594 85.3428C149.529 85.2009 149.41 85.0906 149.264 85.036C149.118 84.9815 148.956 84.9872 148.814 85.052L73.4675 119.449C73.3258 119.514 73.2156 119.633 73.1612 119.779C73.1067 119.925 73.1125 120.086 73.1773 120.228C73.242 120.37 73.3604 120.48 73.5064 120.535C73.6525 120.59 73.8142 120.584 73.9561 120.519Z" fill="white"/>
<path d="M69.7662 111.342L145.113 76.9446C145.183 76.9125 145.246 76.8669 145.299 76.8103C145.352 76.7538 145.393 76.6875 145.42 76.6151C145.447 76.5427 145.459 76.4657 145.456 76.3885C145.454 76.3113 145.436 76.2354 145.404 76.1652C145.372 76.0949 145.326 76.0316 145.269 75.979C145.213 75.9263 145.147 75.8853 145.074 75.8583C145.002 75.8313 144.925 75.8189 144.848 75.8216C144.77 75.8243 144.695 75.8423 144.624 75.8744L69.2777 110.272C69.1357 110.336 69.0254 110.455 68.9708 110.601C68.9163 110.747 68.922 110.909 68.9868 111.051C69.0516 111.193 69.1701 111.303 69.3163 111.358C69.4625 111.412 69.6243 111.407 69.7662 111.342Z" fill="white"/>
<path d="M86.1221 147.169L161.469 112.772C161.611 112.707 161.721 112.588 161.775 112.442C161.83 112.296 161.824 112.134 161.759 111.992C161.695 111.85 161.576 111.74 161.43 111.685C161.284 111.631 161.122 111.637 160.98 111.701L85.6335 146.099C85.5632 146.131 85.5 146.176 85.4473 146.233C85.3947 146.289 85.3537 146.356 85.3267 146.428C85.2997 146.5 85.2872 146.577 85.2899 146.655C85.2927 146.732 85.3106 146.808 85.3427 146.878C85.3748 146.948 85.4204 147.012 85.4769 147.064C85.5334 147.117 85.5998 147.158 85.6721 147.185C85.7445 147.212 85.8215 147.224 85.8987 147.222C85.9759 147.219 86.0518 147.201 86.1221 147.169Z" fill="white"/>
<path d="M73.54 97.879L132.395 71.0105C132.726 70.8679 132.994 70.6085 133.146 70.2817C133.299 69.9549 133.326 69.5835 133.222 69.238C133.159 69.0503 133.057 68.8779 132.923 68.732C132.789 68.5862 132.625 68.4702 132.444 68.3914C132.262 68.3127 132.066 68.273 131.867 68.2749C131.669 68.2768 131.474 68.3203 131.293 68.4026L72.4561 95.2629C72.1189 95.4063 71.8466 95.6694 71.6918 96.0015C71.537 96.3337 71.5105 96.7114 71.6175 97.0618C71.6829 97.2472 71.786 97.4169 71.9205 97.5602C72.055 97.7034 72.2179 97.8171 72.3987 97.894C72.5796 97.9709 72.7745 98.0093 72.9709 98.0067C73.1674 98.0041 73.3612 97.9606 73.54 97.879Z" fill="white"/>
<path d="M9.94952 224.387C10.5779 214.653 16.0015 204.777 25.0303 201.086C21.9861 211.247 22.6342 222.158 26.8599 231.887C28.5032 235.633 30.721 239.629 29.6181 243.569C28.9318 246.02 27.0135 247.978 24.8154 249.261C22.6172 250.545 20.1345 251.242 17.6827 251.926L17.2178 252.359C12.7468 243.69 9.32113 234.121 9.94952 224.387Z" fill="#F0F0F0"/>
<path d="M25.1326 201.263C20.1227 207.595 17.2352 215.344 16.8802 223.41C16.773 225.145 16.9399 226.886 17.3748 228.569C17.8515 230.195 18.7548 231.663 19.991 232.822C21.1219 233.926 22.4064 234.923 23.2494 236.283C23.6706 236.985 23.9385 237.768 24.0358 238.581C24.133 239.394 24.0573 240.218 23.8136 241C23.257 242.963 22.0281 244.61 20.7704 246.178C19.374 247.919 17.896 249.706 17.3907 251.934C17.3295 252.204 16.9141 252.094 16.9752 251.824C17.8543 247.947 21.4261 245.562 22.987 242.024C23.7154 240.373 23.9507 238.493 23.0784 236.848C22.3157 235.409 20.9919 234.379 19.8371 233.271C18.6147 232.159 17.6832 230.764 17.1242 229.208C16.6049 227.552 16.3712 225.821 16.433 224.087C16.5099 220.181 17.2005 216.311 18.4793 212.62C19.9156 208.399 22.0632 204.455 24.8295 200.958C25.0008 200.742 25.3027 201.048 25.1326 201.263Z" fill="white"/>
<path d="M16.8416 220.806C15.4964 220.563 14.2814 219.849 13.4137 218.793C12.5461 217.736 12.0821 216.406 12.1048 215.039C12.1062 214.983 12.1292 214.93 12.169 214.891C12.2087 214.852 12.2621 214.83 12.3179 214.829C12.3736 214.829 12.4274 214.85 12.4679 214.888C12.5083 214.927 12.5323 214.979 12.5348 215.035C12.5113 216.308 12.9436 217.547 13.7536 218.529C14.5636 219.511 15.698 220.171 16.9519 220.39C17.2244 220.438 17.1125 220.853 16.8416 220.806Z" fill="white"/>
<path d="M19.3438 232.338C21.6541 230.766 23.2869 228.381 23.9167 225.658C23.9789 225.388 24.3943 225.499 24.3322 225.768C23.6715 228.6 21.9673 231.079 19.5596 232.71C19.33 232.865 19.1155 232.492 19.3438 232.338Z" fill="white"/>
<path d="M20.3378 208.782C20.8386 208.985 21.382 209.06 21.919 209C22.4561 208.941 22.9699 208.749 23.4146 208.442C23.6421 208.284 23.8563 208.657 23.6303 208.814C23.1375 209.151 22.5697 209.362 21.9765 209.429C21.3833 209.496 20.7828 209.416 20.2274 209.198C20.1733 209.181 20.1274 209.145 20.0991 209.096C20.0708 209.047 20.0621 208.99 20.0748 208.935C20.0897 208.88 20.1257 208.833 20.1749 208.804C20.2242 208.776 20.2827 208.768 20.3378 208.782Z" fill="white"/>
<path d="M54.1438 216.678C54.0046 216.781 53.8653 216.884 53.7261 216.99C51.861 218.382 50.1121 219.922 48.4966 221.597C48.3696 221.724 48.2429 221.855 48.1198 221.986C44.2706 226.062 41.2115 230.817 39.0981 236.01C38.2591 238.077 37.5785 240.205 37.0623 242.375C36.3495 245.372 35.8152 248.679 34.2014 251.192C34.036 251.456 33.8543 251.709 33.6576 251.951L17.7824 252.893C17.7453 252.877 17.7082 252.865 17.6708 252.849L17.0387 252.915C17.0575 252.801 17.0795 252.684 17.0983 252.57C17.1089 252.504 17.1231 252.438 17.1337 252.372C17.1419 252.327 17.1503 252.283 17.1552 252.243C17.1579 252.228 17.1607 252.214 17.1636 252.203C17.1685 252.162 17.1773 252.125 17.1824 252.089C17.3033 251.431 17.429 250.773 17.5596 250.115C17.5593 250.111 17.5593 250.111 17.5627 250.107C18.5702 245.093 20.0051 240.119 22.1494 235.521C22.214 235.383 22.2781 235.241 22.35 235.103C23.328 233.035 24.4733 231.052 25.7746 229.171C26.4904 228.144 27.2578 227.153 28.0738 226.203C30.1869 223.753 32.6722 221.65 35.4387 219.972C40.9542 216.628 47.4777 215.086 53.6717 216.561C53.8301 216.599 53.9852 216.637 54.1438 216.678Z" fill="#F0F0F0"/>
<path d="M54.1202 216.882C46.3081 218.921 39.3371 223.37 34.1974 229.596C33.0671 230.917 32.1521 232.408 31.486 234.013C30.8878 235.598 30.7248 237.315 31.0143 238.984C31.2528 240.546 31.6778 242.116 31.5325 243.709C31.446 244.523 31.1884 245.31 30.7766 246.018C30.3648 246.725 29.808 247.338 29.1428 247.815C27.5163 249.048 25.5439 249.623 23.5955 250.118C21.4321 250.667 19.1764 251.204 17.4312 252.679C17.2198 252.858 16.9548 252.519 17.1659 252.34C20.2023 249.774 24.4899 250.02 27.8663 248.135C29.4418 247.256 30.7617 245.896 31.0558 244.057C31.313 242.449 30.8762 240.83 30.621 239.25C30.3148 237.626 30.411 235.951 30.9012 234.373C31.4834 232.738 32.3394 231.215 33.4327 229.868C35.8457 226.795 38.7267 224.121 41.9703 221.944C45.6583 219.439 49.7478 217.582 54.0618 216.456C54.3289 216.386 54.3854 216.813 54.1202 216.882Z" fill="white"/>
<path d="M35.7343 227.494C34.8067 226.49 34.2662 225.188 34.2094 223.823C34.1526 222.457 34.5832 221.115 35.4242 220.038C35.5952 219.82 35.9411 220.075 35.77 220.293C34.985 221.295 34.584 222.545 34.6395 223.817C34.695 225.089 35.2033 226.299 36.0726 227.228C36.2613 227.431 35.9219 227.695 35.7343 227.494Z" fill="white"/>
<path d="M30.7889 238.208C33.5801 238.344 36.3199 237.422 38.4619 235.628C38.674 235.45 38.939 235.788 38.7272 235.966C36.4946 237.83 33.6416 238.783 30.7373 238.635C30.4605 238.621 30.5136 238.194 30.7889 238.208Z" fill="white"/>
<path d="M45.7649 219.999C46.0428 220.462 46.4315 220.849 46.896 221.125C47.3605 221.401 47.8863 221.557 48.4261 221.58C48.7029 221.59 48.6495 222.017 48.3745 222.006C47.7782 221.979 47.1977 221.805 46.6839 221.502C46.17 221.198 45.7383 220.773 45.4266 220.264C45.3932 220.218 45.3784 220.162 45.3852 220.106C45.3919 220.05 45.4198 219.998 45.4631 219.962C45.5081 219.927 45.565 219.911 45.6215 219.918C45.678 219.925 45.7295 219.954 45.7649 219.999Z" fill="white"/>
<path d="M247.175 205.036H98.3486V37.1726H247.175V205.036Z" fill="white"/>
<path d="M247.175 205.036H98.3486V37.1726H247.175V205.036ZM99.1488 204.236H246.375V37.9728H99.1488L99.1488 204.236Z" fill="#CACACA"/>
<path d="M229.095 115.77H116.429C116.324 115.77 116.22 115.75 116.123 115.709C116.026 115.669 115.938 115.61 115.863 115.536C115.789 115.462 115.73 115.373 115.69 115.276C115.65 115.179 115.629 115.075 115.629 114.97C115.629 114.865 115.65 114.761 115.69 114.664C115.73 114.567 115.789 114.479 115.863 114.404C115.938 114.33 116.026 114.271 116.123 114.231C116.22 114.191 116.324 114.17 116.429 114.17H229.095C229.307 114.17 229.51 114.254 229.66 114.404C229.811 114.554 229.895 114.758 229.895 114.97C229.895 115.182 229.811 115.386 229.66 115.536C229.51 115.686 229.307 115.77 229.095 115.77Z" fill="#E4E4E4"/>
<path d="M229.095 102.047H116.429C116.217 102.047 116.013 101.963 115.863 101.813C115.713 101.662 115.629 101.459 115.629 101.247C115.629 101.035 115.713 100.831 115.863 100.681C116.013 100.531 116.217 100.447 116.429 100.447H229.095C229.307 100.447 229.51 100.531 229.66 100.681C229.811 100.831 229.895 101.035 229.895 101.247C229.895 101.459 229.811 101.662 229.66 101.813C229.51 101.963 229.307 102.047 229.095 102.047Z" fill="#E4E4E4"/>
<path d="M229.095 88.3235H116.429C116.324 88.3235 116.22 88.3029 116.123 88.2627C116.026 88.2224 115.938 88.1635 115.863 88.0892C115.789 88.0149 115.73 87.9267 115.69 87.8296C115.65 87.7325 115.629 87.6285 115.629 87.5234C115.629 87.4183 115.65 87.3143 115.69 87.2172C115.73 87.1201 115.789 87.0319 115.863 86.9576C115.938 86.8833 116.026 86.8244 116.123 86.7842C116.22 86.744 116.324 86.7233 116.429 86.7233H229.095C229.307 86.7233 229.51 86.8076 229.66 86.9576C229.811 87.1077 229.895 87.3112 229.895 87.5234C229.895 87.7356 229.811 87.9391 229.66 88.0892C229.51 88.2393 229.307 88.3235 229.095 88.3235Z" fill="#E4E4E4"/>
<path d="M229.095 74.6002H116.429C116.217 74.6002 116.013 74.5159 115.863 74.3658C115.713 74.2158 115.629 74.0123 115.629 73.8C115.629 73.5878 115.713 73.3843 115.863 73.2343C116.013 73.0842 116.217 72.9999 116.429 72.9999H229.095C229.307 72.9999 229.51 73.0842 229.66 73.2343C229.811 73.3843 229.895 73.5878 229.895 73.8C229.895 74.0123 229.811 74.2158 229.66 74.3658C229.51 74.5159 229.307 74.6002 229.095 74.6002Z" fill="#E4E4E4"/>
<path d="M229.095 128.172H116.429C116.217 128.172 116.013 128.088 115.863 127.938C115.713 127.788 115.629 127.584 115.629 127.372C115.629 127.16 115.713 126.957 115.863 126.806C116.013 126.656 116.217 126.572 116.429 126.572H229.095C229.307 126.572 229.51 126.656 229.66 126.806C229.811 126.957 229.895 127.16 229.895 127.372C229.895 127.584 229.811 127.788 229.66 127.938C229.51 128.088 229.307 128.172 229.095 128.172Z" fill="#E4E4E4"/>
<path d="M229.095 189.742H116.429C116.217 189.742 116.013 189.658 115.863 189.508C115.713 189.358 115.629 189.154 115.629 188.942C115.629 188.73 115.713 188.526 115.863 188.376C116.013 188.226 116.217 188.142 116.429 188.142H229.095C229.307 188.142 229.51 188.226 229.66 188.376C229.811 188.526 229.895 188.73 229.895 188.942C229.895 189.154 229.811 189.358 229.66 189.508C229.51 189.658 229.307 189.742 229.095 189.742Z" fill="#E4E4E4"/>
<path d="M202.106 176.898H143.418C143.026 176.897 142.649 176.741 142.372 176.464C142.095 176.187 141.939 175.811 141.938 175.418V140.896C141.939 140.504 142.095 140.128 142.372 139.85C142.649 139.573 143.026 139.417 143.418 139.416H202.106C202.498 139.417 202.874 139.573 203.152 139.85C203.429 140.128 203.585 140.504 203.585 140.896V175.418C203.585 175.811 203.429 176.187 203.152 176.464C202.874 176.741 202.498 176.897 202.106 176.898Z" fill="white"/>
<path d="M182.507 157.176C182.208 156.856 181.848 156.599 181.448 156.422C181.049 156.244 180.617 156.148 180.18 156.14C179.742 156.132 179.307 156.213 178.901 156.376C178.496 156.54 178.127 156.783 177.817 157.092L161.3 173.608C160.864 174.044 160.273 174.289 159.657 174.29C159.04 174.291 158.449 174.047 158.011 173.613L155.565 171.172C155.262 170.87 154.903 170.63 154.508 170.466C154.113 170.302 153.689 170.218 153.262 170.218C152.834 170.218 152.41 170.302 152.015 170.466C151.62 170.63 151.261 170.87 150.958 171.172L146.224 175.912H199.3V175.236L182.507 157.176Z" fill="#EE0979"/>
<path d="M202.106 176.898H143.418C143.026 176.897 142.649 176.741 142.372 176.464C142.095 176.187 141.939 175.811 141.938 175.418V140.896C141.939 140.504 142.095 140.128 142.372 139.85C142.649 139.573 143.026 139.417 143.418 139.416H202.106C202.498 139.417 202.874 139.573 203.152 139.85C203.429 140.128 203.585 140.504 203.585 140.896V175.418C203.585 175.811 203.429 176.187 203.152 176.464C202.874 176.741 202.498 176.897 202.106 176.898ZM143.418 140.403C143.287 140.403 143.162 140.455 143.069 140.547C142.977 140.64 142.925 140.765 142.925 140.896V175.418C142.925 175.549 142.977 175.674 143.069 175.767C143.162 175.859 143.287 175.911 143.418 175.911H202.106C202.237 175.911 202.362 175.859 202.454 175.767C202.547 175.674 202.599 175.549 202.599 175.418V140.896C202.599 140.765 202.547 140.64 202.454 140.547C202.362 140.455 202.237 140.403 202.106 140.403L143.418 140.403Z" fill="#3F3D56"/>
<path d="M60.6192 171.127C60.768 170.603 60.8 170.052 60.7128 169.514C60.6257 168.975 60.4217 168.463 60.115 168.012C59.8084 167.561 59.4066 167.183 58.938 166.904C58.4694 166.625 57.9454 166.453 57.4028 166.398L54.3277 153.506L49.6145 158.528L53.2573 170.001C53.2264 170.919 53.5331 171.816 54.1193 172.522C54.7056 173.229 55.5306 173.695 56.438 173.834C57.3455 173.973 58.2723 173.774 59.0429 173.275C59.8136 172.776 60.3744 172.012 60.6192 171.127Z" fill="#FFB6B6"/>
<path d="M52.3994 166.451C52.1769 166.377 51.9725 166.257 51.7995 166.099C51.6265 165.941 51.4887 165.748 51.3951 165.533L44.875 149.585C43.2124 145.761 42.9952 141.464 44.2637 137.493L48.4416 124.406C48.5051 123.702 48.7067 123.018 49.0349 122.392C49.3631 121.766 49.8115 121.211 50.3543 120.759C50.8972 120.307 51.5239 119.966 52.1986 119.756C52.8733 119.546 53.5828 119.471 54.2865 119.535C54.9902 119.599 55.6744 119.802 56.2998 120.131C56.9252 120.46 57.4796 120.909 57.9313 121.452C58.383 121.996 58.7232 122.623 58.9324 123.298C59.1416 123.973 59.2156 124.682 59.1504 125.386L53.6098 146.459L57.3207 163.009C57.3788 163.347 57.3317 163.695 57.1857 164.005C57.0398 164.316 56.802 164.574 56.5046 164.745L53.754 166.316C53.4589 166.485 53.1195 166.559 52.781 166.53C52.6511 166.519 52.523 166.492 52.3994 166.451Z" fill="#E4E4E4"/>
<path d="M75.5892 248.163H80.1361L82.2996 230.624H75.5881L75.5892 248.163Z" fill="#FFB6B6"/>
<path d="M74.4292 246.679L83.3842 246.678H83.3846C84.8981 246.678 86.3496 247.28 87.4199 248.35C88.4901 249.42 89.0914 250.872 89.0915 252.385V252.571L74.4295 252.571L74.4292 246.679Z" fill="#2F2E41"/>
<path d="M49.9971 248.163H54.544L56.7074 230.624H49.996L49.9971 248.163Z" fill="#FFB6B6"/>
<path d="M48.837 246.679L57.7921 246.678H57.7925C59.306 246.678 60.7575 247.28 61.8277 248.35C62.8979 249.42 63.4992 250.872 63.4993 252.385V252.571L48.8373 252.571L48.837 246.679Z" fill="#2F2E41"/>
<path d="M78.3272 159.697L51.6606 157.351C51.6606 157.351 49.026 174.162 49.3969 180.838C49.7678 187.515 50.1387 197.9 50.1387 197.9L47.1715 243.15L58.6694 241.666L60.1531 204.205L64.9748 183.806L70.5383 209.769L74.2473 243.15L84.2616 242.037L80.9235 201.609C80.9235 201.609 83.8907 165.261 78.3272 159.697Z" fill="#2F2E41"/>
<path d="M67.5711 110.367C71.668 110.367 74.9891 107.046 74.9891 102.949C74.9891 98.8523 71.668 95.5311 67.5711 95.5311C63.4742 95.5311 60.1531 98.8523 60.1531 102.949C60.1531 107.046 63.4742 110.367 67.5711 110.367Z" fill="#FFB8B8"/>
<path d="M75.6945 119.513L70.3963 115.295C70.3963 115.295 64.6589 110.868 61.2933 114.141L59.7822 116.302C59.7822 116.302 51.215 119.513 51.215 123.593L51.6223 145.974C51.6223 145.974 48.6551 157.472 53.1059 158.213L79.0326 160.312L78.6981 138.927L75.6945 119.513Z" fill="#E4E4E4"/>
<path d="M61.8221 109.44C61.8221 109.44 54.0332 103.876 58.1131 97.2002C60.9435 92.5686 66.8085 92.9352 70.1355 93.5942C71.0318 93.7596 71.8744 94.1406 72.5907 94.7042C73.3071 95.2677 73.8756 95.9971 74.2473 96.8293C74.8036 98.1275 74.8036 99.4256 72.5782 99.4256C68.1274 99.4256 70.3528 102.764 70.3528 102.764C70.3528 102.764 67.3856 103.506 68.1274 106.102C68.8692 108.698 61.8221 109.44 61.8221 109.44Z" fill="#2F2E41"/>
<path d="M102.457 158.601C102.319 158.074 102.067 157.583 101.719 157.163C101.37 156.744 100.934 156.406 100.441 156.173C99.9481 155.94 99.41 155.819 98.8647 155.816C98.3194 155.814 97.7803 155.932 97.2853 156.16L88.0899 146.615L86.5796 153.335L95.5433 161.369C95.9825 162.175 96.7022 162.792 97.566 163.103C98.4297 163.414 99.3775 163.397 100.23 163.056C101.082 162.715 101.78 162.073 102.19 161.252C102.601 160.431 102.696 159.487 102.457 158.601Z" fill="#FFB6B6"/>
<path d="M93.0017 158.746C92.7724 158.795 92.5354 158.796 92.306 158.747C92.0766 158.699 91.86 158.602 91.6702 158.465L77.9555 148.036C74.5817 145.587 72.2126 141.995 71.2889 137.929L68.2433 124.534C67.9401 123.895 67.7658 123.203 67.7305 122.497C67.6951 121.791 67.7993 121.085 68.0372 120.419C68.275 119.754 68.6418 119.141 69.1166 118.617C69.5913 118.094 70.1647 117.669 70.8039 117.367C71.4431 117.065 72.1356 116.892 72.8417 116.858C73.5478 116.824 74.2537 116.929 74.919 117.168C75.5843 117.407 76.1959 117.775 76.7188 118.251C77.2417 118.727 77.6657 119.301 77.9664 119.941L83.8933 140.908L95.4938 153.282C95.7155 153.544 95.8514 153.867 95.8833 154.209C95.9152 154.55 95.8414 154.893 95.6719 155.192L94.1003 157.942C93.9316 158.237 93.677 158.474 93.3705 158.62C93.253 158.677 93.1292 158.719 93.0017 158.746Z" fill="#E4E4E4"/>
<path d="M281.386 11.1927H67.1702C67.0879 11.1924 67.0091 11.1595 66.951 11.1013C66.893 11.043 66.8604 10.9641 66.8604 10.8818C66.8604 10.7995 66.893 10.7206 66.951 10.6623C67.0091 10.6041 67.0879 10.5712 67.1702 10.5709H281.386C281.469 10.5712 281.547 10.6041 281.605 10.6623C281.664 10.7206 281.696 10.7995 281.696 10.8818C281.696 10.9641 281.664 11.043 281.605 11.1013C281.547 11.1595 281.469 11.1924 281.386 11.1927Z" fill="#CACACA"/>
<path d="M74.1682 6.83999C76.057 6.83999 77.5882 5.30881 77.5882 3.41999C77.5882 1.53118 76.057 0 74.1682 0C72.2794 0 70.7482 1.53118 70.7482 3.41999C70.7482 5.30881 72.2794 6.83999 74.1682 6.83999Z" fill="#3F3D56"/>
<path d="M85.9826 6.83999C87.8714 6.83999 89.4026 5.30881 89.4026 3.41999C89.4026 1.53118 87.8714 0 85.9826 0C84.0938 0 82.5626 1.53118 82.5626 3.41999C82.5626 5.30881 84.0938 6.83999 85.9826 6.83999Z" fill="#3F3D56"/>
<path d="M97.7972 6.83999C99.686 6.83999 101.217 5.30881 101.217 3.41999C101.217 1.53118 99.686 0 97.7972 0C95.9084 0 94.3772 1.53118 94.3772 3.41999C94.3772 5.30881 95.9084 6.83999 97.7972 6.83999Z" fill="#3F3D56"/>
<path d="M274.308 2.0919H265.913C265.749 2.09133 265.591 2.02557 265.475 1.90902C265.359 1.79246 265.293 1.63463 265.293 1.47008C265.293 1.30554 265.359 1.1477 265.475 1.03115C265.591 0.914599 265.749 0.848835 265.913 0.848267H274.308C274.472 0.848835 274.63 0.914599 274.746 1.03115C274.862 1.1477 274.927 1.30554 274.927 1.47008C274.927 1.63463 274.862 1.79246 274.746 1.90902C274.63 2.02557 274.472 2.09133 274.308 2.0919Z" fill="#3F3D56"/>
<path d="M274.308 4.42372H265.913C265.749 4.42315 265.591 4.35739 265.475 4.24083C265.359 4.12428 265.293 3.96645 265.293 3.8019C265.293 3.63736 265.359 3.47952 265.475 3.36297C265.591 3.24642 265.749 3.18065 265.913 3.18008H274.308C274.472 3.18065 274.63 3.24642 274.746 3.36297C274.862 3.47952 274.927 3.63736 274.927 3.8019C274.927 3.96645 274.862 4.12428 274.746 4.24083C274.63 4.35739 274.472 4.42315 274.308 4.42372Z" fill="#3F3D56"/>
<path d="M274.308 6.75553H265.913C265.749 6.75496 265.591 6.6892 265.475 6.57265C265.359 6.4561 265.293 6.29826 265.293 6.13372C265.293 5.96917 265.359 5.81133 265.475 5.69478C265.591 5.57823 265.749 5.51247 265.913 5.5119H274.308C274.472 5.51247 274.63 5.57823 274.746 5.69478C274.862 5.81133 274.927 5.96917 274.927 6.13372C274.927 6.29826 274.862 6.4561 274.746 6.57265C274.63 6.6892 274.472 6.75496 274.308 6.75553Z" fill="#3F3D56"/>
<path d="M141.684 252.666H0.370901C0.272532 252.666 0.178192 252.627 0.108634 252.558C0.0390767 252.488 0 252.394 0 252.295C0 252.197 0.0390767 252.103 0.108634 252.033C0.178192 251.964 0.272532 251.924 0.370901 251.924H141.684C141.783 251.924 141.877 251.964 141.947 252.033C142.016 252.103 142.055 252.197 142.055 252.295C142.055 252.394 142.016 252.488 141.947 252.558C141.877 252.627 141.783 252.666 141.684 252.666Z" fill="#CACACA"/>
<path d="M216.82 60.0731H128.814C128.323 60.0837 127.846 59.9137 127.473 59.5955C127.1 59.2772 126.856 58.8329 126.789 58.347C126.761 58.0789 126.79 57.808 126.874 57.5518C126.957 57.2955 127.094 57.0597 127.274 56.8596C127.455 56.6594 127.675 56.4994 127.922 56.3898C128.168 56.2803 128.434 56.2237 128.704 56.2236H216.683C217.181 56.2105 217.667 56.3823 218.046 56.7058C218.425 57.0293 218.672 57.4818 218.737 57.9759C218.761 58.2421 218.729 58.5104 218.644 58.7637C218.558 59.0169 218.421 59.2496 218.241 59.4469C218.06 59.6442 217.841 59.8018 217.596 59.9096C217.352 60.0174 217.087 60.0731 216.82 60.0731Z" fill="#EE0979"/>
</g>
<defs>
<clipPath id="clip0_68_1214">
<rect width="300" height="252.915" fill="white"/>
</clipPath>
</defs>
</svg>
