<svg width="500" height="396" viewBox="0 0 500 396" fill="none" xmlns="http://www.w3.org/2000/svg">
<g clip-path="url(#clip0_68_1058)">
<path d="M314.4 360.205L306.842 360.205L303.246 331.051L314.402 331.051L314.4 360.205Z" fill="#9E616A"/>
<path d="M316.328 367.532L291.956 367.531V367.223C291.957 364.707 292.956 362.294 294.735 360.515C296.514 358.736 298.927 357.737 301.442 357.737H301.443L316.328 357.737L316.328 367.532Z" fill="#2F2E41"/>
<path d="M287.274 360.205L279.715 360.205L276.119 331.051L287.275 331.051L287.274 360.205Z" fill="#9E616A"/>
<path d="M289.201 367.532L264.83 367.531V367.223C264.83 364.707 265.829 362.294 267.608 360.515C269.387 358.736 271.8 357.737 274.316 357.737H274.316L289.202 357.737L289.201 367.532Z" fill="#2F2E41"/>
<path d="M199.243 155.918C199.847 156.748 200.626 157.436 201.525 157.934C202.424 158.431 203.421 158.725 204.446 158.795C205.47 158.865 206.498 158.71 207.456 158.34C208.415 157.97 209.28 157.395 209.992 156.654L224.948 162.494L230.714 154.271L209.477 146.32C208.154 145.207 206.468 144.618 204.739 144.665C203.01 144.711 201.359 145.39 200.097 146.573C198.836 147.756 198.052 149.361 197.895 151.083C197.738 152.805 198.217 154.525 199.243 155.918Z" fill="#9E616A"/>
<path d="M287.178 205.74L267.487 212.163L274.065 351.617L289.262 351.993L297.04 253.648L298.806 351.605L317.597 352.641L324.524 205.74H287.178Z" fill="#2F2E41"/>
<path d="M273.892 123.533L324.431 112.553L330.051 156.07L325.371 176.862L327.245 208.461C327.245 208.461 287.284 228.351 267.487 212.163C267.487 212.163 283.398 170.369 274.175 150.805L273.892 123.533Z" fill="#E4E4E4"/>
<path d="M282.644 129.689L273.892 123.533C273.892 123.533 273.375 122.817 266.081 131.344C258.787 139.871 243.991 153.435 243.991 153.435L219.33 144.187L214.837 160.787L243.498 174.143L284.075 147.044L282.644 129.689Z" fill="#E4E4E4"/>
<path d="M327.255 224.774C328.183 224.335 329.005 223.698 329.661 222.907C330.317 222.117 330.791 221.192 331.051 220.199C331.311 219.205 331.35 218.166 331.165 217.156C330.98 216.145 330.576 215.188 329.981 214.351L338.505 200.745L331.5 193.548L319.732 212.931C318.392 214.024 317.499 215.571 317.223 217.278C316.946 218.985 317.306 220.734 318.233 222.194C319.161 223.654 320.591 224.722 322.254 225.198C323.917 225.673 325.696 225.522 327.255 224.774Z" fill="#9E616A"/>
<path d="M316.548 121.125L324.431 112.552C324.431 112.552 333.214 109.494 340.39 125.299C347.566 141.104 355.581 173.163 355.581 173.163L336.842 209.259L322.289 202.756L336.842 172.908L321.441 150.804L316.548 121.125Z" fill="#E4E4E4"/>
<path d="M303.181 108.983C311.131 104.637 314.053 94.6696 309.707 86.7196C305.362 78.7696 295.394 75.8479 287.444 80.1938C279.494 84.5396 276.572 94.5074 280.918 102.457C285.264 110.407 295.231 113.329 303.181 108.983Z" fill="#9E616A"/>
<path d="M309.146 79.9186C308.37 76.661 305.655 74.0898 302.53 72.8841C299.406 71.6784 295.927 71.6901 292.626 72.251C287.146 73.1821 282.028 75.5454 276.986 77.8848L280.873 79.7442L275.51 80.0518L279.654 82.195C278.547 83.0372 277.705 84.1792 277.228 85.4855C276.751 86.7917 276.658 88.2075 276.962 89.5647C277.175 90.4529 277.745 91.4316 278.658 91.4623C279.761 91.4994 280.338 90.2133 281.11 89.4244C282.138 88.3748 283.761 88.1419 285.217 88.3396C286.672 88.5374 288.053 89.0975 289.489 89.407C291.304 89.7854 293.181 89.7645 294.988 89.3459C296.794 88.9273 298.489 88.1209 299.953 86.9826L305.121 99.4263C305.072 98.9571 305.132 98.4828 305.297 98.0408C305.462 97.5987 305.727 97.2007 306.071 96.8778C306.415 96.555 306.829 96.316 307.281 96.1796C307.732 96.0432 308.209 96.0131 308.675 96.0915C309.14 96.17 309.581 96.3549 309.963 96.6319C310.345 96.9088 310.657 97.2703 310.877 97.6881C311.096 98.106 311.215 98.5688 311.226 99.0405C311.237 99.5122 311.138 99.98 310.939 100.407C313.176 97.0331 314.975 93.1995 315.037 89.1515C315.099 85.1035 313.091 80.839 309.416 79.1404" fill="#2F2E41"/>
<path d="M119.026 331.291L112.038 342.278L116.108 327.975C107.514 319.008 95.6165 312.448 95.6165 312.448C95.6165 312.448 80.9668 336.525 84.9098 351.336C88.8527 366.146 99.0341 368.973 109.895 366.082C120.756 363.19 128.184 355.675 124.241 340.865C123.364 337.568 121.457 334.332 119.026 331.291Z" fill="#F2F2F2"/>
<path d="M109.78 343.373L109.974 344.103C112.19 352.6 112.522 359.602 110.955 365.012C110.933 365.091 110.907 365.168 110.886 365.247L110.52 365.139L110.17 365.031C111.945 359.167 111.153 351.758 109.222 344.346C109.162 344.106 109.102 343.863 109.033 343.622C108.188 340.491 107.153 337.373 106.026 334.375C105.941 334.143 105.851 333.907 105.761 333.672C104.253 329.723 102.606 326.005 101.079 322.801C100.972 322.574 100.862 322.348 100.752 322.125C98.1462 316.712 95.937 312.877 95.4406 312.03C95.3819 311.925 95.3474 311.869 95.34 311.855L95.6573 311.666L95.66 311.662L95.9809 311.472C95.9884 311.485 96.1047 311.675 96.3079 312.031C97.0756 313.359 99.1146 316.977 101.466 321.839C101.57 322.058 101.681 322.284 101.788 322.511C103.029 325.111 104.346 328.034 105.598 331.138C105.913 331.917 106.215 332.688 106.504 333.451C106.597 333.685 106.687 333.921 106.772 334.154C107.991 337.394 108.993 340.467 109.78 343.373Z" fill="white"/>
<path d="M101.465 321.839C101.232 321.936 100.995 322.034 100.752 322.125C100.094 322.375 99.4226 322.592 98.7418 322.773C95.8416 323.549 92.8041 323.665 89.8531 323.111C89.7523 323.343 89.6515 323.575 89.5481 323.812C92.66 324.423 95.8705 324.315 98.9343 323.496C99.661 323.302 100.377 323.07 101.079 322.801C101.318 322.71 101.555 322.612 101.788 322.512C103.71 321.693 105.497 320.587 107.087 319.231C106.879 319.074 106.675 318.919 106.476 318.767C104.966 320.032 103.278 321.067 101.465 321.839Z" fill="white"/>
<path d="M106.504 333.451C106.258 333.532 106.011 333.605 105.761 333.672C105.686 333.696 105.607 333.717 105.531 333.737C102.387 334.574 99.0878 334.638 95.9138 333.925C92.7398 333.211 89.7854 331.74 87.3026 329.638C87.2148 329.89 87.127 330.142 87.0438 330.396C89.6107 332.508 92.644 333.979 95.8925 334.686C99.1409 335.392 102.511 335.315 105.723 334.46C105.825 334.433 105.926 334.406 106.026 334.375C106.278 334.304 106.526 334.231 106.772 334.154C110.578 332.929 113.951 330.633 116.487 327.542C116.315 327.36 116.142 327.177 115.966 326.996C113.507 330.022 110.219 332.266 106.504 333.451Z" fill="white"/>
<path d="M109.78 343.373C109.533 343.462 109.283 343.544 109.033 343.622C108.765 343.705 108.496 343.784 108.225 343.856C103.999 344.976 99.5247 344.697 95.4709 343.061C91.4172 341.425 88.0024 338.52 85.7379 334.78C85.6532 335.116 85.5676 335.449 85.4901 335.783C87.9023 339.473 91.4158 342.309 95.5316 343.888C99.6475 345.467 104.156 345.709 108.417 344.579C108.688 344.507 108.959 344.431 109.222 344.346C109.477 344.27 109.726 344.188 109.974 344.103C114.978 342.343 119.125 338.747 121.577 334.044C121.43 333.796 121.273 333.556 121.115 333.311C118.789 338.012 114.723 341.621 109.78 343.373Z" fill="white"/>
<path d="M391.603 332.437L384.717 343.264L388.728 329.169C380.259 320.332 368.534 313.867 368.534 313.867C368.534 313.867 354.097 337.595 357.983 352.19C361.869 366.785 371.902 369.572 382.605 366.722C393.309 363.873 400.629 356.466 396.743 341.871C395.878 338.622 393.999 335.433 391.603 332.437Z" fill="#F2F2F2"/>
<path d="M382.492 344.343L382.683 345.062C384.867 353.436 385.193 360.336 383.649 365.667C383.628 365.745 383.602 365.821 383.581 365.899L383.221 365.793L382.876 365.686C384.625 359.908 383.845 352.606 381.942 345.301C381.883 345.065 381.823 344.826 381.756 344.588C380.923 341.503 379.903 338.43 378.792 335.476C378.708 335.247 378.62 335.015 378.532 334.783C377.046 330.892 375.422 327.228 373.917 324.07C373.812 323.846 373.703 323.623 373.595 323.404C371.027 318.069 368.85 314.29 368.361 313.455C368.303 313.352 368.269 313.296 368.261 313.283L368.574 313.097L368.577 313.092L368.893 312.905C368.901 312.918 369.015 313.105 369.215 313.456C369.972 314.765 371.981 318.33 374.298 323.122C374.401 323.338 374.51 323.561 374.616 323.785C375.839 326.346 377.136 329.227 378.37 332.286C378.681 333.053 378.979 333.813 379.263 334.565C379.355 334.796 379.444 335.028 379.527 335.258C380.728 338.451 381.716 341.479 382.492 344.343Z" fill="white"/>
<path d="M374.298 323.122C374.068 323.217 373.834 323.314 373.595 323.404C372.946 323.651 372.285 323.864 371.614 324.042C368.756 324.807 365.762 324.921 362.854 324.376C362.755 324.604 362.656 324.833 362.554 325.066C365.621 325.668 368.784 325.562 371.804 324.755C372.52 324.564 373.225 324.335 373.917 324.07C374.153 323.98 374.387 323.884 374.616 323.785C376.51 322.978 378.271 321.888 379.838 320.552C379.633 320.397 379.432 320.245 379.236 320.095C377.748 321.341 376.084 322.361 374.298 323.122Z" fill="white"/>
<path d="M379.263 334.565C379.021 334.645 378.777 334.717 378.532 334.783C378.458 334.806 378.379 334.827 378.305 334.847C375.206 335.672 371.955 335.735 368.827 335.032C365.699 334.329 362.788 332.879 360.341 330.808C360.254 331.056 360.168 331.304 360.086 331.555C362.616 333.636 365.605 335.085 368.806 335.782C372.007 336.478 375.328 336.402 378.494 335.559C378.594 335.533 378.694 335.506 378.792 335.476C379.041 335.406 379.285 335.334 379.528 335.258C383.278 334.05 386.602 331.789 389.101 328.742C388.931 328.562 388.762 328.383 388.588 328.204C386.165 331.186 382.924 333.397 379.263 334.565Z" fill="white"/>
<path d="M382.492 344.343C382.248 344.431 382.002 344.511 381.756 344.588C381.492 344.67 381.227 344.748 380.959 344.819C376.795 345.923 372.385 345.648 368.391 344.035C364.396 342.423 361.031 339.56 358.799 335.875C358.716 336.206 358.631 336.534 358.555 336.863C360.932 340.499 364.394 343.294 368.45 344.85C372.506 346.406 376.95 346.645 381.149 345.532C381.416 345.461 381.682 345.386 381.942 345.301C382.193 345.227 382.439 345.146 382.683 345.062C387.614 343.328 391.701 339.784 394.118 335.149C393.973 334.906 393.818 334.668 393.662 334.427C391.37 339.059 387.363 342.616 382.492 344.343Z" fill="white"/>
<path d="M249.078 63.4577C249.078 37.5602 231.023 16.5662 208.751 16.5662C186.479 16.5662 168.425 37.5602 168.425 63.4577C168.425 86.9456 183.276 106.399 202.655 109.816V114.235C202.655 115.07 202.987 115.871 203.577 116.461C204.168 117.051 204.968 117.383 205.803 117.383H211.7C212.534 117.383 213.335 117.051 213.925 116.461C214.516 115.871 214.847 115.07 214.847 114.235V109.816C234.226 106.399 249.078 86.9456 249.078 63.4577Z" fill="#EE0979"/>
<path d="M201.686 113.597C202.948 112.412 204.451 111.514 206.093 110.965C207.734 110.416 209.475 110.228 211.196 110.416C212.93 110.617 214.594 111.218 216.056 112.171C217.519 113.125 218.74 114.405 219.623 115.911C220.506 117.372 221.061 119.008 221.249 120.705C221.437 122.402 221.254 124.12 220.712 125.739C219.652 128.968 217.398 131.656 215.089 134.078C212.665 136.619 210.03 138.962 207.751 141.64C203.995 146.082 201.371 151.369 200.106 157.048C198.842 162.726 198.973 168.627 200.49 174.243C202.488 181.362 206.616 187.7 212.318 192.407C213.042 192.999 213.788 193.562 214.555 194.098C215.443 194.719 216.284 193.263 215.403 192.647C209.212 188.267 204.637 181.969 202.385 174.727C200.677 169.084 200.459 163.095 201.75 157.343C203.042 151.59 205.801 146.27 209.757 141.898C212.161 139.245 214.851 136.87 217.254 134.216C219.555 131.673 221.654 128.804 222.553 125.445C223.008 123.737 223.12 121.956 222.884 120.205C222.648 118.453 222.068 116.765 221.178 115.239C220.291 113.678 219.091 112.318 217.654 111.242C216.217 110.167 214.573 109.4 212.826 108.989C209.31 108.225 205.636 108.862 202.582 110.763C201.834 111.24 201.136 111.792 200.498 112.409C199.717 113.16 200.906 114.347 201.686 113.597Z" fill="#3F3D56"/>
<path d="M93.6796 43.8216C81.3405 15.4561 51.5622 1.06357 27.1678 11.6752C2.77333 22.2867 -6.99942 53.884 5.33961 82.2495C16.5306 107.976 42.0666 122.208 64.9206 116.717L67.0261 121.557C67.4238 122.471 68.1685 123.19 69.0963 123.555C70.024 123.921 71.0589 123.903 71.9733 123.505L78.432 120.695C79.3463 120.298 80.0652 119.553 80.4305 118.625C80.7958 117.697 80.7775 116.662 80.3798 115.748L78.2743 110.908C97.8724 97.9321 104.871 69.548 93.6796 43.8216Z" fill="#EE0979"/>
<path d="M65.5363 121.175C66.338 119.328 67.5188 117.67 69.0022 116.309C70.4855 114.947 72.2384 113.912 74.1471 113.272C76.0214 112.64 78.011 112.426 79.9767 112.645C81.9423 112.863 83.8364 113.509 85.5265 114.536C87.2676 115.567 88.7688 116.958 89.9301 118.615C91.0913 120.273 91.8859 122.159 92.2608 124.147C93.122 128.756 91.7247 133.451 90.1368 137.742C88.4723 142.24 86.3981 146.608 85.2407 151.279C83.63 157.844 83.5974 164.697 85.1457 171.277C86.6939 177.857 89.7789 183.977 94.1479 189.135C99.6506 195.511 106.898 200.14 114.997 202.45C115.991 202.73 116.995 202.969 118.007 203.174C119.062 203.388 119.514 201.768 118.453 201.554C110.026 199.819 102.346 195.508 96.4754 189.218C90.2523 182.49 86.493 173.851 85.8107 164.712C85.4453 160.082 85.8697 155.423 87.0658 150.934C88.3425 146.198 90.5037 141.764 92.1329 137.149C93.6877 132.746 94.7895 128.017 93.8127 123.358C92.9146 119.255 90.4249 115.676 86.8903 113.407C85.1963 112.29 83.2972 111.521 81.3034 111.144C79.3095 110.768 77.2607 110.791 75.276 111.213C71.2228 112.131 67.6716 114.559 65.3451 118.003C64.7791 118.861 64.3004 119.774 63.916 120.728C63.5029 121.726 65.1279 122.162 65.5363 121.175Z" fill="#3F3D56"/>
<path d="M438.358 386.438L447.416 386.437L451.724 351.502L438.357 351.503L438.358 386.438Z" fill="#FFB6B6"/>
<path d="M436.048 383.481L453.885 383.48H453.885C456.9 383.48 459.791 384.678 461.923 386.809C464.055 388.941 465.252 391.832 465.252 394.847V395.216L436.049 395.217L436.048 383.481Z" fill="#2F2E41"/>
<path d="M384.751 378.736L393.386 381.467L408.031 349.459L395.286 345.428L384.751 378.736Z" fill="#FFB6B6"/>
<path d="M383.44 375.22L400.446 380.599L400.447 380.599C403.321 381.508 405.716 383.522 407.106 386.198C408.495 388.873 408.765 391.991 407.856 394.865L407.745 395.217L379.901 386.41L383.44 375.22Z" fill="#2F2E41"/>
<path d="M405.144 226.888L400.118 241.063L399.975 317.589L385.722 369.984L403.219 374.867L422.545 325.463L428.744 282.07L436.913 325.716L435.789 377.592H454.146L455.532 297.65C455.921 275.199 451.993 252.882 443.96 231.914L405.144 226.888Z" fill="#2F2E41"/>
<path d="M399.158 169.468H428.83L441.228 181.866L444.932 233.114L400.118 240.326L385.722 191.428L393.562 170.646L399.158 169.468Z" fill="#E4E4E4"/>
<path d="M388.487 191.917L342.803 174.728L341.614 167.623L370.425 143.243L380.014 150.436L362.633 169.468L393.562 170.646L388.487 191.917Z" fill="#E4E4E4"/>
<path d="M375.966 153.215C380.046 153.215 383.353 149.907 383.353 145.827C383.353 141.747 380.046 138.44 375.966 138.44C371.886 138.44 368.578 141.747 368.578 145.827C368.578 149.907 371.886 153.215 375.966 153.215Z" fill="#FFB6B6"/>
<path d="M393.099 155.134L396.437 140.081C397.022 137.43 398.124 134.92 399.68 132.695C401.236 130.47 403.215 128.574 405.504 127.114C407.793 125.654 410.348 124.66 413.021 124.188C415.695 123.716 418.435 123.776 421.086 124.364C423.736 124.952 426.245 126.056 428.469 127.614C430.692 129.172 432.587 131.153 434.044 133.443C435.502 135.734 436.493 138.289 436.963 140.963C437.432 143.637 437.37 146.378 436.779 149.028L433.441 164.081C433.281 164.799 432.842 165.424 432.222 165.82C431.601 166.215 430.849 166.348 430.131 166.189L395.208 158.445C394.489 158.285 393.864 157.846 393.469 157.225C393.073 156.605 392.94 155.853 393.099 155.134Z" fill="#2F2E41"/>
<path d="M416.097 160.808C424.133 158.48 428.759 150.078 426.431 142.043C424.103 134.007 415.701 129.381 407.666 131.709C399.63 134.037 395.003 142.439 397.332 150.474C399.66 158.51 408.062 163.137 416.097 160.808Z" fill="#FFB6B6"/>
<path d="M391.398 140.227C392.341 135.998 394.923 132.315 398.578 129.987C402.232 127.659 406.661 126.876 410.893 127.809L413.904 128.477C418.133 129.42 421.815 132.002 424.143 135.657C426.471 139.312 427.255 143.74 426.321 147.972L426.254 148.273L419.892 146.862L419.069 140.304L417.288 146.284L414 145.555L413.585 142.247L412.686 145.264L391.331 140.528L391.398 140.227Z" fill="#2F2E41"/>
<path d="M406.693 162.768C406.484 162.297 406.412 161.777 406.486 161.267C406.56 160.757 406.776 160.279 407.11 159.886C411.646 154.526 418.599 144.304 414.204 136.074L413.888 135.482L431.101 139.3L425.37 165.143L409.121 164.434C408.957 164.427 408.793 164.405 408.632 164.37C408.205 164.275 407.807 164.081 407.47 163.802C407.133 163.524 406.867 163.169 406.693 162.768Z" fill="#2F2E41"/>
<path d="M427.65 169.778L475.975 176.649L478.677 183.328L455.839 213.375L444.918 208.434L457.757 186.086L427.31 191.643L427.65 169.778Z" fill="#E4E4E4"/>
<path d="M500 72.3623C500 41.4292 478.434 16.3529 451.832 16.3529C425.229 16.3529 403.664 41.4292 403.664 72.3623C403.664 100.417 421.403 123.654 444.551 127.735V133.013C444.551 134.01 444.947 134.967 445.652 135.672C446.357 136.377 447.313 136.773 448.31 136.773H455.354C456.351 136.773 457.307 136.377 458.012 135.672C458.717 134.967 459.113 134.01 459.113 133.013V127.735C482.26 123.654 500 100.417 500 72.3623Z" fill="#EE0979"/>
<path d="M443.277 132.135C444.806 130.697 446.63 129.61 448.621 128.946C450.612 128.283 452.724 128.06 454.81 128.294C456.859 128.535 458.826 129.24 460.562 130.354C462.299 131.468 463.759 132.963 464.832 134.725C465.924 136.464 466.627 138.42 466.891 140.456C467.156 142.493 466.976 144.562 466.364 146.523C465.175 150.371 462.567 153.593 459.848 156.481C456.947 159.561 453.77 162.378 450.996 165.579C446.476 170.833 443.299 177.106 441.738 183.86C440.178 190.613 440.281 197.644 442.039 204.348C444.391 212.965 449.36 220.64 456.26 226.312C457.098 226.994 457.96 227.644 458.847 228.263C459.735 228.884 460.576 227.428 459.695 226.812C452.306 221.589 446.833 214.087 444.115 205.456C442.051 198.719 441.759 191.564 443.266 184.681C444.773 177.798 448.029 171.419 452.719 166.161C455.57 162.979 458.781 160.144 461.664 156.992C464.425 153.975 466.96 150.586 468.094 146.598C468.665 144.584 468.831 142.477 468.582 140.398C468.333 138.319 467.675 136.311 466.645 134.488C465.619 132.624 464.219 130.992 462.533 129.695C460.847 128.398 458.911 127.463 456.846 126.949C452.651 125.984 448.245 126.715 444.585 128.982C443.688 129.55 442.852 130.208 442.089 130.947C441.31 131.699 442.499 132.887 443.277 132.135Z" fill="#3F3D56"/>
<path d="M449.103 221.92C453.183 221.92 456.491 218.612 456.491 214.532C456.491 210.452 453.183 207.144 449.103 207.144C445.023 207.144 441.715 210.452 441.715 214.532C441.715 218.612 445.023 221.92 449.103 221.92Z" fill="#FFB6B6"/>
<path d="M372.119 147.901C371.732 148.514 370.793 148.425 370.265 148.042C369.533 147.51 369.77 146.486 370.275 145.881C371.877 143.957 374.527 145.988 374.884 147.898C375.017 148.83 374.874 149.779 374.472 150.63C374.07 151.481 373.427 152.195 372.623 152.683C370.795 153.767 368.42 153.223 366.849 151.927C363.57 149.222 364.463 143.807 368.105 141.851C370.429 140.602 373.367 141.15 375.656 142.196C378.234 143.373 380.45 145.178 382.833 146.682C388.062 149.956 393.978 151.976 400.117 152.584C401.192 152.694 401.184 151.013 400.117 150.904C396.715 150.552 393.375 149.748 390.186 148.513C387.03 147.234 384.035 145.59 381.262 143.615C378.455 141.691 375.524 139.823 372.051 139.505C370.649 139.341 369.23 139.551 367.936 140.114C366.642 140.677 365.52 141.573 364.685 142.71C363.942 143.727 363.444 144.903 363.232 146.145C363.019 147.387 363.096 148.661 363.459 149.868C363.895 151.13 364.658 152.253 365.67 153.125C366.682 153.996 367.906 154.583 369.219 154.827C370.483 155.066 371.79 154.905 372.957 154.365C374.125 153.826 375.095 152.935 375.732 151.818C377.01 149.608 376.969 146.638 375.038 144.805C374.485 144.243 373.792 143.837 373.03 143.63C372.269 143.423 371.466 143.422 370.704 143.626C370.002 143.864 369.384 144.3 368.926 144.883C368.468 145.466 368.19 146.169 368.126 146.908C367.94 149.777 372.013 151.212 373.57 148.749C374.15 147.833 372.696 146.989 372.119 147.901Z" fill="#3F3D56"/>
<path d="M35.9558 238.203L33.7367 240.987L25.8876 236.344L28.1067 233.559L35.9558 238.203Z" fill="#E4E4E4"/>
<path d="M44.146 250.166L46.1063 253.092L37.8606 257.193L35.9003 254.268L44.146 250.166Z" fill="#E4E4E4"/>
<path d="M52.6818 237.449L56.5991 237.587L56.2093 245.784L52.292 245.645L52.6818 237.449Z" fill="#E4E4E4"/>
<path d="M128.371 16.4057L126.152 19.1899L118.303 14.5467L120.522 11.762L128.371 16.4057Z" fill="#E4E4E4"/>
<path d="M136.561 28.3693L138.522 31.2947L130.276 35.3963L128.316 32.4709L136.561 28.3693Z" fill="#E4E4E4"/>
<path d="M145.097 15.6518L149.015 15.7901L148.625 23.9865L144.708 23.8482L145.097 15.6518Z" fill="#E4E4E4"/>
<path d="M346.248 45.5306L344.029 48.3148L336.179 43.6716L338.399 40.8868L346.248 45.5306Z" fill="#E4E4E4"/>
<path d="M354.438 57.4942L356.398 60.4196L348.152 64.5211L346.192 61.5958L354.438 57.4942Z" fill="#E4E4E4"/>
<path d="M362.974 44.7767L366.891 44.915L366.501 53.1114L362.584 52.9731L362.974 44.7767Z" fill="#E4E4E4"/>
<path d="M279.597 4.64374L277.377 7.42796L269.528 2.78479L271.747 0L279.597 4.64374Z" fill="#E4E4E4"/>
<path d="M287.787 16.6074L289.747 19.5327L281.501 23.6343L279.541 20.7089L287.787 16.6074Z" fill="#E4E4E4"/>
<path d="M296.323 3.88983L300.24 4.02817L299.85 12.2246L295.933 12.0862L296.323 3.88983Z" fill="#E4E4E4"/>
<path d="M347.36 213.956L345.141 217.188L352.99 222.578L355.209 219.346L347.36 213.956Z" fill="#E4E4E4"/>
<path d="M355.153 237.993L357.114 241.388L365.36 236.627L363.399 233.232L355.153 237.993Z" fill="#E4E4E4"/>
<path d="M371.545 227.984L375.463 228.145L375.853 218.631L371.935 218.47L371.545 227.984Z" fill="#E4E4E4"/>
<path d="M180.854 360.628L187.639 359.578L182.987 305.361L167.865 308.162L180.854 360.628Z" fill="#FFB6B6"/>
<path d="M178.78 358.68L192.144 356.613C194.403 356.264 196.708 356.827 198.552 358.177C200.396 359.527 201.629 361.555 201.978 363.813L202.021 364.09L180.14 367.474L178.78 358.68Z" fill="#2F2E41"/>
<path d="M109.533 359.956L116.393 360.248L124.737 312.082L109.615 312.082L109.533 359.956Z" fill="#FFB6B6"/>
<path d="M107.878 357.641L121.389 358.217H121.389C123.673 358.314 125.824 359.315 127.37 360.998C128.916 362.682 129.73 364.91 129.632 367.194L129.621 367.474L107.5 366.531L107.878 357.641Z" fill="#2F2E41"/>
<path d="M123.04 203.029C122.716 202.938 122.385 202.876 122.05 202.844L126.327 167.838L140.838 137.107C141.751 135.174 141.897 132.966 141.246 130.93C140.596 128.893 139.197 127.179 137.333 126.133C135.468 125.088 133.276 124.788 131.199 125.295C129.122 125.801 127.314 127.077 126.141 128.864C122.338 134.655 119.461 141.003 117.614 147.681L111.517 169.724L115.975 207.526C115.804 208.592 115.945 209.684 116.38 210.671C116.815 211.659 117.526 212.499 118.428 213.092C119.33 213.685 120.384 214.005 121.463 214.012C122.542 214.02 123.6 213.716 124.51 213.137C125.421 212.557 126.144 211.727 126.594 210.746C127.043 209.765 127.2 208.675 127.045 207.607C126.889 206.539 126.429 205.539 125.718 204.727C125.008 203.915 124.078 203.325 123.04 203.029Z" fill="#FFB6B6"/>
<path d="M131.851 170.801L113.517 149.828L122.599 128.465C123.789 125.667 126.024 123.445 128.829 122.273C131.634 121.101 134.785 121.071 137.611 122.191C140.438 123.31 142.715 125.489 143.956 128.264C145.198 131.039 145.306 134.189 144.257 137.042L131.851 170.801Z" fill="#2F2E41"/>
<path d="M162.328 103.939C166.739 95.8697 163.773 85.7526 155.704 81.3417C147.635 76.9307 137.518 79.8962 133.107 87.9653C128.696 96.0344 131.661 106.151 139.73 110.562C147.8 114.973 157.917 112.008 162.328 103.939Z" fill="#FFB6B6"/>
<path d="M150.502 75.7228H139.745C132.694 75.7228 126.978 82.1538 126.978 90.0868L127.475 109.328C135.095 110.276 142.547 112.27 149.622 115.252L150.626 110.965L152.606 116.611C154.368 117.464 156.114 118.397 157.845 119.41C155.824 109.916 154.993 100.444 156.38 93.0858H160.023V89.0989L161.26 93.0858H167.864C167.865 90.8056 167.415 88.5478 166.543 86.4412C165.67 84.3346 164.391 82.4206 162.779 80.8083C161.167 79.196 159.253 77.917 157.146 77.0445C155.04 76.1719 152.782 75.7228 150.502 75.7228Z" fill="#2F2E41"/>
<path d="M185.573 308.307L184.015 308.682L182.707 284.358L173.185 211.546L162.264 183.821L167.584 164.498C167.584 164.498 173.745 151.055 158.343 140.694L146.021 119.97C137.509 114.405 130.506 118.044 126.773 127.504C123.52 135.746 120.995 146.173 122.497 156.936C125.861 181.046 128.658 183.821 128.658 183.821C128.658 183.821 107.654 207.065 112.135 236.75L109.638 313.608L107.353 313.515L107.103 319.619L127.063 320.438L127.313 314.333L125.657 314.265L132.859 283.798L143.5 243.471L161.983 292.759L168.2 312.491L166.152 312.984L167.583 318.924L187.004 314.247L185.573 308.307Z" fill="#2F2E41"/>
<path d="M199.289 170.291C199.063 170.54 198.86 170.809 198.682 171.094L169.275 151.627L148.266 124.914C146.944 123.233 145.035 122.117 142.922 121.789C140.81 121.461 138.651 121.946 136.882 123.147C135.114 124.348 133.866 126.175 133.391 128.26C132.917 130.344 133.25 132.531 134.325 134.379C137.806 140.369 142.2 145.78 147.349 150.416L164.345 165.719L200.156 178.621C201.033 179.25 202.073 179.612 203.151 179.664C204.229 179.716 205.299 179.456 206.232 178.914C207.165 178.372 207.922 177.572 208.411 176.61C208.9 175.648 209.101 174.565 208.989 173.492C208.878 172.419 208.458 171.4 207.781 170.56C207.105 169.719 206.199 169.092 205.175 168.754C204.15 168.416 203.049 168.381 202.005 168.654C200.961 168.927 200.018 169.495 199.289 170.291Z" fill="#FFB6B6"/>
<path d="M174.394 148.009L147.439 155.04L132.385 137.37C130.414 135.056 129.425 132.063 129.629 129.03C129.834 125.997 131.216 123.164 133.48 121.136C135.744 119.108 138.711 118.045 141.748 118.174C144.785 118.303 147.651 119.613 149.735 121.826L174.394 148.009Z" fill="#2F2E41"/>
<path d="M383.325 368.044H20.7796C20.6027 368.044 20.4331 367.974 20.308 367.849C20.1829 367.724 20.1127 367.554 20.1127 367.377C20.1127 367.2 20.1829 367.031 20.308 366.906C20.4331 366.781 20.6027 366.71 20.7796 366.71H383.325C383.502 366.71 383.671 366.781 383.796 366.906C383.922 367.031 383.992 367.2 383.992 367.377C383.992 367.554 383.922 367.724 383.796 367.849C383.671 367.974 383.502 368.044 383.325 368.044Z" fill="#CACACA"/>
</g>
<defs>
<clipPath id="clip0_68_1058">
<rect width="500" height="395.217" fill="white"/>
</clipPath>
</defs>
</svg>
