<svg width="520" height="355" viewBox="0 0 520 355" fill="none" xmlns="http://www.w3.org/2000/svg">
<g clip-path="url(#clip0_68_697)">
<path d="M305.867 315.098C310.873 323.937 306.628 353.789 306.628 353.789C306.628 353.789 278.83 342.036 273.825 333.201C272.633 331.099 271.866 328.783 271.57 326.385C271.274 323.988 271.454 321.555 272.1 319.227C272.745 316.899 273.844 314.72 275.332 312.816C276.821 310.913 278.671 309.32 280.776 308.131C282.881 306.942 285.201 306.178 287.601 305.885C290.002 305.591 292.437 305.773 294.767 306.42C297.097 307.067 299.277 308.167 301.182 309.656C303.086 311.144 304.679 312.994 305.867 315.098Z" fill="#F1F1F1"/>
<path d="M307.031 353.751L306.441 353.875C300.753 326.882 280.89 308.578 280.69 308.396L281.096 307.95C281.298 308.133 301.302 326.562 307.031 353.751Z" fill="white"/>
<path d="M351.352 325.162C344.559 337.471 306.261 354.146 306.261 354.146C306.261 354.146 299.947 312.894 306.736 300.589C308.351 297.663 310.528 295.083 313.141 292.997C315.755 290.911 318.754 289.359 321.968 288.431C325.181 287.503 328.547 287.216 331.871 287.587C335.196 287.957 338.415 288.979 341.344 290.592C344.274 292.206 346.857 294.38 348.945 296.99C351.033 299.601 352.587 302.597 353.516 305.807C354.445 309.017 354.732 312.378 354.361 315.699C353.99 319.02 352.967 322.236 351.352 325.162Z" fill="#F1F1F1"/>
<path d="M306.599 354.592L306.024 353.987C333.737 327.697 340.911 291.03 340.981 290.663L341.802 290.817C341.732 291.187 334.514 328.111 306.599 354.592Z" fill="white"/>
<path d="M491.676 13.4589H0.209595V246.409H491.676V13.4589Z" fill="#E6E6E6"/>
<path d="M477.623 33.4347H14.2632V227.792H477.623V33.4347Z" fill="white"/>
<path d="M491.467 0H0V20.8557H491.467V0Z" fill="#EE0979"/>
<path d="M15.5157 14.7436C17.653 14.7436 19.3856 13.013 19.3856 10.8781C19.3856 8.74323 17.653 7.01257 15.5157 7.01257C13.3785 7.01257 11.6459 8.74323 11.6459 10.8781C11.6459 13.013 13.3785 14.7436 15.5157 14.7436Z" fill="white"/>
<path d="M30.2043 14.7436C32.3416 14.7436 34.0742 13.013 34.0742 10.8781C34.0742 8.74323 32.3416 7.01257 30.2043 7.01257C28.0671 7.01257 26.3345 8.74323 26.3345 10.8781C26.3345 13.013 28.0671 14.7436 30.2043 14.7436Z" fill="white"/>
<path d="M44.8936 14.7436C47.0309 14.7436 48.7635 13.013 48.7635 10.8781C48.7635 8.74323 47.0309 7.01257 44.8936 7.01257C42.7564 7.01257 41.0238 8.74323 41.0238 10.8781C41.0238 13.013 42.7564 14.7436 44.8936 14.7436Z" fill="white"/>
<path d="M195.998 92.1071C194.956 92.1105 194.114 93.5358 194.116 95.2906C194.118 97.0404 194.959 98.458 195.998 98.4615H390.032C391.073 98.458 391.916 97.0327 391.914 95.278C391.912 93.5282 391.07 92.1105 390.032 92.1071H195.998Z" fill="#E6E6E6"/>
<path d="M195.998 111.172C194.956 111.176 194.114 112.601 194.116 114.356C194.118 116.105 194.959 117.523 195.998 117.527H339.378C340.42 117.523 341.262 116.098 341.26 114.343C341.258 112.593 340.417 111.176 339.378 111.172H195.998Z" fill="#E6E6E6"/>
<path d="M195.998 129.806C194.956 129.809 194.114 131.235 194.116 132.989C194.118 134.739 194.959 136.157 195.998 136.16H390.032C391.073 136.157 391.916 134.732 391.914 132.977C391.912 131.227 391.07 129.809 390.032 129.806H195.998Z" fill="#E6E6E6"/>
<path d="M195.998 148.871C194.956 148.875 194.114 150.3 194.116 152.055C194.118 153.804 194.959 155.222 195.998 155.226H339.378C340.42 155.222 341.262 153.797 341.26 152.042C341.258 150.292 340.417 148.875 339.378 148.871H195.998Z" fill="#E6E6E6"/>
<path d="M45.4262 162.411C44.3846 162.414 43.5419 163.84 43.5439 165.595C43.546 167.344 44.3875 168.762 45.4262 168.765H141.203C142.245 168.762 143.088 167.337 143.086 165.582C143.084 163.832 142.242 162.414 141.203 162.411H45.4262Z" fill="#E6E6E6"/>
<path d="M45.4262 181.476C44.3846 181.48 43.5419 182.905 43.5439 184.66C43.546 186.409 44.3875 187.827 45.4262 187.831H90.5499C91.5915 187.827 92.4342 186.402 92.4321 184.647C92.43 182.897 91.5886 181.48 90.5499 181.476H45.4262Z" fill="#E6E6E6"/>
<path d="M129.977 81.8629C128.121 76.5364 125.124 71.6784 121.195 67.6278C117.266 63.5771 112.5 60.4313 107.229 58.4097C101.958 56.388 96.3091 55.5393 90.6759 55.9225C85.0426 56.3058 79.5609 57.9119 74.613 60.6287C69.665 63.3456 65.3699 67.1079 62.0272 71.6533C58.6844 76.1987 56.3745 81.4177 55.2585 86.9464C54.1425 92.4751 54.2473 98.1804 55.5656 103.665C56.8838 109.149 59.3838 114.279 62.8912 118.699C63.2397 119.138 63.602 119.576 63.9712 120.001C63.9991 120.029 64.0199 120.057 64.0478 120.085C64.9563 121.13 65.9219 122.124 66.94 123.064C67.2047 123.307 67.4834 123.558 67.7621 123.795C68.2919 124.268 68.8352 124.72 69.3997 125.152C70.5019 126.02 71.6511 126.826 72.8422 127.567L72.884 127.588C73.6574 128.069 74.4448 128.514 75.2464 128.939L75.5738 129.106C76.3264 129.495 77.093 129.864 77.8804 130.205C78.0407 130.275 78.2149 130.345 78.3752 130.414C78.3891 130.421 78.3963 130.421 78.4102 130.428C80.0012 131.089 81.6357 131.64 83.3021 132.078C86.5687 132.948 89.935 133.388 93.3157 133.387C94.5491 133.387 95.7686 133.331 96.9742 133.213C99.7288 132.959 102.448 132.41 105.086 131.577C105.093 131.577 105.1 131.57 105.106 131.57C106.773 131.04 108.4 130.395 109.978 129.642C109.984 129.635 109.999 129.635 110.005 129.628C110.361 129.461 110.702 129.28 111.051 129.106L111.218 129.022C111.497 128.876 111.775 128.73 112.054 128.577C112.751 128.194 113.434 127.79 114.11 127.359C114.298 127.247 114.479 127.129 114.667 127.004C115.281 126.6 115.887 126.168 116.472 125.73C116.577 125.653 116.688 125.577 116.793 125.493C123.321 120.543 128.113 113.655 130.482 105.818C132.85 97.9798 132.674 89.5943 129.977 81.8629Z" fill="white"/>
<path d="M106.127 110.593C109.34 110.593 111.945 107.991 111.945 104.782C111.945 101.572 109.34 98.97 106.127 98.97C102.913 98.97 100.308 101.572 100.308 104.782C100.308 107.991 102.913 110.593 106.127 110.593Z" fill="#2F2E41"/>
<path d="M107.747 99.13C108.754 99.1301 109.744 99.3911 110.62 99.8877C111.496 100.384 112.227 101.099 112.743 101.963C113.26 102.827 113.543 103.809 113.565 104.815C113.587 105.821 113.347 106.815 112.869 107.7C113.374 107.07 113.741 106.341 113.948 105.561C114.155 104.781 114.197 103.967 114.071 103.17C113.945 102.373 113.655 101.61 113.218 100.931C112.781 100.253 112.208 99.6722 111.534 99.2271C110.86 98.7819 110.101 98.4819 109.305 98.346C108.508 98.2101 107.692 98.2415 106.909 98.438C106.125 98.6345 105.391 98.9918 104.754 99.4873C104.116 99.9828 103.589 100.605 103.205 101.316C103.749 100.634 104.44 100.083 105.227 99.7044C106.013 99.326 106.874 99.1296 107.747 99.13Z" fill="#2F2E41"/>
<path d="M95.2543 104.769C104.693 104.769 112.345 97.1256 112.345 87.697C112.345 78.2684 104.693 70.625 95.2543 70.625C85.8151 70.625 78.1632 78.2684 78.1632 87.697C78.1632 97.1256 85.8151 104.769 95.2543 104.769Z" fill="#2F2E41"/>
<path d="M81.8405 77.1048C84.7854 73.7966 88.9019 71.7606 93.3212 71.4265C97.7404 71.0925 102.117 72.4866 105.527 75.3145C105.387 75.1816 105.248 75.0479 105.104 74.9192C101.727 71.898 97.288 70.3402 92.762 70.5886C88.2359 70.837 83.9941 72.8711 80.9695 76.2435C77.945 79.616 76.3855 84.0504 76.6342 88.5714C76.8828 93.0923 78.9192 97.3295 82.2954 100.351C82.3278 100.38 82.3604 100.409 82.3931 100.437C82.538 100.566 82.6871 100.688 82.8355 100.811C79.6246 97.7599 77.726 93.5819 77.5405 89.1588C77.3549 84.7358 78.8963 80.4137 81.8405 77.1048Z" fill="#2F2E41"/>
<path d="M95.1093 104.624C101.189 104.624 106.117 99.7014 106.117 93.6289C106.117 87.5564 101.189 82.6337 95.1093 82.6337C89.03 82.6337 84.1018 87.5564 84.1018 93.6289C84.1018 99.7014 89.03 104.624 95.1093 104.624Z" fill="#A0616A"/>
<path d="M114.807 122.277V125.966C114.131 126.398 113.448 126.802 112.751 127.185C112.472 127.338 112.194 127.484 111.915 127.63L111.748 127.714C111.399 127.888 111.058 128.069 110.702 128.236C110.695 128.243 110.681 128.243 110.674 128.25C109.097 129.003 107.469 129.648 105.803 130.178C105.796 130.178 105.79 130.185 105.782 130.185C103.145 131.018 100.426 131.567 97.671 131.82C96.4654 131.939 95.2459 131.995 94.0125 131.995C90.6319 131.996 87.2656 131.556 83.999 130.686C82.3325 130.248 80.6981 129.697 79.1071 129.036C79.0931 129.029 79.086 129.029 79.072 129.022C78.9117 128.953 78.7375 128.883 78.5773 128.813C77.7899 128.472 77.0233 128.103 76.2706 127.714L75.9433 127.547C75.1416 127.122 74.3543 126.676 73.5808 126.196L73.539 126.175C72.348 125.434 71.1987 124.628 70.0966 123.76C69.5321 123.328 68.9887 122.876 68.4589 122.403C68.1802 122.166 67.9016 121.915 67.6368 121.672C66.6187 120.732 65.6532 119.738 64.7446 118.692C64.8651 117.967 65.0423 117.253 65.2744 116.555L65.2812 116.549C65.3229 116.43 65.3718 116.313 65.4276 116.2C65.466 116.101 65.5102 116.003 65.5599 115.908C66.8073 113.576 69.0653 112.999 71.8667 112.873C73.4485 112.804 75.1975 112.88 77.0444 112.859C78.0199 112.852 79.0302 112.818 80.0407 112.727C86.4169 112.149 85.2603 108.39 85.5458 106.365C85.8316 104.402 87.6017 106.1 87.7201 106.212L87.7269 106.219C91.3352 107.905 95.3272 108.605 99.2948 108.244C99.9777 108.161 100.661 108.112 101.343 108.091C103.141 108.07 102.751 108.585 102.131 109.01C101.83 109.208 101.516 109.385 101.19 109.539C101.19 109.539 100.905 111.279 100.612 113.883C100.333 116.374 105.114 117.544 105.511 117.634C105.519 117.64 105.529 117.642 105.539 117.641C107.284 117.189 109.122 117.237 110.842 117.781H110.849C111.831 118.141 112.708 118.742 113.399 119.527C114.09 120.312 114.574 121.258 114.807 122.277Z" fill="#CBCBCB"/>
<path d="M79.1764 126.753C79.1764 127.268 79.1628 127.762 79.1417 128.229C79.1349 128.507 79.1209 128.779 79.107 129.036C79.093 129.029 79.0859 129.029 79.0719 129.022C78.9117 128.953 78.7375 128.883 78.5772 128.813C77.7898 128.472 77.0232 128.103 76.2705 127.714L75.9432 127.546C75.1416 127.122 74.3542 126.676 73.5808 126.196C73.6015 125.952 73.6366 125.709 73.6713 125.465C73.7478 124.929 73.8108 124.386 73.8527 123.85C74.1266 120.085 73.4434 116.311 71.8665 112.88V112.873C71.727 112.595 71.6437 112.442 71.6437 112.442C71.6437 112.442 73.6713 110.701 76.5632 112.442C76.7479 112.55 76.911 112.692 77.0443 112.859C78.7865 114.913 79.2601 121.818 79.1764 126.753Z" fill="#2F2E41"/>
<path d="M110.821 125.806C110.793 126.586 110.751 127.4 110.702 128.229V128.236C110.695 128.243 110.681 128.243 110.674 128.25C109.097 129.003 107.469 129.648 105.803 130.178C105.796 130.178 105.79 130.185 105.782 130.185L105.706 128.229L105.699 127.971L105.33 118.449C105.32 118.233 105.354 118.018 105.429 117.816C105.505 117.614 105.621 117.429 105.77 117.273C105.919 117.117 106.099 116.992 106.297 116.907C106.496 116.822 106.709 116.778 106.925 116.778H110.458C110.632 116.778 110.758 117.133 110.842 117.774V117.781C111.013 120.453 111.006 123.135 110.821 125.806Z" fill="#2F2E41"/>
<path d="M85.6948 79.8849V90.8829H88.2439L91.4878 87.4109L91.0536 90.8829H102.322L101.625 87.4109L103.019 90.8829H104.815V79.8849H85.6948Z" fill="#2F2E41"/>
<path d="M83.9569 92.9057C84.4368 92.9057 84.8258 92.1933 84.8258 91.3145C84.8258 90.4357 84.4368 89.7233 83.9569 89.7233C83.4769 89.7233 83.0879 90.4357 83.0879 91.3145C83.0879 92.1933 83.4769 92.9057 83.9569 92.9057Z" fill="#A0616A"/>
<path d="M106.262 92.9057C106.742 92.9057 107.131 92.1933 107.131 91.3145C107.131 90.4357 106.742 89.7233 106.262 89.7233C105.782 89.7233 105.393 90.4357 105.393 91.3145C105.393 92.1933 105.782 92.9057 106.262 92.9057Z" fill="#A0616A"/>
<path d="M129.977 81.8629C128.121 76.5364 125.124 71.6784 121.195 67.6278C117.266 63.5771 112.5 60.4313 107.229 58.4097C101.958 56.388 96.3091 55.5393 90.6759 55.9225C85.0426 56.3058 79.5609 57.9119 74.613 60.6287C69.665 63.3456 65.3699 67.1079 62.0272 71.6533C58.6844 76.1987 56.3745 81.4177 55.2585 86.9464C54.1425 92.4751 54.2473 98.1804 55.5656 103.665C56.8838 109.149 59.3838 114.279 62.8912 118.699C63.2397 119.138 63.602 119.576 63.9712 120.001C63.9991 120.029 64.0199 120.057 64.0478 120.085C64.9563 121.13 65.9219 122.124 66.94 123.064C67.2047 123.307 67.4834 123.558 67.7621 123.795C68.2919 124.268 68.8352 124.72 69.3997 125.152C70.5019 126.02 71.6511 126.826 72.8422 127.567L72.884 127.588C73.6574 128.069 74.4448 128.514 75.2464 128.939L75.5738 129.106C76.3264 129.495 77.093 129.864 77.8804 130.205C78.0407 130.275 78.2149 130.345 78.3752 130.414C78.3891 130.421 78.3963 130.421 78.4102 130.428C80.0012 131.089 81.6357 131.64 83.3021 132.078C86.5687 132.948 89.935 133.388 93.3157 133.387C94.5491 133.387 95.7686 133.331 96.9742 133.213C99.7288 132.959 102.448 132.41 105.086 131.577C105.093 131.577 105.1 131.57 105.106 131.57C106.773 131.04 108.4 130.395 109.978 129.642C109.984 129.635 109.999 129.635 110.005 129.628C110.361 129.461 110.702 129.28 111.051 129.106L111.218 129.022C111.497 128.876 111.775 128.73 112.054 128.577C112.751 128.194 113.434 127.79 114.11 127.359C114.298 127.247 114.479 127.129 114.667 127.004C115.281 126.6 115.887 126.168 116.472 125.73C116.577 125.653 116.688 125.577 116.793 125.493C123.321 120.543 128.113 113.655 130.482 105.818C132.85 97.9798 132.674 89.5943 129.977 81.8629ZM115.511 123.802C115.281 123.983 115.044 124.157 114.807 124.317C114.577 124.491 114.347 124.658 114.11 124.811C113.908 124.957 113.706 125.096 113.497 125.229C113.322 125.347 113.148 125.458 112.974 125.57C112.396 125.932 111.811 126.28 111.218 126.614C111.155 126.649 111.093 126.683 111.03 126.718C110.765 126.864 110.5 127.004 110.235 127.143C110.2 127.164 110.159 127.178 110.124 127.198L110.082 127.219C109.748 127.393 109.406 127.56 109.065 127.721C107.747 128.354 106.39 128.903 105.002 129.363C104.821 129.426 104.64 129.489 104.458 129.544C101.962 130.337 99.3875 130.86 96.7791 131.103C95.6362 131.208 94.4793 131.264 93.3156 131.264C90.118 131.27 86.9336 130.853 83.8455 130.025C82.2607 129.611 80.7074 129.086 79.1975 128.451C79.0372 128.389 78.877 128.319 78.7235 128.256C78.6402 128.222 78.5633 128.187 78.4796 128.145C77.8246 127.86 77.1767 127.546 76.5425 127.219L76.2359 127.059C75.4625 126.656 74.7027 126.224 73.964 125.765C73.6924 125.597 73.4206 125.423 73.1558 125.242C72.3195 124.693 71.5042 124.101 70.7097 123.481C70.1731 123.078 69.6576 122.646 69.1557 122.201C68.891 121.978 68.6331 121.734 68.3823 121.505C67.3943 120.593 66.459 119.626 65.581 118.609C65.2883 118.275 65.0025 117.941 64.7306 117.593C64.6688 117.524 64.6107 117.452 64.5564 117.377C60.0288 111.67 57.3054 104.745 56.7337 97.4856C56.162 90.2262 57.7678 82.9613 61.3464 76.6172C64.925 70.2732 70.3141 65.1376 76.8266 61.8654C83.339 58.5932 90.6795 57.3327 97.912 58.2447C105.145 59.1566 111.941 62.1997 117.435 66.9858C122.929 71.7719 126.872 78.0841 128.76 85.1174C130.648 92.1507 130.396 99.5864 128.036 106.476C125.677 113.366 121.316 119.397 115.511 123.802Z" fill="#CBCBCB"/>
<path d="M368.806 140.013C369.151 140.264 369.475 140.541 369.775 140.842L407.234 133.462L410.244 124.698L424.078 127.506L420.26 143.538C419.951 144.833 419.231 145.994 418.206 146.845C417.181 147.696 415.907 148.192 414.576 148.259L371.193 150.43C370.409 151.87 369.205 153.037 367.74 153.776C366.275 154.516 364.62 154.792 362.994 154.569C361.368 154.346 359.849 153.634 358.638 152.527C357.428 151.42 356.583 149.971 356.217 148.373C355.851 146.775 355.98 145.104 356.588 143.581C357.196 142.059 358.254 140.757 359.62 139.85C360.987 138.942 362.598 138.472 364.239 138.501C365.88 138.53 367.473 139.058 368.806 140.013Z" fill="#FFB7B7"/>
<path d="M406.322 131.729C406.076 131.296 405.926 130.816 405.883 130.321C405.84 129.825 405.904 129.326 406.072 128.858L411.919 112.501C412.414 110.005 413.879 107.807 415.994 106.389C418.108 104.971 420.699 104.448 423.199 104.935C425.699 105.423 427.904 106.88 429.329 108.988C430.755 111.097 431.286 113.683 430.805 116.182L429.959 133.586C429.934 134.083 429.803 134.569 429.574 135.01C429.345 135.452 429.024 135.839 428.631 136.145C428.239 136.451 427.785 136.669 427.301 136.784C426.817 136.9 426.313 136.909 425.825 136.813L408.661 133.415C408.173 133.319 407.711 133.118 407.307 132.827C406.904 132.536 406.567 132.161 406.322 131.729Z" fill="#EE0979"/>
<path d="M396.928 343.874L385.914 343.873L380.676 301.443L396.929 301.444L396.928 343.874Z" fill="#FFB7B7"/>
<path d="M399.736 354.537L364.227 354.536V354.087C364.227 350.425 365.683 346.914 368.275 344.325C370.867 341.736 374.382 340.282 378.048 340.281H378.049L399.736 340.282L399.736 354.537Z" fill="#2F2E41"/>
<path d="M501.213 332.345L491.013 336.493L470.143 299.168L485.197 293.047L501.213 332.345Z" fill="#FFB7B7"/>
<path d="M507.839 341.163L474.951 354.537L474.782 354.121C473.4 350.73 473.423 346.929 474.846 343.555C476.269 340.181 478.976 337.51 482.371 336.129L482.372 336.129L502.459 327.96L507.839 341.163Z" fill="#2F2E41"/>
<path d="M406.947 167.686L401.88 140.907C400.778 136.964 400.583 132.823 401.308 128.794C402.033 124.765 403.66 120.951 406.067 117.638L424.591 92.8988L442.284 93.4186C450.65 113.67 452.19 136.092 446.672 157.295L443.42 169.792C458.005 182.933 467.784 219.777 476.685 260.949L501.087 314.854L459.106 327.585L431.907 248.53L407.61 328.173L372.032 326.81L399.092 203.617L406.947 167.686Z" fill="#2F2E41"/>
<path d="M435.137 87.8986C444.669 87.8986 452.397 80.1797 452.397 70.6579C452.397 61.1362 444.669 53.4172 435.137 53.4172C425.604 53.4172 417.877 61.1362 417.877 70.6579C417.877 80.1797 425.604 87.8986 435.137 87.8986Z" fill="#FFB7B7"/>
<path d="M503.266 109.817C500.059 103.56 498.965 96.4557 496.497 89.8732C494.028 83.2908 489.545 76.76 482.746 74.9459C478.89 73.9169 474.792 74.545 470.831 74.0551C467.349 73.6244 463.599 71.8482 462.265 68.7584C462.533 65.6954 462.15 62.6104 461.141 59.7056C458.657 52.6538 452.731 47.0869 445.824 44.2091C440.213 41.8714 433.751 41.2111 428.021 43.2412C422.291 45.2713 417.482 50.2328 416.452 56.2178C415.422 62.2029 418.725 68.886 424.419 71.0119C428.508 72.5383 433.774 72.0301 436.444 75.4796C439.148 78.9742 437.209 84.067 434.753 87.7398L434.921 87.9103C442.944 88.0042 451.617 86.4556 457.143 80.6446C457.743 80.0101 458.295 79.332 458.794 78.6157C458.963 78.887 459.141 79.1515 459.332 79.4042C462.114 83.0954 466.471 85.1893 470.621 87.2293C474.772 89.2694 479.077 91.5589 481.57 95.4513C486.075 102.485 483.118 111.959 485.694 119.903C486.841 123.439 489.052 126.536 492.025 128.771C494.999 131.005 498.591 132.269 502.31 132.39C506.03 132.51 509.696 131.482 512.809 129.444C515.921 127.406 518.328 124.459 519.702 121.004C512.69 121.589 506.472 116.074 503.266 109.817Z" fill="#2F2E41"/>
<path d="M335.999 153.935L336.729 136.219L361.778 86.4704C362.484 85.056 363.636 83.9124 365.056 83.215C365.925 82.7818 366.873 82.526 367.842 82.4628C368.812 82.3995 369.785 82.53 370.703 82.8467C371.767 83.2132 372.732 83.8202 373.523 84.6204C374.313 85.4207 374.908 86.3925 375.261 87.46C375.412 87.921 375.518 88.3955 375.578 88.8768C375.756 90.3053 375.503 91.7544 374.851 93.0385L349.768 142.854L335.999 153.935Z" fill="#EE0979"/>
<path d="M368.175 82.7966L340.984 136.798L338.911 135.757L365.21 83.5274C366.132 83.0665 367.145 82.8169 368.175 82.7966Z" fill="#3F3D56"/>
<path d="M375.232 88.9209L349.078 140.864L347.004 139.823L374.139 85.933C374.473 86.4415 374.739 86.9916 374.93 87.5691C375.074 88.0089 375.175 88.4616 375.232 88.9209Z" fill="#3F3D56"/>
<path d="M372.628 84.2857L345.137 138.884L343.064 137.843L370.59 83.1758C370.883 83.276 371.169 83.3963 371.446 83.5358C371.864 83.7463 372.26 83.9975 372.628 84.2857Z" fill="#3F3D56"/>
<path d="M339.143 150.958L336.377 153.183L336.609 147.316C337.559 147.645 338.587 149.073 339.143 150.958Z" fill="#3F3D56"/>
<path d="M367.666 95.1865C367.761 95.6014 367.822 96.0232 367.85 96.4478L400.922 115.505L408.96 110.883L417.53 122.089L404.095 131.654C403.01 132.427 401.703 132.827 400.371 132.794C399.038 132.762 397.753 132.299 396.706 131.474L362.604 104.6C361.064 105.169 359.388 105.257 357.798 104.851C356.208 104.446 354.78 103.566 353.702 102.329C352.625 101.093 351.95 99.5581 351.767 97.929C351.584 96.2999 351.902 94.6539 352.679 93.2098C353.455 91.7657 354.654 90.592 356.114 89.8448C357.575 89.0975 359.229 88.8123 360.856 89.0269C362.483 89.2415 364.006 89.9457 365.222 91.046C366.439 92.1463 367.291 93.5905 367.666 95.1865Z" fill="#FFB7B7"/>
<path d="M401.376 113.6C401.476 113.113 401.68 112.653 401.973 112.252C402.267 111.85 402.644 111.517 403.079 111.274L418.255 102.798C420.272 101.243 422.823 100.55 425.35 100.872C427.876 101.193 430.172 102.502 431.734 104.512C433.296 106.522 433.996 109.069 433.682 111.593C433.367 114.118 432.062 116.415 430.055 117.981L417.954 130.532C417.609 130.89 417.19 131.17 416.727 131.352C416.264 131.534 415.767 131.614 415.27 131.587C414.773 131.56 414.287 131.426 413.847 131.194C413.406 130.963 413.02 130.639 412.716 130.246L402.028 116.408C401.723 116.014 401.507 115.56 401.395 115.075C401.283 114.591 401.276 114.088 401.376 113.6Z" fill="#EE0979"/>
<path d="M517.504 355H252.002C251.817 355 251.64 354.927 251.509 354.796C251.379 354.666 251.305 354.489 251.305 354.304C251.305 354.119 251.379 353.942 251.509 353.812C251.64 353.681 251.817 353.608 252.002 353.608H517.504C517.688 353.608 517.866 353.681 517.996 353.812C518.127 353.942 518.2 354.119 518.2 354.304C518.2 354.489 518.127 354.666 517.996 354.796C517.866 354.927 517.688 355 517.504 355Z" fill="#CBCBCB"/>
</g>
<defs>
<clipPath id="clip0_68_697">
<rect width="519.702" height="355" fill="white"/>
</clipPath>
</defs>
</svg>
