<svg width="480" height="358" viewBox="0 0 480 358" fill="none" xmlns="http://www.w3.org/2000/svg">
<path d="M43.9433 109.327H292.535V191.008H283.119V212.37L261.775 191.008H43.9433V109.327Z" fill="#E6E6E6"/>
<path d="M285.63 117.281H50.8484V182.626H285.63V117.281Z" fill="white"/>
<path d="M182.77 136.359H69.7284V139.792H182.77V136.359Z" fill="url(#paint0_linear_94_501)"/>
<path d="M266.75 148.237H69.7284V151.67H266.75V148.237Z" fill="#E6E6E6"/>
<path d="M266.557 160.114H69.7284V163.548H266.557V160.114Z" fill="#E6E6E6"/>
<path d="M248.592 218.653H0V300.335H9.41642V321.697L30.7599 300.335H248.592V218.653Z" fill="#E6E6E6"/>
<path d="M241.687 226.608H6.90533V291.952H241.687V226.608Z" fill="white"/>
<path d="M140.71 246.314H27.6686V249.748H140.71V246.314Z" fill="url(#paint1_linear_94_501)"/>
<path d="M224.69 258.192H27.6686V261.625H224.69V258.192Z" fill="#E6E6E6"/>
<path d="M224.497 270.069H27.6686V273.503H224.497V270.069Z" fill="#E6E6E6"/>
<path d="M248.592 0H0V81.6807H9.41642V103.044L30.7599 81.6807H248.592V0Z" fill="#E6E6E6"/>
<path d="M241.687 7.95435H6.90533V73.2991H241.687V7.95435Z" fill="white"/>
<path d="M140.71 27.6604H27.6686V31.094H140.71V27.6604Z" fill="url(#paint2_linear_94_501)"/>
<path d="M224.69 39.5381H27.6686V42.9716H224.69V39.5381Z" fill="#E6E6E6"/>
<path d="M224.497 51.416H27.6686V54.8496H224.497V51.416Z" fill="#E6E6E6"/>
<path d="M382.754 347.564L372.523 347.563L367.656 308.063L382.756 308.064L382.754 347.564Z" fill="#FFB8B8"/>
<path d="M385.364 357.491L352.373 357.489V357.072C352.373 353.663 353.726 350.394 356.134 347.984C358.542 345.574 361.808 344.22 365.214 344.219H365.215L385.365 344.22L385.364 357.491Z" fill="#2F2E41"/>
<path d="M368.369 317.865L358.848 321.615L339.867 286.643L353.919 281.109L368.369 317.865Z" fill="#FFB8B8"/>
<path d="M374.429 326.146L343.729 338.237L343.576 337.848C342.329 334.677 342.392 331.139 343.751 328.013C345.11 324.888 347.654 322.431 350.823 321.182L350.824 321.182L369.574 313.798L374.429 326.146Z" fill="#2F2E41"/>
<path d="M365.25 334.729L368.508 214.893L354.011 266.266L364.486 301.911L347.108 316.696L329.394 260.128L329.363 260.029L346.969 166.883L399.041 164.362L399.413 164.343L399.473 164.712C399.523 165.022 404.444 195.948 400.306 218.314C396.184 240.594 386.223 335.108 386.123 336.06L386.08 336.467L365.25 334.729Z" fill="#2F2E41"/>
<path d="M349.667 174.354L349.373 174.237L359.036 85.5077L359.318 85.4372C369.139 82.9794 382.371 83.1943 389.384 83.5406C390.448 83.5956 391.459 84.0154 392.249 84.7294C393.04 85.4434 393.56 86.4081 393.723 87.461L405.341 164.046L405.245 164.183C397.213 175.667 384.94 178.789 373.967 178.789C365.676 178.682 357.462 177.183 349.667 174.354Z" fill="url(#paint3_linear_94_501)"/>
<path d="M395.685 200.277L395.336 200.246L389.164 83.311L407.919 87.5506C409.967 88.0205 411.768 89.2361 412.972 90.961C414.175 92.6859 414.694 94.797 414.429 96.8838L411.997 116.321L412.83 150.516C413.411 152.617 422.907 187.412 417.631 196.478C417.364 196.992 416.995 197.445 416.546 197.809C416.096 198.174 415.577 198.442 415.019 198.596C409.954 199.814 404.761 200.422 399.551 200.408C397.184 200.407 395.721 200.281 395.685 200.277Z" fill="#3F3D56"/>
<path d="M340.455 201.07C339.543 200.661 338.735 200.051 338.092 199.286C337.448 198.521 336.986 197.621 336.739 196.651C335.517 191.727 339.642 185.534 340.238 184.674L345.228 137.227L337.805 93.3946C337.678 92.6449 337.706 91.8772 337.886 91.1384C338.065 90.3996 338.394 89.7054 338.851 89.0982C339.309 88.4909 339.885 87.9836 340.545 87.6071C341.205 87.2306 341.935 86.993 342.69 86.9087L363.832 84.5488L362.759 129.64C371.833 160.339 352.072 204.602 351.871 205.045L351.76 205.291H351.491C351.384 205.291 348.793 205.243 340.455 201.07Z" fill="#3F3D56"/>
<path d="M383.899 73.0299C393.832 67.595 397.483 55.1295 392.053 45.1874C386.623 35.2453 374.168 31.5914 364.235 37.0263C354.302 42.4611 350.651 54.9266 356.081 64.8688C361.511 74.8109 373.966 78.4648 383.899 73.0299Z" fill="#FFB8B8"/>
<path d="M397.538 179.115C397.354 177.985 397.419 176.828 397.73 175.726C398.041 174.624 398.589 173.604 399.336 172.737C400.084 171.87 401.012 171.177 402.055 170.708C403.099 170.239 404.233 170.005 405.377 170.022L412.472 153.592L423.499 155.472L413.154 178.533C412.998 180.455 412.144 182.252 410.752 183.586C409.361 184.919 407.529 185.695 405.604 185.766C403.679 185.838 401.795 185.201 400.308 183.975C398.822 182.749 397.836 181.02 397.538 179.115Z" fill="#FFB8B8"/>
<path d="M407.528 164.061L413.387 128.876L403.379 112.181L405.929 88.3634L406.496 88.2214C408.394 87.7523 410.395 87.9506 412.164 88.7831C413.933 89.6155 415.362 91.0316 416.212 92.7936L432.56 126.942L432.626 127.078L420.752 173.767L407.528 164.061Z" fill="#3F3D56"/>
<path d="M387.502 71.5716C387.97 71.7074 389.937 69.4837 392.091 66.8179C394.354 64.0393 395.987 60.8019 396.877 57.3297C397.768 53.8574 397.894 50.2331 397.247 46.7072C397.217 46.5485 397.188 46.3978 397.158 46.2563C396.444 42.8583 393.206 39.7283 389.812 40.4481C390.069 37.4378 388.043 34.6027 385.476 33.0137C382.908 31.4247 379.866 30.8357 376.9 30.2755C373.516 29.6364 370.09 28.9943 366.653 29.2123C363.339 29.4164 360.128 30.443 357.309 32.1997C353.886 34.4537 351.248 37.7188 349.763 41.5417C348.279 45.3645 348.02 49.5553 349.024 53.5319C353.343 48.6232 358.461 43.284 365.858 45.4114C367.533 45.9105 369.096 46.7286 370.461 47.8209C374.957 51.3551 377.217 56.5597 379.404 61.6454C380.496 58.8623 384.547 57.8152 386.849 59.7212C388.326 60.9446 388.935 62.9786 388.879 64.897C388.725 66.8132 388.283 68.6951 387.566 70.4788" fill="#2F2E41"/>
<path d="M384.858 148.217H383.894V144.42C383.893 143.294 383.445 142.215 382.65 141.419C381.855 140.623 380.776 140.175 379.651 140.174H367.563C366.438 140.175 365.359 140.623 364.564 141.419C363.769 142.215 363.321 143.294 363.32 144.42V170.677C363.321 171.802 363.769 172.882 364.564 173.678C365.359 174.474 366.438 174.922 367.563 174.923H379.651C380.776 174.922 381.855 174.474 382.65 173.678C383.445 172.882 383.893 171.802 383.894 170.677V152.722H384.858V148.217Z" fill="#2F2E41"/>
<path d="M373.928 155.296C375.349 155.296 376.5 154.144 376.5 152.722C376.5 151.3 375.349 150.148 373.928 150.148C372.508 150.148 371.357 151.3 371.357 152.722C371.357 154.144 372.508 155.296 373.928 155.296Z" fill="white"/>
<path d="M376.027 162.978C375.538 161.943 374.828 161.028 373.947 160.297C373.066 159.566 372.036 159.038 370.929 158.749C369.822 158.46 368.665 158.417 367.54 158.624C366.415 158.83 365.348 159.281 364.416 159.945L349.257 150.45L341.245 158.263L362.841 171.371C364.059 172.865 365.782 173.859 367.684 174.166C369.585 174.473 371.533 174.071 373.159 173.037C374.784 172.002 375.974 170.407 376.502 168.553C377.031 166.699 376.862 164.716 376.027 162.978Z" fill="#FFB8B8"/>
<path d="M321.807 144.89L335.679 92.441C336.044 91.0858 336.903 89.9166 338.086 89.1638C339.27 88.411 340.692 88.1293 342.073 88.3742L346.842 89.2417L351.924 117.217L341.589 140.797L360.284 152.031L357.655 173.081L321.807 144.89Z" fill="#3F3D56"/>
<path d="M479.357 358H234.399C234.229 358 234.065 357.932 233.944 357.811C233.824 357.691 233.756 357.527 233.756 357.356C233.756 357.186 233.824 357.022 233.944 356.901C234.065 356.781 234.229 356.713 234.399 356.713H479.357C479.528 356.713 479.691 356.781 479.812 356.901C479.932 357.022 480 357.186 480 357.356C480 357.527 479.932 357.691 479.812 357.811C479.691 357.932 479.528 358 479.357 358Z" fill="#3F3D56"/>
<defs>
<linearGradient id="paint0_linear_94_501" x1="70" y1="138" x2="183" y2="138" gradientUnits="userSpaceOnUse">
<stop stop-color="#EE0979"/>
<stop offset="1" stop-color="#FF6A00"/>
</linearGradient>
<linearGradient id="paint1_linear_94_501" x1="30" y1="248" x2="141" y2="248" gradientUnits="userSpaceOnUse">
<stop stop-color="#EE0979"/>
<stop offset="1" stop-color="#FF6A00"/>
</linearGradient>
<linearGradient id="paint2_linear_94_501" x1="28" y1="29" x2="141" y2="28.9999" gradientUnits="userSpaceOnUse">
<stop stop-color="#EE0979"/>
<stop offset="1" stop-color="#FF6A00"/>
</linearGradient>
<linearGradient id="paint3_linear_94_501" x1="359" y1="131" x2="395" y2="131" gradientUnits="userSpaceOnUse">
<stop stop-color="#EE0979"/>
<stop offset="1" stop-color="#FF6A00"/>
</linearGradient>
</defs>
</svg>
