<svg width="494" height="359" viewBox="0 0 494 359" fill="none" xmlns="http://www.w3.org/2000/svg">
<g clip-path="url(#clip0_94_349)">
<path d="M287.754 63.2875C297.013 63.2875 304.518 55.7881 304.518 46.5371C304.518 37.286 297.013 29.7866 287.754 29.7866C278.496 29.7866 270.99 37.286 270.99 46.5371C270.99 55.7881 278.496 63.2875 287.754 63.2875Z" fill="#F2F2F2"/>
<path d="M417.797 311.883C442.715 292.919 454.616 261.053 447.165 230.654C446.98 229.898 446.785 229.145 446.579 228.393C441.64 210.348 429.419 193.199 411.608 187.433C396.653 182.592 380.329 186.315 364.728 184.39C334.1 180.61 310.356 155.849 293.649 129.924C276.941 103.999 264.101 74.9799 241.901 53.562C205.307 18.2582 145.613 10.6573 100.242 33.6374C54.8715 56.6176 25.9707 107.601 27.2032 158.412C28.4358 209.224 58.6245 257.803 102.466 283.577C118.572 293.046 137.199 299.753 155.737 297.406C171.823 295.37 186.438 286.733 202.448 284.17C227.619 280.138 252.63 291.51 274.401 304.761C296.172 318.012 317.201 333.719 341.941 339.862C365.963 345.827 395.724 328.682 417.797 311.883Z" fill="#F2F2F2"/>
<path d="M381.996 34.7044C381.45 34.3405 380.898 33.9955 380.351 33.6442C364.562 23.5539 347.638 15.3567 329.929 9.22183L325.823 65.8204H299.793V0.959768C298.154 0.621005 296.503 0.301062 294.852 -6.10352e-05V65.8204H263.918C246.888 65.8204 230.556 59.0609 218.515 47.029C206.473 34.997 199.708 18.6782 199.708 1.66246C198.051 2.02005 196.406 2.40267 194.761 2.81044V65.8204H169.565L165.654 11.8504C147.456 18.8241 130.179 27.9948 114.208 39.1585C113.932 39.3467 113.656 39.5412 113.386 39.7294C111.998 40.7018 110.63 41.693 109.267 42.6967V258.621H183.522L182.21 240.459L174.99 140.744H320.392L313.172 240.459L311.86 258.621H385.293V36.8875C384.2 36.1473 383.101 35.4196 381.996 34.7044ZM194.761 124.276H173.797L169.923 70.7639H194.761V124.276ZM294.852 124.276H259.642V123.216C259.642 122.706 259.542 122.201 259.346 121.731C259.151 121.26 258.865 120.832 258.504 120.472C258.143 120.112 257.714 119.827 257.243 119.632C256.771 119.438 256.266 119.338 255.756 119.339H240.449C239.939 119.339 239.435 119.439 238.964 119.633C238.493 119.828 238.065 120.114 237.705 120.474C237.345 120.834 237.059 121.261 236.864 121.732C236.669 122.202 236.569 122.707 236.569 123.216V124.276H199.708V70.7639H294.852V124.276ZM299.793 124.276V70.7639H325.465L321.592 124.276H299.793Z" fill="#3F3D56"/>
<path d="M-3.05176e-05 272.448C5.45421 278.905 11.3536 284.974 17.6549 290.609L476.345 291.237C482.646 285.601 488.546 279.533 494 273.075L-3.05176e-05 272.448Z" fill="#3F3D56"/>
<path d="M311.053 214.294V268.059C311.053 268.744 311.326 269.401 311.811 269.886C312.296 270.37 312.953 270.643 313.639 270.643H393.378C394.063 270.643 394.721 270.37 395.206 269.886C395.691 269.401 395.963 268.744 395.964 268.059V214.294C395.962 213.609 395.689 212.953 395.204 212.469C394.72 211.986 394.063 211.713 393.378 211.713H313.639C312.954 211.713 312.297 211.986 311.812 212.469C311.327 212.953 311.054 213.609 311.053 214.294Z" fill="#3F3D56"/>
<path d="M312.923 214.963V267.396C312.924 267.762 313.07 268.113 313.329 268.372C313.588 268.631 313.939 268.776 314.305 268.777H392.714C393.08 268.776 393.431 268.631 393.691 268.372C393.95 268.113 394.095 267.762 394.096 267.396V214.963C394.096 214.596 393.951 214.245 393.691 213.985C393.432 213.726 393.081 213.58 392.714 213.579H314.305C313.939 213.58 313.587 213.726 313.328 213.985C313.069 214.245 312.923 214.596 312.923 214.963Z" fill="url(#paint0_linear_94_349)"/>
<path d="M309.385 278.545C309.531 278.728 309.717 278.876 309.928 278.977C310.139 279.078 310.371 279.13 310.605 279.128H395.987C396.22 279.128 396.451 279.076 396.662 278.975C396.872 278.875 397.058 278.729 397.205 278.547C397.352 278.366 397.457 278.155 397.512 277.928C397.567 277.701 397.57 277.465 397.523 277.237L396.197 270.946C396.142 270.69 396.024 270.451 395.853 270.252C395.682 270.052 395.464 269.899 395.219 269.806C395.041 269.736 394.852 269.7 394.661 269.701H311.925C311.734 269.7 311.545 269.736 311.368 269.806C311.122 269.899 310.904 270.052 310.733 270.252C310.563 270.451 310.444 270.69 310.389 270.946L309.064 277.237C309.017 277.465 309.021 277.701 309.077 277.927C309.132 278.153 309.238 278.364 309.385 278.545Z" fill="#2F2E41"/>
<path d="M391.732 272.41H393.749C393.918 272.41 394.055 272.273 394.055 272.104V271.14C394.055 270.97 393.918 270.833 393.749 270.833H391.732C391.563 270.833 391.425 270.97 391.425 271.14V272.104C391.425 272.273 391.563 272.41 391.732 272.41Z" fill="#3F3D56"/>
<path d="M386.472 272.41H388.489C388.658 272.41 388.796 272.273 388.796 272.104V271.14C388.796 270.97 388.658 270.833 388.489 270.833H386.472C386.303 270.833 386.166 270.97 386.166 271.14V272.104C386.166 272.273 386.303 272.41 386.472 272.41Z" fill="#3F3D56"/>
<path d="M381.213 272.41H383.23C383.399 272.41 383.536 272.273 383.536 272.104V271.14C383.536 270.97 383.399 270.833 383.23 270.833H381.213C381.044 270.833 380.906 270.97 380.906 271.14V272.104C380.906 272.273 381.044 272.41 381.213 272.41Z" fill="#3F3D56"/>
<path d="M375.953 272.41H377.97C378.139 272.41 378.277 272.273 378.277 272.104V271.14C378.277 270.97 378.139 270.833 377.97 270.833H375.953C375.784 270.833 375.647 270.97 375.647 271.14V272.104C375.647 272.273 375.784 272.41 375.953 272.41Z" fill="#3F3D56"/>
<path d="M370.694 272.41H372.711C372.88 272.41 373.017 272.273 373.017 272.104V271.14C373.017 270.97 372.88 270.833 372.711 270.833H370.694C370.525 270.833 370.388 270.97 370.388 271.14V272.104C370.388 272.273 370.525 272.41 370.694 272.41Z" fill="#3F3D56"/>
<path d="M365.435 272.41H367.451C367.621 272.41 367.758 272.273 367.758 272.104V271.14C367.758 270.97 367.621 270.833 367.451 270.833H365.435C365.265 270.833 365.128 270.97 365.128 271.14V272.104C365.128 272.273 365.265 272.41 365.435 272.41Z" fill="#3F3D56"/>
<path d="M360.175 272.41H362.192C362.361 272.41 362.498 272.273 362.498 272.104V271.14C362.498 270.97 362.361 270.833 362.192 270.833H360.175C360.006 270.833 359.869 270.97 359.869 271.14V272.104C359.869 272.273 360.006 272.41 360.175 272.41Z" fill="#3F3D56"/>
<path d="M354.916 272.41H356.932C357.102 272.41 357.239 272.273 357.239 272.104V271.14C357.239 270.97 357.102 270.833 356.932 270.833H354.916C354.746 270.833 354.609 270.97 354.609 271.14V272.104C354.609 272.273 354.746 272.41 354.916 272.41Z" fill="#3F3D56"/>
<path d="M349.656 272.41H351.673C351.842 272.41 351.98 272.273 351.98 272.104V271.14C351.98 270.97 351.842 270.833 351.673 270.833H349.656C349.487 270.833 349.35 270.97 349.35 271.14V272.104C349.35 272.273 349.487 272.41 349.656 272.41Z" fill="#3F3D56"/>
<path d="M344.397 272.41H346.414C346.583 272.41 346.72 272.273 346.72 272.104V271.14C346.72 270.97 346.583 270.833 346.414 270.833H344.397C344.228 270.833 344.09 270.97 344.09 271.14V272.104C344.09 272.273 344.228 272.41 344.397 272.41Z" fill="#3F3D56"/>
<path d="M339.137 272.41H341.154C341.323 272.41 341.461 272.273 341.461 272.104V271.14C341.461 270.97 341.323 270.833 341.154 270.833H339.137C338.968 270.833 338.831 270.97 338.831 271.14V272.104C338.831 272.273 338.968 272.41 339.137 272.41Z" fill="#3F3D56"/>
<path d="M333.878 272.41H335.895C336.064 272.41 336.201 272.273 336.201 272.104V271.14C336.201 270.97 336.064 270.833 335.895 270.833H333.878C333.709 270.833 333.571 270.97 333.571 271.14V272.104C333.571 272.273 333.709 272.41 333.878 272.41Z" fill="#3F3D56"/>
<path d="M328.619 272.41H330.635C330.805 272.41 330.942 272.273 330.942 272.104V271.14C330.942 270.97 330.805 270.833 330.635 270.833H328.619C328.449 270.833 328.312 270.97 328.312 271.14V272.104C328.312 272.273 328.449 272.41 328.619 272.41Z" fill="#3F3D56"/>
<path d="M323.359 272.41H325.376C325.545 272.41 325.682 272.273 325.682 272.104V271.14C325.682 270.97 325.545 270.833 325.376 270.833H323.359C323.19 270.833 323.053 270.97 323.053 271.14V272.104C323.053 272.273 323.19 272.41 323.359 272.41Z" fill="#3F3D56"/>
<path d="M318.1 272.41H320.116C320.286 272.41 320.423 272.273 320.423 272.104V271.14C320.423 270.97 320.286 270.833 320.116 270.833H318.1C317.93 270.833 317.793 270.97 317.793 271.14V272.104C317.793 272.273 317.93 272.41 318.1 272.41Z" fill="#3F3D56"/>
<path d="M312.84 272.41H314.857C315.026 272.41 315.163 272.273 315.163 272.104V271.14C315.163 270.97 315.026 270.833 314.857 270.833H312.84C312.671 270.833 312.534 270.97 312.534 271.14V272.104C312.534 272.273 312.671 272.41 312.84 272.41Z" fill="#3F3D56"/>
<path d="M391.794 275.038H393.811C393.98 275.038 394.117 274.9 394.117 274.731V273.767C394.117 273.598 393.98 273.461 393.811 273.461H391.794C391.625 273.461 391.487 273.598 391.487 273.767V274.731C391.487 274.9 391.625 275.038 391.794 275.038Z" fill="#3F3D56"/>
<path d="M386.534 275.038H388.551C388.72 275.038 388.858 274.9 388.858 274.731V273.767C388.858 273.598 388.72 273.461 388.551 273.461H386.534C386.365 273.461 386.228 273.598 386.228 273.767V274.731C386.228 274.9 386.365 275.038 386.534 275.038Z" fill="#3F3D56"/>
<path d="M381.275 275.038H383.292C383.461 275.038 383.598 274.9 383.598 274.731V273.767C383.598 273.598 383.461 273.461 383.292 273.461H381.275C381.106 273.461 380.969 273.598 380.969 273.767V274.731C380.969 274.9 381.106 275.038 381.275 275.038Z" fill="#3F3D56"/>
<path d="M376.016 275.038H378.032C378.202 275.038 378.339 274.9 378.339 274.731V273.767C378.339 273.598 378.202 273.461 378.032 273.461H376.016C375.846 273.461 375.709 273.598 375.709 273.767V274.731C375.709 274.9 375.846 275.038 376.016 275.038Z" fill="#3F3D56"/>
<path d="M370.756 275.038H372.773C372.942 275.038 373.079 274.9 373.079 274.731V273.767C373.079 273.598 372.942 273.461 372.773 273.461H370.756C370.587 273.461 370.45 273.598 370.45 273.767V274.731C370.45 274.9 370.587 275.038 370.756 275.038Z" fill="#3F3D56"/>
<path d="M365.497 275.038H367.513C367.683 275.038 367.82 274.9 367.82 274.731V273.767C367.82 273.598 367.683 273.461 367.513 273.461H365.497C365.327 273.461 365.19 273.598 365.19 273.767V274.731C365.19 274.9 365.327 275.038 365.497 275.038Z" fill="#3F3D56"/>
<path d="M360.237 275.038H362.254C362.423 275.038 362.561 274.9 362.561 274.731V273.767C362.561 273.598 362.423 273.461 362.254 273.461H360.237C360.068 273.461 359.931 273.598 359.931 273.767V274.731C359.931 274.9 360.068 275.038 360.237 275.038Z" fill="#3F3D56"/>
<path d="M354.978 275.038H356.995C357.164 275.038 357.301 274.9 357.301 274.731V273.767C357.301 273.598 357.164 273.461 356.995 273.461H354.978C354.809 273.461 354.671 273.598 354.671 273.767V274.731C354.671 274.9 354.809 275.038 354.978 275.038Z" fill="#3F3D56"/>
<path d="M349.718 275.038H351.735C351.904 275.038 352.042 274.9 352.042 274.731V273.767C352.042 273.598 351.904 273.461 351.735 273.461H349.718C349.549 273.461 349.412 273.598 349.412 273.767V274.731C349.412 274.9 349.549 275.038 349.718 275.038Z" fill="#3F3D56"/>
<path d="M344.459 275.038H346.476C346.645 275.038 346.782 274.9 346.782 274.731V273.767C346.782 273.598 346.645 273.461 346.476 273.461H344.459C344.29 273.461 344.153 273.598 344.153 273.767V274.731C344.153 274.9 344.29 275.038 344.459 275.038Z" fill="#3F3D56"/>
<path d="M339.2 275.038H341.216C341.386 275.038 341.523 274.9 341.523 274.731V273.767C341.523 273.598 341.386 273.461 341.216 273.461H339.2C339.03 273.461 338.893 273.598 338.893 273.767V274.731C338.893 274.9 339.03 275.038 339.2 275.038Z" fill="#3F3D56"/>
<path d="M333.94 275.038H335.957C336.126 275.038 336.263 274.9 336.263 274.731V273.767C336.263 273.598 336.126 273.461 335.957 273.461H333.94C333.771 273.461 333.634 273.598 333.634 273.767V274.731C333.634 274.9 333.771 275.038 333.94 275.038Z" fill="#3F3D56"/>
<path d="M328.681 275.038H330.697C330.867 275.038 331.004 274.9 331.004 274.731V273.767C331.004 273.598 330.867 273.461 330.697 273.461H328.681C328.511 273.461 328.374 273.598 328.374 273.767V274.731C328.374 274.9 328.511 275.038 328.681 275.038Z" fill="#3F3D56"/>
<path d="M323.421 275.038H325.438C325.607 275.038 325.745 274.9 325.745 274.731V273.767C325.745 273.598 325.607 273.461 325.438 273.461H323.421C323.252 273.461 323.115 273.598 323.115 273.767V274.731C323.115 274.9 323.252 275.038 323.421 275.038Z" fill="#3F3D56"/>
<path d="M318.162 275.038H320.179C320.348 275.038 320.485 274.9 320.485 274.731V273.767C320.485 273.598 320.348 273.461 320.179 273.461H318.162C317.993 273.461 317.855 273.598 317.855 273.767V274.731C317.855 274.9 317.993 275.038 318.162 275.038Z" fill="#3F3D56"/>
<path d="M312.902 275.038H314.919C315.088 275.038 315.226 274.9 315.226 274.731V273.767C315.226 273.598 315.088 273.461 314.919 273.461H312.902C312.733 273.461 312.596 273.598 312.596 273.767V274.731C312.596 274.9 312.733 275.038 312.902 275.038Z" fill="#3F3D56"/>
<path d="M348.141 278.191H368.565C368.735 278.191 368.872 278.054 368.872 277.884V276.92C368.872 276.751 368.735 276.614 368.565 276.614H348.141C347.971 276.614 347.834 276.751 347.834 276.92V277.884C347.834 278.054 347.971 278.191 348.141 278.191Z" fill="#3F3D56"/>
<path d="M326.501 225.05H324.716C324.175 225.05 323.736 225.488 323.736 226.029C323.736 226.57 324.175 227.009 324.716 227.009H326.501C327.043 227.009 327.481 226.57 327.481 226.029C327.481 225.488 327.043 225.05 326.501 225.05Z" fill="white"/>
<path d="M346.921 225.05H345.135C344.594 225.05 344.155 225.488 344.155 226.029C344.155 226.57 344.594 227.009 345.135 227.009H346.921C347.462 227.009 347.901 226.57 347.901 226.029C347.901 225.488 347.462 225.05 346.921 225.05Z" fill="white"/>
<path d="M352.706 225.05H350.921C350.379 225.05 349.941 225.488 349.941 226.029C349.941 226.57 350.379 227.009 350.921 227.009H352.706C353.247 227.009 353.686 226.57 353.686 226.029C353.686 225.488 353.247 225.05 352.706 225.05Z" fill="white"/>
<path d="M341.366 224.887H330.27C329.729 224.887 329.29 225.325 329.29 225.866C329.29 226.407 329.729 226.845 330.27 226.845H341.366C341.908 226.845 342.347 226.407 342.347 225.866C342.347 225.325 341.908 224.887 341.366 224.887Z" fill="white"/>
<path d="M368.592 224.887H357.496C356.955 224.887 356.516 225.325 356.516 225.866C356.516 226.407 356.955 226.845 357.496 226.845H368.592C369.134 226.845 369.572 226.407 369.572 225.866C369.572 225.325 369.134 224.887 368.592 224.887Z" fill="white"/>
<path d="M331.946 229.471H330.161C329.62 229.471 329.181 229.909 329.181 230.45C329.181 230.991 329.62 231.429 330.161 231.429H331.946C332.488 231.429 332.927 230.991 332.927 230.45C332.927 229.909 332.488 229.471 331.946 229.471Z" fill="white"/>
<path d="M352.366 229.471H350.58C350.039 229.471 349.6 229.909 349.6 230.45C349.6 230.991 350.039 231.429 350.58 231.429H352.366C352.907 231.429 353.346 230.991 353.346 230.45C353.346 229.909 352.907 229.471 352.366 229.471Z" fill="white"/>
<path d="M358.151 229.471H356.366C355.825 229.471 355.386 229.909 355.386 230.45C355.386 230.991 355.825 231.429 356.366 231.429H358.151C358.693 231.429 359.131 230.991 359.131 230.45C359.131 229.909 358.693 229.471 358.151 229.471Z" fill="white"/>
<path d="M346.812 229.307H335.715C335.174 229.307 334.735 229.746 334.735 230.287C334.735 230.828 335.174 231.266 335.715 231.266H346.812C347.353 231.266 347.792 230.828 347.792 230.287C347.792 229.746 347.353 229.307 346.812 229.307Z" fill="white"/>
<path d="M374.037 229.307H362.941C362.4 229.307 361.961 229.746 361.961 230.287C361.961 230.828 362.4 231.266 362.941 231.266H374.037C374.579 231.266 375.018 230.828 375.018 230.287C375.018 229.746 374.579 229.307 374.037 229.307Z" fill="white"/>
<path d="M337.392 233.891H335.606C335.065 233.891 334.626 234.33 334.626 234.871C334.626 235.411 335.065 235.85 335.606 235.85H337.392C337.933 235.85 338.372 235.411 338.372 234.871C338.372 234.33 337.933 233.891 337.392 233.891Z" fill="white"/>
<path d="M357.811 233.891H356.026C355.484 233.891 355.045 234.33 355.045 234.871C355.045 235.411 355.484 235.85 356.026 235.85H357.811C358.352 235.85 358.791 235.411 358.791 234.871C358.791 234.33 358.352 233.891 357.811 233.891Z" fill="white"/>
<path d="M363.596 233.891H361.811C361.27 233.891 360.831 234.33 360.831 234.871C360.831 235.411 361.27 235.85 361.811 235.85H363.596C364.138 235.85 364.577 235.411 364.577 234.871C364.577 234.33 364.138 233.891 363.596 233.891Z" fill="white"/>
<path d="M352.257 233.728H341.16C340.619 233.728 340.18 234.166 340.18 234.707C340.18 235.248 340.619 235.687 341.16 235.687H352.257C352.798 235.687 353.237 235.248 353.237 234.707C353.237 234.166 352.798 233.728 352.257 233.728Z" fill="white"/>
<path d="M379.483 233.728H368.386C367.845 233.728 367.406 234.166 367.406 234.707C367.406 235.248 367.845 235.687 368.386 235.687H379.483C380.024 235.687 380.463 235.248 380.463 234.707C380.463 234.166 380.024 233.728 379.483 233.728Z" fill="white"/>
<path d="M342.837 238.312H341.051C340.51 238.312 340.071 238.75 340.071 239.291C340.071 239.832 340.51 240.271 341.051 240.271H342.837C343.378 240.271 343.817 239.832 343.817 239.291C343.817 238.75 343.378 238.312 342.837 238.312Z" fill="white"/>
<path d="M363.256 238.312H361.471C360.929 238.312 360.491 238.75 360.491 239.291C360.491 239.832 360.929 240.271 361.471 240.271H363.256C363.797 240.271 364.236 239.832 364.236 239.291C364.236 238.75 363.797 238.312 363.256 238.312Z" fill="white"/>
<path d="M369.042 238.312H367.256C366.715 238.312 366.276 238.75 366.276 239.291C366.276 239.832 366.715 240.271 367.256 240.271H369.042C369.583 240.271 370.022 239.832 370.022 239.291C370.022 238.75 369.583 238.312 369.042 238.312Z" fill="white"/>
<path d="M357.702 238.149H346.605C346.064 238.149 345.625 238.587 345.625 239.128C345.625 239.669 346.064 240.107 346.605 240.107H357.702C358.243 240.107 358.682 239.669 358.682 239.128C358.682 238.587 358.243 238.149 357.702 238.149Z" fill="white"/>
<path d="M346.921 255.89H345.135C344.594 255.89 344.155 256.329 344.155 256.87C344.155 257.411 344.594 257.849 345.135 257.849H346.921C347.462 257.849 347.901 257.411 347.901 256.87C347.901 256.329 347.462 255.89 346.921 255.89Z" fill="white"/>
<path d="M352.706 255.89H350.921C350.379 255.89 349.941 256.329 349.941 256.87C349.941 257.411 350.379 257.849 350.921 257.849H352.706C353.247 257.849 353.686 257.411 353.686 256.87C353.686 256.329 353.247 255.89 352.706 255.89Z" fill="white"/>
<path d="M368.592 256.054H357.496C356.955 256.054 356.516 256.492 356.516 257.033C356.516 257.574 356.955 258.012 357.496 258.012H368.592C369.134 258.012 369.572 257.574 369.572 257.033C369.572 256.492 369.134 256.054 368.592 256.054Z" fill="white"/>
<path d="M326.501 255.89H324.716C324.175 255.89 323.736 256.329 323.736 256.87C323.736 257.411 324.175 257.849 324.716 257.849H326.501C327.043 257.849 327.481 257.411 327.481 256.87C327.481 256.329 327.043 255.89 326.501 255.89Z" fill="white"/>
<path d="M341.366 256.054H330.27C329.729 256.054 329.29 256.492 329.29 257.033C329.29 257.574 329.729 258.012 330.27 258.012H341.366C341.908 258.012 342.347 257.574 342.347 257.033C342.347 256.492 341.908 256.054 341.366 256.054Z" fill="white"/>
<path d="M331.946 251.47H330.161C329.62 251.47 329.181 251.908 329.181 252.449C329.181 252.99 329.62 253.428 330.161 253.428H331.946C332.488 253.428 332.927 252.99 332.927 252.449C332.927 251.908 332.488 251.47 331.946 251.47Z" fill="white"/>
<path d="M352.366 251.47H350.58C350.039 251.47 349.6 251.908 349.6 252.449C349.6 252.99 350.039 253.428 350.58 253.428H352.366C352.907 253.428 353.346 252.99 353.346 252.449C353.346 251.908 352.907 251.47 352.366 251.47Z" fill="white"/>
<path d="M358.151 251.47H356.366C355.825 251.47 355.386 251.908 355.386 252.449C355.386 252.99 355.825 253.428 356.366 253.428H358.151C358.693 253.428 359.131 252.99 359.131 252.449C359.131 251.908 358.693 251.47 358.151 251.47Z" fill="white"/>
<path d="M346.812 251.633H335.715C335.174 251.633 334.735 252.071 334.735 252.612C334.735 253.153 335.174 253.592 335.715 253.592H346.812C347.353 253.592 347.792 253.153 347.792 252.612C347.792 252.071 347.353 251.633 346.812 251.633Z" fill="white"/>
<path d="M337.392 247.049H335.606C335.065 247.049 334.626 247.487 334.626 248.028C334.626 248.569 335.065 249.008 335.606 249.008H337.392C337.933 249.008 338.372 248.569 338.372 248.028C338.372 247.487 337.933 247.049 337.392 247.049Z" fill="white"/>
<path d="M357.811 247.049H356.026C355.484 247.049 355.045 247.487 355.045 248.028C355.045 248.569 355.484 249.008 356.026 249.008H357.811C358.352 249.008 358.791 248.569 358.791 248.028C358.791 247.487 358.352 247.049 357.811 247.049Z" fill="white"/>
<path d="M363.596 247.049H361.811C361.27 247.049 360.831 247.487 360.831 248.028C360.831 248.569 361.27 249.008 361.811 249.008H363.596C364.138 249.008 364.577 248.569 364.577 248.028C364.577 247.487 364.138 247.049 363.596 247.049Z" fill="white"/>
<path d="M352.257 247.212H341.16C340.619 247.212 340.18 247.651 340.18 248.192C340.18 248.732 340.619 249.171 341.16 249.171H352.257C352.798 249.171 353.237 248.732 353.237 248.192C353.237 247.651 352.798 247.212 352.257 247.212Z" fill="white"/>
<path d="M342.837 242.628H341.051C340.51 242.628 340.071 243.067 340.071 243.608C340.071 244.149 340.51 244.587 341.051 244.587H342.837C343.378 244.587 343.817 244.149 343.817 243.608C343.817 243.067 343.378 242.628 342.837 242.628Z" fill="white"/>
<path d="M363.256 242.628H361.471C360.929 242.628 360.491 243.067 360.491 243.608C360.491 244.149 360.929 244.587 361.471 244.587H363.256C363.797 244.587 364.236 244.149 364.236 243.608C364.236 243.067 363.797 242.628 363.256 242.628Z" fill="white"/>
<path d="M369.042 242.628H367.256C366.715 242.628 366.276 243.067 366.276 243.608C366.276 244.149 366.715 244.587 367.256 244.587H369.042C369.583 244.587 370.022 244.149 370.022 243.608C370.022 243.067 369.583 242.628 369.042 242.628Z" fill="white"/>
<path d="M357.702 242.792H346.605C346.064 242.792 345.625 243.23 345.625 243.771C345.625 244.312 346.064 244.75 346.605 244.75H357.702C358.243 244.75 358.682 244.312 358.682 243.771C358.682 243.23 358.243 242.792 357.702 242.792Z" fill="white"/>
<path d="M317.009 307.699L308.628 294.461L334.936 273.506L345.794 261.485C347.205 259.924 349.001 258.759 351.004 258.108C353.006 257.458 355.144 257.343 357.204 257.777C359.264 258.211 361.175 259.177 362.744 260.579C364.314 261.982 365.487 263.771 366.148 265.769C367.127 268.729 366.916 271.953 365.561 274.761C364.205 277.569 361.811 279.741 358.884 280.819L341.713 287.14L317.009 307.699Z" fill="#FFB6B6"/>
<path d="M120.351 211.715V276.055H165.462V211.715C165.463 211.252 165.315 210.802 165.04 210.429C164.766 210.056 164.379 209.781 163.936 209.645C163.728 209.576 163.509 209.542 163.29 209.544H122.53C122.244 209.544 121.961 209.6 121.697 209.708C121.433 209.817 121.193 209.977 120.99 210.179C120.788 210.38 120.628 210.62 120.518 210.883C120.408 211.147 120.352 211.43 120.351 211.715ZM137.956 233.823C137.968 232.554 138.48 231.342 139.382 230.449C140.284 229.556 141.502 229.055 142.772 229.055C144.041 229.055 145.259 229.556 146.161 230.449C147.063 231.342 147.575 232.554 147.587 233.823V241.288C147.581 242.56 147.07 243.777 146.168 244.674C145.266 245.571 144.045 246.075 142.772 246.075C141.499 246.075 140.278 245.571 139.375 244.674C138.473 243.777 137.963 242.56 137.956 241.288V233.823Z" fill="#2F2E41"/>
<path d="M120.213 273.997V280.202C120.214 280.523 120.342 280.831 120.569 281.059C120.796 281.287 121.103 281.416 121.425 281.419H164.388C164.71 281.417 165.019 281.288 165.246 281.06C165.473 280.832 165.6 280.524 165.6 280.202V273.997H120.213Z" fill="#3F3D56"/>
<path d="M49.3862 114.779V232.254C49.3874 233.751 49.9831 235.187 51.0425 236.245C52.1019 237.304 53.5385 237.899 55.0368 237.9H229.263C230.762 237.899 232.198 237.304 233.258 236.245C234.317 235.187 234.913 233.751 234.914 232.254V114.779C234.91 113.283 234.314 111.849 233.255 110.792C232.196 109.735 230.76 109.141 229.263 109.139H55.0368C53.5398 109.141 52.1046 109.735 51.0455 110.792C49.9864 111.85 49.3897 113.283 49.3862 114.779Z" fill="#3F3D56"/>
<path d="M53.4734 116.24V230.805C53.4748 231.605 53.7934 232.372 54.3595 232.937C54.9255 233.503 55.6929 233.821 56.4934 233.823H227.813C228.614 233.821 229.381 233.503 229.947 232.937C230.513 232.372 230.832 231.605 230.833 230.805V116.24C230.833 115.439 230.515 114.671 229.949 114.104C229.383 113.538 228.615 113.218 227.813 113.216H56.4934C55.6919 113.218 54.9238 113.538 54.3577 114.104C53.7915 114.671 53.4735 115.439 53.4734 116.24Z" fill="white"/>
<path d="M85.2674 280.999C85.4418 281.217 85.6635 281.393 85.9158 281.514C86.168 281.634 86.4444 281.696 86.7241 281.695H188.648C188.927 281.695 189.202 281.632 189.454 281.512C189.705 281.392 189.927 281.218 190.102 281.001C190.278 280.785 190.403 280.532 190.469 280.262C190.534 279.991 190.539 279.709 190.482 279.436L188.899 271.927C188.834 271.621 188.693 271.336 188.489 271.098C188.285 270.86 188.024 270.677 187.732 270.566C187.52 270.483 187.294 270.44 187.066 270.44H88.2999C88.0722 270.44 87.8464 270.483 87.6344 270.566C87.3416 270.677 87.0813 270.86 86.8774 271.098C86.6734 271.336 86.5322 271.621 86.4666 271.927L84.8845 279.436C84.8282 279.709 84.8333 279.99 84.8996 280.261C84.9658 280.531 85.0915 280.783 85.2674 280.999Z" fill="#2F2E41"/>
<path d="M222.253 128.998H61.95C61.7834 128.995 61.6249 128.926 61.5083 128.807C61.3918 128.688 61.3266 128.528 61.3266 128.361C61.3266 128.195 61.3918 128.035 61.5083 127.916C61.6249 127.797 61.7834 127.728 61.95 127.724H222.253C222.42 127.728 222.578 127.797 222.695 127.916C222.811 128.035 222.877 128.195 222.877 128.361C222.877 128.528 222.811 128.688 222.695 128.807C222.578 128.926 222.42 128.995 222.253 128.998Z" fill="#3F3D56"/>
<path d="M72.8621 124.472C74.9254 124.472 76.598 122.764 76.598 120.656C76.598 118.548 74.9254 116.84 72.8621 116.84C70.7988 116.84 69.1262 118.548 69.1262 120.656C69.1262 122.764 70.7988 124.472 72.8621 124.472Z" fill="#3F3D56"/>
<path d="M85.7681 124.472C87.8314 124.472 89.504 122.764 89.504 120.656C89.504 118.548 87.8314 116.84 85.7681 116.84C83.7048 116.84 82.0321 118.548 82.0321 120.656C82.0321 122.764 83.7048 124.472 85.7681 124.472Z" fill="#3F3D56"/>
<path d="M98.674 124.472C100.737 124.472 102.41 122.764 102.41 120.656C102.41 118.548 100.737 116.84 98.674 116.84C96.6107 116.84 94.9381 118.548 94.9381 120.656C94.9381 122.764 96.6107 124.472 98.674 124.472Z" fill="#3F3D56"/>
<path d="M214.482 117.784H205.315C205.134 117.788 204.962 117.863 204.835 117.992C204.708 118.122 204.637 118.296 204.637 118.477C204.637 118.658 204.708 118.832 204.835 118.961C204.962 119.091 205.134 119.166 205.315 119.17H214.482C214.664 119.167 214.838 119.093 214.966 118.964C215.094 118.834 215.166 118.659 215.166 118.477C215.166 118.295 215.094 118.12 214.966 117.99C214.838 117.86 214.664 117.786 214.482 117.784Z" fill="#3F3D56"/>
<path d="M214.482 120.387H205.315C205.134 120.391 204.961 120.466 204.834 120.595C204.708 120.725 204.637 120.899 204.637 121.08C204.637 121.261 204.708 121.436 204.834 121.565C204.961 121.695 205.134 121.769 205.315 121.773H214.482C214.664 121.771 214.839 121.697 214.967 121.567C215.095 121.438 215.167 121.263 215.167 121.08C215.167 120.898 215.095 120.723 214.967 120.593C214.839 120.463 214.664 120.389 214.482 120.387Z" fill="#3F3D56"/>
<path d="M214.482 122.99H205.315C205.134 122.995 204.962 123.07 204.835 123.199C204.708 123.329 204.637 123.503 204.637 123.684C204.637 123.865 204.708 124.039 204.835 124.168C204.962 124.298 205.134 124.373 205.315 124.377H214.482C214.664 124.374 214.838 124.3 214.966 124.17C215.094 124.041 215.166 123.866 215.166 123.684C215.166 123.502 215.094 123.327 214.966 123.197C214.838 123.067 214.664 122.993 214.482 122.99Z" fill="#3F3D56"/>
<path d="M435.47 276.72C435.746 277.525 436.271 278.222 436.969 278.71C437.666 279.198 438.5 279.453 439.352 279.437L455.985 279.01C456.842 278.993 457.671 278.699 458.348 278.173C459.025 277.646 459.513 276.915 459.74 276.088L462.093 250.94C462.928 251.318 463.837 251.505 464.754 251.486C465.55 251.466 466.335 251.29 467.063 250.967C467.791 250.644 468.448 250.181 468.997 249.604C469.546 249.027 469.976 248.348 470.262 247.605C470.549 246.863 470.686 246.071 470.666 245.275C470.646 244.479 470.469 243.695 470.146 242.968C469.823 242.24 469.359 241.584 468.782 241.035C468.205 240.487 467.525 240.057 466.782 239.771C466.038 239.485 465.246 239.348 464.45 239.368C464.083 239.367 463.718 239.405 463.36 239.481C462.97 239.06 462.496 238.725 461.969 238.498C461.442 238.271 460.873 238.156 460.299 238.162L434.714 238.822C434.502 238.83 434.291 238.856 434.083 238.901C433.522 239.005 432.99 239.228 432.523 239.556C432.055 239.883 431.663 240.306 431.374 240.798C431.084 241.289 430.902 241.836 430.842 242.404C430.782 242.971 430.844 243.544 431.024 244.085L435.47 276.72ZM462.576 249.232L464.251 243.24C464.441 242.547 464.446 241.817 464.264 241.123C464.345 241.122 464.417 241.084 464.498 241.084C465.646 241.06 466.757 241.492 467.587 242.286C468.417 243.079 468.898 244.169 468.925 245.316C468.952 246.464 468.522 247.575 467.731 248.407C466.939 249.238 465.849 249.722 464.701 249.752C463.959 249.775 463.224 249.595 462.576 249.232Z" fill="#2F2E41"/>
<path d="M434.083 238.9C434.628 242.015 440.757 244.204 448.126 243.823C454.902 243.511 460.442 241.134 461.457 238.316C461.082 238.205 460.691 238.153 460.299 238.162L434.714 238.822C434.502 238.83 434.291 238.856 434.083 238.9Z" fill="#3F3D56"/>
<path d="M449.476 262.901C449.51 262.893 449.542 262.879 449.571 262.859L453.183 260.497C453.227 260.469 453.262 260.43 453.287 260.384C453.312 260.338 453.325 260.287 453.325 260.235C453.325 260.183 453.312 260.132 453.287 260.086C453.263 260.04 453.227 260.001 453.183 259.973L449.429 257.515C449.394 257.493 449.356 257.477 449.315 257.469C449.275 257.461 449.233 257.461 449.192 257.47C449.152 257.478 449.113 257.494 449.079 257.518C449.045 257.541 449.016 257.57 448.993 257.605C448.971 257.64 448.955 257.678 448.947 257.719C448.94 257.759 448.94 257.801 448.949 257.841C448.957 257.882 448.974 257.92 448.997 257.954C449.02 257.988 449.05 258.017 449.085 258.04L452.438 260.234L449.227 262.335C449.165 262.375 449.119 262.437 449.098 262.508C449.077 262.579 449.082 262.655 449.112 262.723C449.141 262.791 449.194 262.846 449.261 262.879C449.328 262.911 449.404 262.919 449.476 262.901Z" fill="#EE0979"/>
<path d="M443.771 263.164C443.832 263.149 443.886 263.116 443.928 263.069C443.97 263.023 443.996 262.965 444.005 262.903C444.013 262.841 444.003 262.778 443.976 262.722C443.948 262.666 443.904 262.619 443.85 262.588L440.521 260.681L443.739 258.292C443.772 258.268 443.8 258.237 443.821 258.201C443.842 258.166 443.856 258.127 443.862 258.086C443.868 258.046 443.866 258.004 443.856 257.964C443.846 257.924 443.828 257.887 443.803 257.854C443.779 257.821 443.748 257.793 443.713 257.772C443.677 257.75 443.638 257.736 443.597 257.73C443.557 257.724 443.515 257.727 443.475 257.737C443.435 257.747 443.398 257.764 443.365 257.789L439.762 260.463C439.72 260.494 439.686 260.535 439.664 260.582C439.642 260.629 439.632 260.681 439.635 260.733C439.638 260.785 439.654 260.836 439.682 260.88C439.709 260.924 439.747 260.961 439.792 260.987L443.538 263.132C443.608 263.173 443.692 263.184 443.771 263.164Z" fill="#EE0979"/>
<path d="M449.117 264.971C449.147 264.964 449.176 264.952 449.203 264.935C449.238 264.914 449.269 264.886 449.293 264.852C449.318 264.819 449.335 264.781 449.345 264.741C449.355 264.701 449.356 264.66 449.35 264.619C449.344 264.578 449.329 264.539 449.308 264.504L444.188 256.092C444.144 256.021 444.074 255.971 443.994 255.951C443.913 255.932 443.827 255.945 443.756 255.988C443.685 256.031 443.634 256.101 443.615 256.182C443.595 256.263 443.608 256.348 443.651 256.419L448.772 264.831C448.807 264.888 448.859 264.932 448.921 264.958C448.983 264.983 449.052 264.988 449.117 264.971Z" fill="#EE0979"/>
<path d="M161.255 163.627H133.51C132.378 163.627 131.461 164.544 131.461 165.675V168.383C131.461 169.514 132.378 170.431 133.51 170.431H161.255C162.387 170.431 163.304 169.514 163.304 168.383V165.675C163.304 164.544 162.387 163.627 161.255 163.627Z" fill="url(#paint1_linear_94_349)"/>
<path d="M177.427 177.235H117.338C116.206 177.235 115.288 178.152 115.288 179.283V181.991C115.288 183.122 116.206 184.039 117.338 184.039H177.427C178.559 184.039 179.477 183.122 179.477 181.991V179.283C179.477 178.152 178.559 177.235 177.427 177.235Z" fill="#E6E6E6"/>
<path d="M177.427 190.843H117.338C116.206 190.843 115.288 191.76 115.288 192.891V195.599C115.288 196.73 116.206 197.647 117.338 197.647H177.427C178.559 197.647 179.477 196.73 179.477 195.599V192.891C179.477 191.76 178.559 190.843 177.427 190.843Z" fill="#E6E6E6"/>
<path d="M182.521 236.41L182.657 236.84L182.664 236.854L186.761 249.299L191.474 263.641L200.341 290.592L200.427 294.779V294.793L201.086 328.471L199.259 333.037L201.315 340.523C201.315 340.523 200.369 329.208 195.299 335.706C192.427 339.398 189.068 343.177 186.31 346.72C190.328 348.344 194.411 349.814 198.557 351.128C199.453 351.414 200.355 351.686 201.258 351.958C201.451 352.015 201.644 352.073 201.838 352.13C215.584 356.192 229.796 358.474 244.124 358.921C244.868 358.943 245.599 358.957 246.308 358.971C246.559 358.979 246.802 358.986 247.046 358.986C247.848 358.993 248.643 359 249.445 359C251.064 359 252.675 358.976 254.28 358.928C266.154 358.594 277.959 356.999 289.496 354.169C289.418 349.41 289.203 343.85 288.895 337.91C288.751 334.997 285.536 331.841 285.342 328.793C285.206 326.502 288.093 324.348 287.942 322.022C286.968 307.702 285.75 313.199 284.848 303.059C284.755 302.064 284.669 301.112 284.59 300.203C284.01 293.691 283.609 289.619 283.609 289.619L287.462 265.351L293.514 227.25L293.049 226.484L292.526 226.227L260.604 210.44L258.871 206.002C258.366 204.724 257.489 203.626 256.355 202.849C255.22 202.073 253.879 201.653 252.503 201.644L231.475 201.558C230.384 201.553 229.307 201.809 228.334 202.303C227.361 202.797 226.521 203.516 225.881 204.399L220.187 212.279L182.521 236.41Z" fill="#3F3D56"/>
<path d="M205.19 284.595L200.427 294.779L197.175 301.735L191.581 330.998L188.781 333.968L186.382 323.454L161.269 329.025C160.446 324.452 161.049 329.18 160.54 324.163C160.684 324.02 160.834 323.877 160.984 323.734C161.385 323.362 161.722 323.011 161.715 322.675C161.428 305.37 162.288 275.921 169.464 258.08C170.588 255.167 172.07 252.405 173.876 249.857C174.02 249.664 174.156 249.471 174.292 249.278C177.601 244.647 179.692 240.089 182.657 236.847V236.84C182.676 236.825 182.693 236.808 182.707 236.79C182.718 236.784 182.728 236.777 182.736 236.768L203.105 225.976L203.979 250.509L204.602 268.142L205.19 284.595Z" fill="#3F3D56"/>
<path d="M278.638 287.487L284.587 300.207L286.664 304.636L292.256 333.896L295.047 336.859L297.452 326.348L298.582 326.116L318.961 321.899L324.901 340.748C326.239 338.52 326.767 335.897 326.394 333.325C326.021 330.752 324.77 328.387 322.853 326.63C322.448 326.263 322.11 325.906 322.119 325.568C322.457 305.215 321.211 268.051 309.96 252.755C306.386 247.901 304.242 243.066 301.122 239.689C301.113 239.679 301.113 239.669 301.103 239.669L293.512 227.249L293.048 226.487L292.526 226.226L278.638 287.487Z" fill="#3F3D56"/>
<path d="M242.597 195.579C258.047 195.579 270.572 183.064 270.572 167.625C270.572 152.187 258.047 139.672 242.597 139.672C227.146 139.672 214.621 152.187 214.621 167.625C214.621 183.064 227.146 195.579 242.597 195.579Z" fill="#FFB6B6"/>
<path d="M280.409 148.1C280.192 147.869 279.931 147.683 279.641 147.555C279.35 147.427 279.037 147.358 278.72 147.354L279.141 146.187C279.278 145.819 279.315 145.422 279.248 145.035C279.181 144.649 279.013 144.287 278.76 143.987C278.507 143.687 278.178 143.46 277.808 143.328C277.439 143.197 277.04 143.166 276.655 143.238L275.123 143.533L275.267 142.511C275.322 142.13 275.278 141.741 275.137 141.383C274.996 141.025 274.765 140.709 274.465 140.467C274.166 140.225 273.808 140.066 273.428 140.004C273.048 139.942 272.658 139.98 272.297 140.114C271.969 140.243 271.616 140.298 271.264 140.273C270.912 140.248 270.57 140.144 270.263 139.97C269.955 139.801 269.688 139.567 269.479 139.284C269.271 139.002 269.127 138.677 269.058 138.333L268.524 135.761L268.467 135.623C265.868 131.294 260.871 128.145 254.755 126.99C249.312 125.955 243.73 126.482 238.35 126.978C236.215 127.179 233.804 127.404 231.795 128.634C230.087 129.688 228.643 131.796 228.938 133.922C223.633 132.298 217.945 135.541 215.126 139.631C211.786 144.499 211.239 150.597 211.152 155.365C210.913 166.644 213.242 175.873 218.058 182.798C218.409 183.3 218.497 184.348 219.194 184.699L219.05 184.467C219.828 184.856 220.619 185.483 220.324 186.155C219.477 188.087 225.109 192.359 229.076 193.771C236.316 196.349 245.94 196.129 252.709 195.201L252.947 193.601C255.389 193.269 257.11 192.635 257.593 191.644C258.447 190.916 259.175 190.264 259.809 189.662L259.816 189.655C259.828 189.643 259.853 189.624 259.866 189.611C262.924 186.682 263.633 185.013 263.953 182.472C264.261 179.982 263.715 177.454 263.156 175.176C274.922 176.996 258.522 162.655 269.484 159.882C269.61 159.843 269.738 159.812 269.867 159.788C270.188 159.712 270.508 159.637 270.816 159.549C272.298 159.147 273.718 158.541 275.035 157.749C278.099 155.886 279.109 153.414 280.692 150.629C280.92 150.232 281.016 149.773 280.965 149.318C280.914 148.863 280.719 148.437 280.409 148.1Z" fill="#2F2E41"/>
<path d="M341.542 289.478C341.536 290.575 341.523 292.112 341.473 294.013C341.467 294.277 341.461 294.546 341.454 294.823C341.373 298.317 341.291 301.246 341.159 304.502C341.153 304.728 341.147 304.948 341.134 305.174C340.958 309.716 340.682 315.004 340.205 323.379C339.32 338.849 337.775 325.506 336.224 330.932C336.149 331.202 336.067 331.522 335.992 331.898C335.757 333.264 335.361 334.597 334.812 335.869C333.989 336.359 333.142 336.829 332.307 337.3C329.927 338.623 327.51 339.897 325.074 341.108C323.705 341.785 322.33 342.45 320.949 343.09C320.729 343.19 320.516 343.291 320.302 343.385C313.229 346.654 305.939 349.433 298.485 351.703C297.028 352.143 295.578 352.569 294.109 352.964C292.577 353.391 291.045 353.792 289.494 354.169C277.957 356.999 266.152 358.595 254.278 358.93C252.677 358.981 251.064 358.999 249.444 358.999C248.64 358.999 247.849 358.993 247.045 358.987C246.801 358.987 246.556 358.981 246.311 358.974C245.601 358.955 244.867 358.943 244.126 358.924C229.798 358.478 215.587 356.194 201.841 352.13L201.257 351.961C200.353 351.685 199.455 351.415 198.557 351.126C194.413 349.815 190.33 348.347 186.308 346.722C183.238 345.486 180.203 344.161 177.204 342.745C177.177 342.738 177.151 342.725 177.129 342.707C176.501 342.419 175.867 342.118 175.239 341.81C175.157 341.766 175.069 341.722 174.982 341.679C172.64 340.537 170.323 339.341 168.031 338.09C166.104 333.667 163.391 332.82 161.709 328.931C161.219 327.775 160.865 326.567 160.654 325.33C160.654 325.317 160.648 325.305 160.648 325.286C160.824 327.62 159.901 321.146 160.642 325.261C160.635 325.186 160.629 325.104 160.623 325.01C160.604 324.784 160.579 324.508 160.541 324.163C158.388 303.154 158.526 279.127 157.59 259.328C157.527 258.048 157.463 256.822 157.396 255.651C157.377 255.262 157.352 254.88 157.327 254.503C157.37 254.39 157.421 254.271 157.477 254.158C157.489 254.126 157.504 254.094 157.521 254.064C157.54 254.025 157.561 253.988 157.584 253.951C157.597 253.933 157.615 253.907 157.628 253.889C157.637 253.867 157.648 253.846 157.659 253.826C157.716 253.738 157.779 253.644 157.848 253.556C157.879 253.518 157.904 253.487 157.936 253.456C157.957 253.424 157.983 253.394 158.011 253.368C158.03 253.338 158.053 253.31 158.08 253.286C158.105 253.261 158.13 253.23 158.162 253.199C158.175 253.179 158.192 253.162 158.212 253.148C158.261 253.091 158.316 253.039 158.375 252.992C158.599 252.786 158.838 252.597 159.091 252.427C159.179 252.37 159.273 252.314 159.361 252.251C159.993 251.873 160.66 251.554 161.351 251.298C161.59 251.21 161.828 251.128 162.086 251.041C162.18 251.015 162.268 250.984 162.362 250.953C162.5 250.909 162.638 250.865 162.783 250.833C163.498 250.62 164.27 250.438 165.106 250.269C165.206 250.25 165.313 250.231 165.419 250.206C165.57 250.175 165.727 250.15 165.884 250.125C166.098 250.087 166.317 250.049 166.537 250.012C168.402 249.717 170.518 249.497 172.853 249.353C173.073 249.34 173.293 249.328 173.512 249.315C173.77 249.303 174.027 249.29 174.291 249.278C174.511 249.265 174.737 249.259 174.963 249.253C175.182 249.24 175.408 249.234 175.641 249.228C176.275 249.209 176.928 249.19 177.593 249.177C179.489 249.14 181.486 249.152 183.583 249.196C184.556 249.221 185.548 249.246 186.565 249.29C186.634 249.29 186.697 249.297 186.76 249.297C187.645 249.328 188.537 249.366 189.453 249.416C190.094 249.447 190.74 249.478 191.387 249.516C191.996 249.554 192.611 249.591 193.233 249.635C193.716 249.66 194.2 249.698 194.689 249.729C195.104 249.761 195.518 249.792 195.933 249.817L196.498 249.855C196.805 249.88 197.113 249.899 197.427 249.93C198.118 249.987 198.808 250.043 199.511 250.1C200.208 250.162 200.918 250.225 201.627 250.288C202.337 250.35 203.052 250.419 203.768 250.488C203.843 250.495 203.913 250.501 203.982 250.507C204.635 250.576 205.288 250.639 205.947 250.708C206.097 250.721 206.254 250.733 206.405 250.752C207.034 250.815 207.674 250.889 208.309 250.956C208.503 250.977 208.697 250.998 208.892 251.019C209.389 251.073 209.879 251.12 210.379 251.179C211.038 251.254 211.71 251.323 212.363 251.411C212.872 251.467 213.38 251.524 213.889 251.586C214.686 251.68 215.496 251.781 216.306 251.887C216.614 251.925 216.921 251.963 217.229 252.007C219.539 252.295 221.875 252.615 224.248 252.948C227.846 253.456 231.5 254.008 235.179 254.604C238.865 255.2 242.571 255.829 246.298 256.492C247.24 256.661 248.182 256.831 249.13 257.006C249.557 257.088 249.984 257.17 250.411 257.251C251.139 257.383 251.867 257.521 252.595 257.659C253.324 257.797 254.052 257.935 254.78 258.079C255.647 258.249 256.519 258.418 257.386 258.587C263.093 259.717 268.769 260.921 274.306 262.182C275.217 262.389 276.127 262.602 277.031 262.809C278.839 263.23 280.631 263.656 282.405 264.089C282.895 264.202 283.379 264.321 283.862 264.44C285.068 264.742 286.273 265.043 287.46 265.35L287.667 265.407C288.54 265.62 289.393 265.839 290.247 266.065C292.263 266.592 294.245 267.125 296.193 267.665C297.486 268.023 298.765 268.384 300.029 268.75C301.919 269.296 303.771 269.848 305.573 270.406C306.019 270.544 306.464 270.682 306.904 270.814C308.222 271.222 309.522 271.636 310.784 272.05C311.789 272.376 312.768 272.709 313.735 273.041C314.702 273.374 315.65 273.706 316.579 274.039C317.175 274.252 317.766 274.478 318.356 274.691C319.203 275.005 320.038 275.319 320.855 275.632C321.106 275.726 321.351 275.827 321.595 275.921C321.752 275.99 321.903 276.046 322.054 276.109C322.349 276.228 322.65 276.341 322.939 276.46C323.234 276.573 323.523 276.692 323.812 276.818C324.094 276.931 324.383 277.05 324.659 277.169C324.942 277.282 325.218 277.401 325.494 277.527C325.727 277.621 325.953 277.721 326.172 277.822C326.618 278.016 327.064 278.211 327.497 278.411C327.711 278.512 327.924 278.606 328.138 278.706L328.627 278.932C328.696 278.97 328.765 279.001 328.835 279.032C328.991 279.108 329.155 279.189 329.312 279.264C329.676 279.434 330.034 279.616 330.385 279.785C330.856 280.024 331.315 280.262 331.754 280.494C332.2 280.732 332.633 280.971 333.047 281.203C333.116 281.241 333.179 281.278 333.248 281.316C333.342 281.366 333.437 281.423 333.531 281.473C333.851 281.655 334.159 281.843 334.466 282.025C335.069 282.395 335.64 282.759 336.174 283.123C336.293 283.204 336.406 283.286 336.526 283.361C336.921 283.643 337.298 283.919 337.649 284.202C337.649 284.208 337.649 284.208 337.656 284.208C337.775 284.296 337.888 284.39 338.001 284.478C338.095 284.565 338.196 284.641 338.29 284.729C338.616 285.011 338.918 285.281 339.194 285.557C339.287 285.642 339.375 285.732 339.458 285.826C339.494 285.857 339.528 285.89 339.558 285.927C339.684 286.052 339.797 286.178 339.903 286.303C339.92 286.32 339.935 286.339 339.947 286.36C340.098 286.535 340.236 286.711 340.368 286.887C340.431 286.974 340.5 287.062 340.556 287.15C340.632 287.257 340.707 287.37 340.77 287.476C340.826 287.564 340.877 287.658 340.927 287.746C341.06 287.972 341.173 288.209 341.266 288.455C341.336 288.622 341.393 288.794 341.435 288.969C341.483 289.136 341.519 289.306 341.542 289.478Z" fill="#2F2E41"/>
<path opacity="0.2" d="M341.542 289.478C341.536 290.575 341.523 292.112 341.473 294.013C341.467 294.277 341.454 294.546 341.448 294.823C341.385 297.489 341.291 300.782 341.159 304.502C341.153 304.728 341.147 304.948 341.134 305.174C340.958 309.716 340.682 315.004 340.205 323.379C339.32 338.849 337.775 325.506 336.224 330.932C331.917 328.285 327.196 325.512 322.148 322.664C321.238 322.149 320.319 321.633 319.392 321.114C309.296 315.487 298.02 309.59 286.248 303.75C285.783 303.517 285.312 303.285 284.848 303.059C257.882 289.741 228.449 276.787 204.603 268.142C200.001 266.473 195.606 264.967 191.475 263.644C182.773 260.865 175.251 258.92 169.463 258.079C163.435 257.201 159.273 257.515 157.59 259.328C157.527 258.048 157.462 256.822 157.396 255.651C157.37 255.262 157.345 254.88 157.32 254.503C157.359 254.4 157.409 254.302 157.458 254.202C157.465 254.188 157.47 254.173 157.477 254.158C157.489 254.126 157.504 254.094 157.521 254.064C157.54 254.025 157.561 253.988 157.584 253.951C157.604 253.907 157.63 253.865 157.659 253.826C157.716 253.738 157.779 253.644 157.848 253.556C157.898 253.49 157.953 253.427 158.011 253.368C158.03 253.338 158.053 253.31 158.08 253.286C158.105 253.261 158.13 253.23 158.161 253.199C158.175 253.179 158.192 253.162 158.212 253.148C158.261 253.091 158.316 253.039 158.375 252.992C158.599 252.786 158.838 252.597 159.091 252.427C159.179 252.37 159.273 252.314 159.361 252.251C159.993 251.873 160.66 251.554 161.351 251.298C161.59 251.21 161.828 251.128 162.086 251.04C162.18 251.015 162.268 250.984 162.362 250.953C162.5 250.909 162.638 250.865 162.782 250.833C163.498 250.62 164.27 250.438 165.105 250.269C165.357 250.219 165.62 250.168 165.884 250.125C166.097 250.087 166.317 250.049 166.537 250.012C168.402 249.717 170.517 249.497 172.853 249.353C173.073 249.34 173.293 249.328 173.512 249.315C173.77 249.303 174.027 249.29 174.291 249.278C174.511 249.265 174.737 249.259 174.963 249.253C175.182 249.24 175.408 249.234 175.641 249.227C176.275 249.209 176.928 249.19 177.593 249.177C179.489 249.146 181.486 249.158 183.583 249.202C184.556 249.221 185.548 249.253 186.565 249.296C186.628 249.296 186.697 249.303 186.76 249.303C187.645 249.328 188.543 249.372 189.453 249.416C190.094 249.447 190.74 249.478 191.387 249.516C191.996 249.554 192.611 249.591 193.233 249.635C193.716 249.66 194.2 249.698 194.689 249.729C195.104 249.761 195.518 249.792 195.933 249.817C196.429 249.855 196.925 249.892 197.427 249.93C198.117 249.987 198.808 250.043 199.511 250.099C200.208 250.162 200.918 250.225 201.627 250.288C202.337 250.35 203.052 250.419 203.768 250.488C203.843 250.495 203.912 250.501 203.982 250.507C204.634 250.576 205.287 250.639 205.947 250.708C209.601 251.078 213.361 251.511 217.229 252.007C219.539 252.301 221.879 252.617 224.248 252.954C227.846 253.462 231.5 254.014 235.179 254.604C238.865 255.2 242.571 255.829 246.298 256.492C247.24 256.661 248.182 256.831 249.13 257.006C250.285 257.22 251.44 257.437 252.595 257.659C253.324 257.797 254.052 257.935 254.78 258.079C255.647 258.249 256.519 258.418 257.386 258.587C263.093 259.717 268.769 260.921 274.306 262.182C275.217 262.389 276.127 262.602 277.031 262.809C278.839 263.23 280.631 263.656 282.405 264.089C282.895 264.208 283.379 264.328 283.862 264.447C285.074 264.748 286.273 265.049 287.46 265.35V265.356C287.529 265.369 287.598 265.388 287.667 265.407C288.533 265.626 289.393 265.846 290.247 266.072C292.263 266.598 294.245 267.13 296.193 267.665C297.486 268.029 298.767 268.386 300.029 268.75C301.919 269.302 303.771 269.854 305.573 270.406C306.019 270.544 306.464 270.682 306.904 270.814C308.222 271.228 309.516 271.64 310.784 272.05C311.789 272.376 312.768 272.709 313.735 273.041C314.702 273.374 315.65 273.706 316.579 274.039C317.182 274.252 317.772 274.472 318.356 274.685C319.21 274.999 320.038 275.312 320.855 275.632C321.106 275.726 321.351 275.827 321.595 275.921C322.054 276.096 322.5 276.278 322.939 276.46C323.234 276.573 323.523 276.692 323.812 276.818C324.094 276.931 324.383 277.05 324.659 277.169C324.942 277.282 325.218 277.401 325.494 277.527C325.727 277.621 325.953 277.721 326.172 277.822C326.618 278.016 327.064 278.211 327.497 278.411C327.711 278.512 327.924 278.606 328.138 278.706L328.627 278.932C328.696 278.97 328.765 279.001 328.835 279.032C329.368 279.283 329.883 279.534 330.385 279.785C330.856 280.024 331.315 280.262 331.754 280.494C332.275 280.77 332.771 281.04 333.248 281.316C333.342 281.366 333.437 281.423 333.531 281.473C333.851 281.655 334.159 281.843 334.466 282.025C335.069 282.395 335.64 282.759 336.174 283.123C336.701 283.486 337.191 283.844 337.649 284.202C337.649 284.208 337.649 284.208 337.656 284.208C337.875 284.384 338.089 284.559 338.29 284.729C338.616 285.011 338.918 285.281 339.194 285.557C339.287 285.642 339.375 285.732 339.458 285.826C339.494 285.857 339.528 285.89 339.558 285.927C339.69 286.071 339.822 286.215 339.947 286.36C340.098 286.535 340.236 286.711 340.368 286.887C340.431 286.974 340.5 287.062 340.556 287.15C340.632 287.257 340.707 287.37 340.77 287.476C340.826 287.564 340.877 287.658 340.927 287.746C341.06 287.972 341.173 288.209 341.266 288.455C341.335 288.622 341.391 288.794 341.435 288.969C341.483 289.136 341.519 289.306 341.542 289.478Z" fill="black"/>
</g>
<defs>
<linearGradient id="paint0_linear_94_349" x1="313" y1="241" x2="394" y2="241" gradientUnits="userSpaceOnUse">
<stop stop-color="#EE0979"/>
<stop offset="1" stop-color="#FF6A00"/>
</linearGradient>
<linearGradient id="paint1_linear_94_349" x1="131" y1="167" x2="163" y2="167" gradientUnits="userSpaceOnUse">
<stop stop-color="#EE0979"/>
<stop offset="1" stop-color="#FF6A00"/>
</linearGradient>
<clipPath id="clip0_94_349">
<rect width="494" height="359" fill="white"/>
</clipPath>
</defs>
</svg>
