<svg width="626" height="310" viewBox="0 0 626 310" fill="none" xmlns="http://www.w3.org/2000/svg">
<path d="M548.998 0H121.931V309.999H548.998V0Z" fill="white"/>
<path d="M143.406 272.173C144.954 259.725 152.669 247.461 164.54 243.41C159.86 256.219 159.86 270.281 164.543 283.089C166.367 288.024 168.91 293.322 167.194 298.295C166.126 301.389 163.514 303.757 160.595 305.237C157.676 306.718 154.435 307.423 151.236 308.115L150.606 308.636C145.527 297.166 141.858 284.621 143.406 272.173Z" fill="#F0F0F0"/>
<path d="M164.658 243.645C157.746 251.39 153.447 261.121 152.378 271.446C152.108 273.666 152.189 275.913 152.62 278.107C153.107 280.23 154.155 282.185 155.654 283.766C157.022 285.269 158.594 286.648 159.573 288.456C160.558 290.344 160.691 292.564 159.938 294.555C159.074 297.033 157.371 299.053 155.638 300.971C153.712 303.099 151.679 305.28 150.86 308.103C150.761 308.444 150.236 308.271 150.336 307.929C151.759 303.019 156.526 300.23 158.799 295.807C159.86 293.743 160.305 291.347 159.311 289.169C158.441 287.264 156.821 285.841 155.422 284.331C153.938 282.81 152.848 280.948 152.249 278.908C151.708 276.744 151.54 274.502 151.752 272.282C152.148 267.273 153.329 262.359 155.252 257.718C157.417 252.409 160.475 247.509 164.292 243.231C164.528 242.966 164.893 243.382 164.658 243.645Z" fill="white"/>
<path d="M152.527 268.101C149.013 267.248 146.611 263.942 146.885 260.337C146.913 259.983 147.465 260.01 147.437 260.365C147.176 263.723 149.423 266.801 152.7 267.576C153.045 267.658 152.87 268.183 152.527 268.101Z" fill="white"/>
<path d="M154.86 283.095C157.944 281.254 160.224 278.314 161.239 274.869C161.339 274.527 161.864 274.7 161.764 275.042C160.701 278.626 158.322 281.68 155.109 283.589C154.802 283.771 154.555 283.276 154.86 283.095Z" fill="white"/>
<path d="M157.93 252.932C159.204 253.537 160.7 253.461 161.906 252.73C162.21 252.544 162.457 253.04 162.154 253.224C160.819 254.025 159.169 254.113 157.757 253.457C157.616 253.405 157.539 253.252 157.581 253.108C157.629 252.965 157.786 252.885 157.93 252.932Z" fill="white"/>
<path d="M200.726 265.643C200.539 265.764 200.352 265.886 200.166 266.012C197.666 267.656 195.303 269.501 193.102 271.527C192.929 271.681 192.757 271.84 192.589 271.998C187.337 276.937 183.048 282.809 179.939 289.314C178.705 291.903 177.669 294.583 176.841 297.33C175.697 301.123 174.76 305.327 172.497 308.43C172.264 308.757 172.012 309.068 171.741 309.363H151.29C151.244 309.34 151.197 309.321 151.15 309.298L150.334 309.335C150.367 309.191 150.404 309.041 150.436 308.897C150.455 308.813 150.478 308.728 150.497 308.644C150.511 308.588 150.525 308.532 150.534 308.481C150.539 308.462 150.544 308.444 150.548 308.43C150.558 308.379 150.572 308.332 150.581 308.285C150.786 307.45 150.998 306.615 151.216 305.78C151.216 305.775 151.216 305.775 151.22 305.77C152.818 299.391 155.168 293.222 158.219 287.396C158.312 287.223 158.406 287.046 158.508 286.874C159.921 284.294 161.543 281.835 163.356 279.52C164.353 278.255 165.414 277.042 166.534 275.885C169.433 272.901 172.784 270.391 176.463 268.447C183.798 264.575 192.29 263.091 200.128 265.457C200.329 265.517 200.525 265.578 200.726 265.643Z" fill="#F0F0F0"/>
<path d="M200.68 265.903C190.498 267.925 181.207 273.107 174.136 280.707C172.585 282.316 171.297 284.16 170.319 286.171C169.431 288.16 169.091 290.351 169.335 292.516C169.523 294.54 169.949 296.587 169.64 298.621C169.291 300.721 168.06 302.573 166.26 303.71C164.078 305.169 161.503 305.756 158.964 306.243C156.145 306.784 153.208 307.3 150.856 309.062C150.571 309.275 150.256 308.82 150.541 308.607C154.634 305.544 160.119 306.186 164.597 304.024C166.687 303.015 168.485 301.37 169.002 299.032C169.455 296.987 169.018 294.874 168.81 292.827C168.541 290.719 168.792 288.577 169.541 286.588C170.413 284.534 171.628 282.643 173.134 280.997C176.466 277.237 180.368 274.024 184.697 271.476C189.623 268.54 195.014 266.469 200.637 265.352C200.985 265.282 201.025 265.834 200.68 265.903Z" fill="white"/>
<path d="M176.27 278.125C173.978 275.329 174.05 271.243 176.439 268.53C176.675 268.264 177.1 268.618 176.864 268.884C174.633 271.408 174.574 275.219 176.724 277.81C176.951 278.085 176.495 278.398 176.27 278.125Z" fill="white"/>
<path d="M169.105 291.503C172.677 291.89 176.266 290.915 179.152 288.775C179.438 288.562 179.752 289.017 179.466 289.229C176.46 291.45 172.722 292.457 169.007 292.047C168.653 292.007 168.753 291.464 169.105 291.503Z" fill="white"/>
<path d="M189.717 269.268C190.37 270.517 191.61 271.358 193.013 271.5C193.367 271.535 193.266 272.079 192.914 272.044C191.365 271.879 189.995 270.956 189.262 269.582C189.181 269.457 189.212 269.287 189.332 269.197C189.457 269.112 189.63 269.143 189.717 269.268Z" fill="white"/>
<path d="M511.489 276.576C510.151 265.814 503.481 255.211 493.218 251.709C497.265 262.783 497.264 274.939 493.216 286.012C491.639 290.278 489.441 294.858 490.924 299.157C491.847 301.833 494.105 303.88 496.629 305.16C499.153 306.439 501.954 307.049 504.72 307.647L505.265 308.097C509.655 298.181 512.827 287.336 511.489 276.576Z" fill="#F0F0F0"/>
<path d="M493.116 251.912C499.092 258.609 502.808 267.021 503.733 275.947C503.966 277.866 503.895 279.809 503.524 281.706C503.101 283.541 502.195 285.23 500.9 286.597C499.718 287.897 498.358 289.089 497.512 290.652C496.661 292.284 496.545 294.203 497.197 295.925C497.944 298.067 499.416 299.813 500.914 301.471C502.579 303.311 504.337 305.197 505.044 307.637C505.13 307.933 505.584 307.782 505.498 307.487C504.267 303.242 500.147 300.83 498.181 297.007C497.264 295.223 496.879 293.152 497.739 291.268C498.49 289.621 499.892 288.391 501.1 287.086C502.384 285.771 503.326 284.161 503.844 282.398C504.311 280.526 504.456 278.589 504.274 276.669C503.931 272.34 502.91 268.09 501.247 264.078C499.376 259.488 496.733 255.252 493.433 251.554C493.228 251.325 492.914 251.685 493.116 251.912Z" fill="white"/>
<path d="M503.604 273.055C506.641 272.317 508.718 269.46 508.481 266.343C508.457 266.036 507.979 266.06 508.004 266.367C508.229 269.269 506.287 271.931 503.454 272.601C503.155 272.672 503.306 273.125 503.604 273.055Z" fill="white"/>
<path d="M501.587 286.018C498.92 284.426 496.95 281.884 496.072 278.905C495.985 278.61 495.531 278.76 495.618 279.056C496.537 282.154 498.593 284.794 501.372 286.444C501.637 286.602 501.851 286.174 501.587 286.018Z" fill="white"/>
<path d="M498.932 259.941C497.832 260.465 496.538 260.399 495.495 259.767C495.232 259.606 495.019 260.034 495.281 260.194C496.435 260.886 497.861 260.962 499.083 260.395C499.204 260.351 499.271 260.218 499.234 260.093C499.193 259.969 499.057 259.901 498.932 259.941Z" fill="white"/>
<path d="M461.935 270.93C462.097 271.035 462.258 271.14 462.419 271.249C464.58 272.67 466.623 274.264 468.526 276.017C468.676 276.15 468.825 276.287 468.97 276.424C473.51 280.694 477.218 285.77 479.905 291.394C480.973 293.632 481.868 295.949 482.584 298.323C483.572 301.602 484.383 305.237 486.339 307.92C486.54 308.202 486.759 308.471 486.993 308.727H504.673C504.713 308.706 504.753 308.69 504.794 308.67L505.499 308.702C505.471 308.577 505.439 308.448 505.411 308.323C505.395 308.25 505.374 308.178 505.359 308.105C505.346 308.057 505.334 308.008 505.326 307.964C505.322 307.948 505.318 307.932 505.314 307.92C505.306 307.875 505.294 307.835 505.285 307.794C505.108 307.072 504.926 306.35 504.737 305.628C504.737 305.624 504.737 305.624 504.733 305.62C503.352 300.105 501.321 294.773 498.683 289.736C498.602 289.586 498.521 289.433 498.433 289.284C497.211 287.054 495.809 284.928 494.241 282.927C493.379 281.833 492.462 280.785 491.494 279.784C488.988 277.204 486.091 275.034 482.91 273.355C476.569 270.006 469.228 268.724 462.451 270.769C462.278 270.821 462.109 270.873 461.935 270.93Z" fill="#F0F0F0"/>
<path d="M461.975 271.155C470.777 272.902 478.809 277.382 484.922 283.953C486.263 285.344 487.377 286.939 488.222 288.676C488.99 290.396 489.284 292.291 489.072 294.162C488.911 295.911 488.543 297.682 488.809 299.44C489.111 301.255 490.175 302.857 491.731 303.839C493.617 305.1 495.844 305.608 498.039 306.029C500.476 306.496 503.014 306.943 505.048 308.465C505.295 308.65 505.567 308.257 505.32 308.073C501.782 305.425 497.04 305.98 493.169 304.11C491.363 303.238 489.808 301.816 489.36 299.795C488.969 298.027 489.347 296.201 489.526 294.431C489.759 292.608 489.542 290.756 488.894 289.037C488.141 287.261 487.09 285.627 485.788 284.204C482.908 280.953 479.535 278.175 475.792 275.973C471.534 273.435 466.873 271.644 462.011 270.678C461.711 270.618 461.676 271.095 461.975 271.155Z" fill="white"/>
<path d="M483.078 281.721C485.059 279.303 484.996 275.771 482.931 273.426C482.727 273.195 482.36 273.502 482.564 273.732C484.492 275.913 484.544 279.208 482.685 281.449C482.489 281.686 482.883 281.956 483.078 281.721Z" fill="white"/>
<path d="M489.272 293.286C486.184 293.62 483.081 292.778 480.587 290.927C480.34 290.744 480.068 291.137 480.314 291.32C482.914 293.241 486.144 294.111 489.357 293.756C489.663 293.722 489.576 293.252 489.272 293.286Z" fill="white"/>
<path d="M471.452 274.063C470.888 275.144 469.816 275.87 468.603 275.993C468.297 276.024 468.384 276.493 468.688 276.464C470.027 276.322 471.212 275.523 471.845 274.335C471.916 274.227 471.889 274.08 471.785 274.003C471.677 273.929 471.527 273.956 471.452 274.063Z" fill="white"/>
<path d="M548.392 31.7576H132.314C131.983 31.7576 131.71 31.4851 131.71 31.1534C131.71 30.8223 131.983 30.5498 132.314 30.5498H548.392C548.723 30.5498 548.996 30.8223 548.996 31.1534C548.996 31.4851 548.723 31.7576 548.392 31.7576Z" fill="#CACACA"/>
<path d="M145.907 23.3029C149.576 23.3029 152.55 20.3288 152.55 16.6602C152.55 12.9915 149.576 10.0175 145.907 10.0175C142.238 10.0175 139.264 12.9915 139.264 16.6602C139.264 20.3288 142.238 23.3029 145.907 23.3029Z" fill="#3F3D56"/>
<path d="M168.854 23.3029C172.523 23.3029 175.497 20.3288 175.497 16.6602C175.497 12.9915 172.523 10.0175 168.854 10.0175C165.185 10.0175 162.211 12.9915 162.211 16.6602C162.211 20.3288 165.185 23.3029 168.854 23.3029Z" fill="#3F3D56"/>
<path d="M191.802 23.3029C195.47 23.3029 198.444 20.3288 198.444 16.6602C198.444 12.9915 195.47 10.0175 191.802 10.0175C188.133 10.0175 185.159 12.9915 185.159 16.6602C185.159 20.3288 188.133 23.3029 191.802 23.3029Z" fill="#3F3D56"/>
<path d="M534.642 14.0809H518.338C517.675 14.0809 517.13 13.5359 517.13 12.8731C517.13 12.2103 517.675 11.6653 518.338 11.6653H534.642C534.644 11.6653 534.644 11.6653 534.646 11.6653C535.308 11.6653 535.853 12.2103 535.853 12.8731C535.853 13.5359 535.308 14.0809 534.646 14.0809H534.642Z" fill="#3F3D56"/>
<path d="M534.642 18.6097H518.338C517.675 18.6097 517.13 18.0647 517.13 17.4019C517.13 16.7397 517.675 16.1947 518.338 16.1947H534.642C535.305 16.1947 535.85 16.7397 535.85 17.4019C535.85 18.0647 535.305 18.6097 534.642 18.6097Z" fill="#3F3D56"/>
<path d="M534.642 23.1393H518.338C517.675 23.1393 517.13 22.5936 517.13 21.9315C517.13 21.2686 517.675 20.7236 518.338 20.7236H534.642C534.644 20.7236 534.644 20.7236 534.646 20.7236C535.308 20.7236 535.853 21.2686 535.853 21.9315C535.853 22.5936 535.308 23.1393 534.646 23.1393H534.642Z" fill="#3F3D56"/>
<path d="M535.85 57.653H448.891V109.791H535.85V57.653Z" fill="#EE0979"/>
<path d="M518.502 133.743H466.761C465.425 133.741 464.328 132.641 464.328 131.306C464.328 129.97 465.425 128.871 466.761 128.869H518.502C519.839 128.869 520.939 129.969 520.939 131.306C520.939 132.643 519.839 133.743 518.502 133.743Z" fill="#E4E4E4"/>
<path d="M510.159 125.401H475.103C475.102 125.401 475.101 125.401 475.099 125.401C473.762 125.401 472.662 124.3 472.662 122.963C472.662 121.627 473.762 120.527 475.099 120.527C475.101 120.527 475.102 120.527 475.103 120.527H510.159C510.161 120.527 510.162 120.527 510.163 120.527C511.5 120.527 512.601 121.627 512.601 122.963C512.601 124.3 511.5 125.401 510.163 125.401C510.162 125.401 510.161 125.401 510.159 125.401Z" fill="#E4E4E4"/>
<path d="M535.85 152.463H448.891V204.601H535.85V152.463Z" fill="#F0F0F0"/>
<path d="M518.501 228.553H466.761C465.424 228.553 464.324 227.453 464.324 226.116C464.324 224.779 465.424 223.679 466.761 223.679H518.501C519.838 223.679 520.939 224.779 520.939 226.116C520.939 227.453 519.838 228.553 518.501 228.553Z" fill="#E4E4E4"/>
<path d="M510.16 220.211H475.103C473.766 220.211 472.666 219.111 472.666 217.774C472.666 216.437 473.766 215.337 475.103 215.337H510.16C511.497 215.337 512.597 216.437 512.597 217.774C512.597 219.111 511.497 220.211 510.16 220.211Z" fill="#E4E4E4"/>
<path d="M404.299 94.2087H141.81C140.473 94.2087 139.372 93.1085 139.372 91.772C139.372 90.4349 140.473 89.3347 141.81 89.3347H404.299C405.636 89.3347 406.736 90.4349 406.736 91.772C406.736 93.1085 405.636 94.2087 404.299 94.2087Z" fill="#E4E4E4"/>
<path d="M404.299 112.673H141.81C140.473 112.673 139.372 111.573 139.372 110.236C139.372 108.899 140.473 107.799 141.81 107.799H404.299C405.636 107.799 406.736 108.899 406.736 110.236C406.736 111.573 405.636 112.673 404.299 112.673Z" fill="#E4E4E4"/>
<path d="M404.299 131.137H141.81C140.473 131.137 139.372 130.037 139.372 128.701C139.372 127.364 140.473 126.263 141.81 126.263H404.299C405.636 126.263 406.736 127.364 406.736 128.701C406.736 130.037 405.636 131.137 404.299 131.137Z" fill="#E4E4E4"/>
<path d="M404.299 149.602H141.81C140.473 149.602 139.372 148.502 139.372 147.165C139.372 145.828 140.473 144.728 141.81 144.728H404.299C405.636 144.728 406.736 145.828 406.736 147.165C406.736 148.502 405.636 149.602 404.299 149.602Z" fill="#E4E4E4"/>
<path d="M404.299 186.531H141.81C140.473 186.531 139.372 185.43 139.372 184.094C139.372 182.757 140.473 181.657 141.81 181.657H404.299C405.636 181.657 406.736 182.757 406.736 184.094C406.736 185.43 405.636 186.531 404.299 186.531Z" fill="#E4E4E4"/>
<path d="M404.299 204.995H141.81C140.473 204.995 139.372 203.895 139.372 202.558C139.372 201.221 140.473 200.121 141.81 200.121H404.299C405.636 200.121 406.736 201.221 406.736 202.558C406.736 203.895 405.636 204.995 404.299 204.995Z" fill="#E4E4E4"/>
<path d="M360.938 75.6794H185.17C185.169 75.6794 185.168 75.6794 185.167 75.6794C183.829 75.6794 182.729 74.5792 182.729 73.2421C182.729 71.9056 183.829 70.8054 185.167 70.8054C185.168 70.8054 185.169 70.8054 185.17 70.8054H360.938C360.939 70.8054 360.94 70.8054 360.942 70.8054C362.279 70.8054 363.379 71.9056 363.379 73.2421C363.379 74.5792 362.279 75.6794 360.942 75.6794C360.94 75.6794 360.939 75.6794 360.938 75.6794Z" fill="#E4E4E4"/>
<path d="M428.287 304.678H433.361L435.775 285.103L428.286 285.104L428.287 304.678Z" fill="#FFB6B6"/>
<path d="M426.992 303.021L436.987 303.021C440.481 303.021 443.355 305.896 443.355 309.389V309.596L426.992 309.597V303.021Z" fill="#2F2E41"/>
<path d="M402.348 304.678H407.423L409.837 285.103L402.347 285.104L402.348 304.678Z" fill="#FFB6B6"/>
<path d="M401.054 303.021L411.048 303.021C414.542 303.021 417.417 305.896 417.417 309.389V309.596L401.054 309.597V303.021Z" fill="#2F2E41"/>
<path d="M461.608 86.551C461.608 86.5498 461.608 86.5485 461.608 86.5485C461.608 83.386 459.007 80.7844 455.844 80.7844C452.682 80.7844 450.08 83.386 450.08 86.5485C450.08 87.3004 450.227 88.0447 450.513 88.74L438.851 107.192L431.591 121.822L437.582 127.14L442.193 122.288L457.272 92.1292C459.814 91.481 461.607 89.1742 461.608 86.551Z" fill="#FFB6B6"/>
<path d="M401.086 147.073L389.655 145.302L386.931 165.983L372.094 197.91C370.406 198.962 369.378 200.815 369.378 202.804C369.378 205.968 371.981 208.571 375.145 208.571C378.309 208.571 380.912 205.968 380.912 202.804C380.912 201.728 380.611 200.673 380.042 199.759L395.555 171.747L401.086 147.073Z" fill="#FFB6B6"/>
<path d="M407.42 181.525C407.42 181.525 397.368 190.821 398.645 214.195L401.461 250.303L400.752 300.637L411.076 299.826L420.097 215.473L428.743 250.058L425.639 296.127L435.585 296.358L446.035 244.293L443.558 205.699L439.398 181.525H407.42Z" fill="#2F2E41"/>
<path d="M418.176 127.091L394.159 133.815L406.371 170.404L404.545 184.401L441.576 184.641L433 157.587C433 157.587 437.813 147.69 432.317 140.753L418.176 127.091Z" fill="#EE0979"/>
<path d="M415.294 132.855L418.176 127.091C418.176 127.091 418.083 125.643 424.854 124.926L432.799 117.029L440.071 124.277L427.782 142.462L415.294 132.855Z" fill="#EE0979"/>
<path d="M403.766 138.619C403.766 138.619 395.119 129.012 390.316 133.815C385.513 138.619 387.976 153.893 387.976 153.893L402.937 156.215L403.766 138.619Z" fill="#EE0979"/>
<path d="M408.151 101.691C422.876 101.757 422.875 124.146 408.15 124.209C393.426 124.143 393.428 101.755 408.151 101.691Z" fill="#FFB6B6"/>
<path d="M409.79 112.206C411.781 113.379 413.849 114.577 416.145 114.828C418.441 115.08 421.04 114.113 421.962 111.996C422.25 111.262 422.403 110.482 422.413 109.693C422.615 105.672 421.222 101.729 418.539 98.7268C415.815 95.7496 411.923 94.1043 407.889 94.224C404.084 94.3895 400.568 96.1901 397.193 97.9519C394.088 99.5723 390.81 101.358 389.123 104.427C386.623 108.975 388.446 114.542 388.931 119.709C389.619 127.489 387.112 135.224 381.99 141.122L402.94 143.107C405.489 143.349 408.09 143.588 410.589 143.029C416.157 141.786 420.149 136.802 420.149 131.098C420.149 127.776 418.796 124.594 416.403 122.291C413.429 119.427 408.647 117.401 408.53 113.275" fill="#2F2E41"/>
<path d="M565.919 304.209H560.36L557.716 282.77H565.919L565.919 304.209Z" fill="#9F616A"/>
<path d="M567.336 309.597L549.414 309.596V309.37C549.414 305.543 552.563 302.395 556.39 302.394L567.337 302.395L567.336 309.597Z" fill="#2F2E41"/>
<path d="M617.603 304.209H612.045L609.4 282.77H617.604L617.603 304.209Z" fill="#9F616A"/>
<path d="M619.021 309.597L601.098 309.596V309.37C601.098 305.543 604.25 302.395 608.076 302.395H619.021V309.597Z" fill="#2F2E41"/>
<path d="M563.703 195.412C563.703 195.412 559.038 208.075 559.704 213.407C560.37 218.739 555.039 256.062 555.705 259.395C556.372 262.727 555.039 279.39 555.705 282.056C556.372 284.722 553.835 287.906 555.168 290.572C556.501 293.238 558.371 298.718 558.371 298.718L567.035 298.052L568.372 290.72C568.372 290.72 572.37 290.053 571.702 286.055C571.033 282.056 575.032 255.396 575.032 255.396L586.365 218.073L602.359 252.064C602.359 252.064 603.028 276.057 605.027 278.723C607.026 281.389 603.028 288.721 605.027 291.387C607.026 294.053 609.025 298.718 609.025 298.718H619.022V293.386C619.022 293.386 625.019 290.053 619.022 280.057L614.972 220.018L610.967 192.692L563.703 195.412Z" fill="#2F2E41"/>
<path d="M588.549 111.607C595.424 111.607 600.997 106.033 600.997 99.1584C600.997 92.2834 595.424 86.7102 588.549 86.7102C581.674 86.7102 576.101 92.2834 576.101 99.1584C576.101 106.033 581.674 111.607 588.549 111.607Z" fill="#A0616A"/>
<path d="M577.954 98.3001C578.833 100.544 579.712 102.788 580.59 105.033C581.673 107.791 582.908 110.743 585.442 112.283C588.562 114.185 592.738 113.258 595.763 111.198C600.162 108.199 602.805 103.204 602.805 97.8761C602.805 89.7186 596.61 82.7818 588.504 81.8611L588.383 84.1144L585.614 81.7961C585.136 82.6219 584.251 83.1313 583.29 83.1313C582.602 83.1313 581.934 82.8645 581.437 82.3876C582.163 83.8928 581.322 85.7297 580.113 86.8828C578.629 88.3001 574.37 90.0026 574.548 92.5361C574.669 94.2259 577.267 96.5479 577.954 98.3001Z" fill="#2F2E41"/>
<path d="M622.816 213.826C623.396 212.958 623.708 211.936 623.708 210.891C623.708 208.804 622.466 206.905 620.556 206.066L620.804 194.023L613.527 192.087L613.412 209.098C613.202 209.677 613.094 210.288 613.094 210.904C613.094 213.811 615.488 216.204 618.391 216.204C620.174 216.204 621.836 215.31 622.816 213.826Z" fill="#9F616A"/>
<path d="M597.794 119.3C597.794 119.3 588.148 114.477 579.036 117.693C569.925 120.909 565.105 124.66 565.105 124.66L571.001 155.743L562.961 197.545C562.961 197.545 604.224 194.33 607.981 197.545C611.731 200.76 611.731 193.793 611.731 193.793L608.516 154.135L614.412 128.947L597.794 119.3Z" fill="#3F3D56"/>
<path d="M557.081 214.539C558.28 213.538 558.974 212.055 558.974 210.493C558.974 208.937 558.284 207.458 557.093 206.457L560.712 194.969L554.267 191.066L549.383 207.362C548.717 208.27 548.359 209.367 548.359 210.493C548.359 213.401 550.751 215.793 553.658 215.793C554.911 215.793 556.125 215.348 557.081 214.539Z" fill="#9F616A"/>
<path d="M568.856 124.66H565.105C565.105 124.66 559.21 128.412 559.21 133.771C559.21 139.13 550.635 201.832 550.635 201.832L559.746 203.44L567.786 159.495L573.682 147.704L568.856 124.66Z" fill="#3F3D56"/>
<path d="M604.225 128.947H614.412C614.412 128.947 617.627 132.163 619.232 139.665C620.843 147.168 622.447 176.644 622.447 176.644L621.377 203.44H613.336L612.266 168.605L606.905 146.097L604.225 128.947Z" fill="#3F3D56"/>
<path d="M132.231 164.611C131.974 164.736 131.727 164.88 131.493 165.044L107.654 155.725L106.709 149.579L97.2473 149.793L97.863 160.836C97.9642 162.662 99.2695 164.214 101.052 164.628L129.419 171.208C130.152 173.419 132.232 174.92 134.561 174.92C137.533 174.92 139.978 172.475 139.978 169.503C139.978 166.53 137.533 164.085 134.561 164.085C133.755 164.085 132.959 164.264 132.231 164.611Z" fill="#9F616A"/>
<path d="M96.438 303.464L102.766 303.463L105.775 279.057H96.4368L96.438 303.464Z" fill="#9F616A"/>
<path d="M94.8242 301.398L107.286 301.398C111.642 301.398 115.227 304.982 115.227 309.339V309.596L94.8242 309.597V301.398Z" fill="#2F2E41"/>
<path d="M65.9872 303.464L72.3148 303.463L75.3251 279.057H65.9866L65.9872 303.464Z" fill="#9F616A"/>
<path d="M64.373 301.398L76.8346 301.398C81.1909 301.398 84.7755 304.982 84.7762 309.339V309.596L64.3737 309.597L64.373 301.398Z" fill="#2F2E41"/>
<path d="M69.6565 117.387C67.8546 109.947 66.3278 101.555 69.7259 94.7021C72.0842 89.9472 80.807 88.3459 85.8077 90.0593C90.8084 91.772 94.4236 96.4193 96.014 101.486C97.6039 106.554 97.4192 112.014 96.7259 117.281C87.5293 117.104 78.3328 116.928 69.6565 117.387Z" fill="#2F2E41"/>
<path d="M85.1761 117.385C91.0988 117.385 95.9001 112.583 95.9001 106.661C95.9001 100.738 91.0988 95.9368 85.1761 95.9368C79.2534 95.9368 74.4521 100.738 74.4521 106.661C74.4521 112.583 79.2534 117.385 85.1761 117.385Z" fill="#9F616A"/>
<path d="M72.0658 104.452C72.0639 104.367 72.0632 104.283 72.0632 104.197C72.0632 96.8083 78.1437 90.7272 85.5333 90.7272C92.9229 90.7272 99.0034 96.8083 99.0034 104.197C99.0034 104.4 98.9989 104.604 98.9894 104.807C89.81 104.826 80.6313 104.846 72.0658 104.452Z" fill="#2F2E41"/>
<path d="M76.2757 156.951L71.7908 164.426C71.7908 164.426 59.5075 187.463 60.2384 206.558L62.9565 230.343L59.9736 236.179L61.9703 246.449L58.2615 253.805L64.9653 289.319L65.2506 297.021H76.0904L75.5199 289.177L80.0838 254.578L87.7854 217.638L91.7794 249.526L90.3532 257.513L92.2073 264.217L94.7745 284.897L95.0597 294.882L104.901 296.023L108.609 259.082L110.749 241.456L99.283 163.308L76.2757 156.951Z" fill="#2F2E41"/>
<path d="M74.8533 120.857L68.1762 123.693L64.426 139.213L72.3218 159.436L69.37 169.539C78.3055 184.824 89.365 187.045 102.38 177.243C99.6255 169.509 100.023 161.557 102.768 153.442C102.768 153.442 109.615 147.068 104.832 138.779L100.27 126.397L94.6217 123.573L74.8533 120.857Z" fill="#CBCBCB"/>
<path d="M98.9543 129.096L100.47 126.281C100.47 126.281 104.468 126.882 106.1 131.695C107.733 136.507 108.157 155.948 108.157 155.948L99.6038 156.381L98.9543 129.096Z" fill="#CBCBCB"/>
<path d="M307.796 128.868L53.6117 194.376C53.4163 194.426 53.2151 194.451 53.0126 194.451C51.6755 194.451 50.5759 193.351 50.5759 192.014C50.5759 190.909 51.3266 189.936 52.3956 189.656L306.579 124.148C306.78 124.096 306.987 124.069 307.195 124.069C308.532 124.069 309.632 125.17 309.632 126.507C309.632 127.617 308.872 128.594 307.796 128.868Z" fill="#EE0979"/>
<path d="M65.4458 195.079C67.326 194.143 68.5198 192.216 68.5198 190.115C68.5198 188.925 68.1371 187.767 67.4285 186.811L71.5741 146.276H62.6144L59.3195 185.857C58.0741 186.915 57.3552 188.47 57.3552 190.104C57.3552 193.162 59.8715 195.679 62.9296 195.679C63.8038 195.679 64.6658 195.473 65.4458 195.079Z" fill="#9F616A"/>
<path d="M73.6326 128.277L70.4924 123.838C70.4924 123.838 64.9709 120.094 62.1554 128.71C59.3405 137.326 59.7735 153.288 59.7735 153.288L70.493 157.727L73.6326 128.277Z" fill="#CBCBCB"/>
<path d="M243.22 310H0.636703C0.287153 310 0 309.712 0 309.363C0 309.014 0.287153 308.727 0.636703 308.727H243.22C243.57 308.727 243.857 309.014 243.857 309.363C243.857 309.712 243.57 310 243.22 310Z" fill="#CACACA"/>
<path d="M625.242 310H382.658C382.309 310 382.022 309.712 382.022 309.363C382.022 309.014 382.309 308.727 382.658 308.727H625.242C625.592 308.727 625.879 309.014 625.879 309.363C625.879 309.712 625.592 310 625.242 310Z" fill="#CACACA"/>
</svg>
