<svg width="100" height="100" viewBox="0 0 100 100" fill="none" xmlns="http://www.w3.org/2000/svg">
<path d="M63.1323 27.4176C63.1323 27.4176 63.1305 27.4158 63.1293 27.4152C62.87 27.206 62.5947 27.0134 62.3031 26.8358C62.3013 26.8352 62.3001 26.8341 62.2984 26.8335C61.7225 26.483 61.1015 26.1778 60.4005 25.9645C54.3167 24.1155 50.7922 29.2456 50.1253 30.3317C50.0525 30.4425 50.0126 30.5058 49.9936 30.5321C49.9292 30.414 46.3255 23.9206 39.5997 25.9645C38.8994 26.1772 38.2794 26.4818 37.7043 26.8317C37.7014 26.8335 37.6979 26.8352 37.6948 26.837C37.4052 27.014 37.131 27.2054 36.873 27.4135C36.8699 27.4158 36.867 27.4182 36.864 27.4211C32.5142 30.9342 32.718 38.6298 37.7444 44.0187C42.1022 48.6821 46.6798 51.0378 48.7921 52.2829C49.5366 52.7222 50.4642 52.7222 51.2091 52.2829C53.3209 51.0378 57.8985 48.6821 62.2562 44.0187C67.2839 38.6281 67.4872 30.9294 63.1323 27.4176ZM43.6201 35.5292C43.2321 35.7295 42.8309 35.86 42.437 35.9262C42.4263 35.9287 42.4154 35.9287 42.4048 35.9303C41.2247 36.1193 40.1166 35.7242 39.6528 34.8331C39.0425 33.6368 39.8114 32.0014 41.3861 31.1829C41.7753 30.9825 42.1777 30.8515 42.5723 30.7852C42.5795 30.784 42.5867 30.7834 42.5938 30.7822C43.7776 30.5908 44.8886 30.986 45.3535 31.879C45.9637 33.0753 45.195 34.7109 43.6201 35.5292Z" fill="#142346"/>
<path d="M71.5581 10.9375H28.4424C21.6922 10.9375 16.2109 16.4307 16.2109 23.1815V76.8311C16.2109 83.5818 21.6922 89.0625 28.4424 89.0625H59.3265C59.5584 89.0625 59.7902 89.0625 60.0102 89.0506C73.0106 88.6966 83.423 78.2843 83.777 65.2832C83.7895 65.0638 83.7895 64.8314 83.7895 64.5996V23.1815C83.7897 16.4307 78.3083 10.9375 71.5581 10.9375ZM77.6735 65.0514C77.6491 65.6981 77.6001 66.3335 77.5269 66.9676H65.7472C63.5013 66.9676 61.6948 68.7749 61.6948 71.0207V82.7879C61.0719 82.8737 60.4251 82.9225 59.7903 82.9469H28.4424C25.061 82.9469 22.327 80.2249 22.327 76.8309V23.1815C22.327 19.7876 25.061 17.0535 28.4424 17.0535H71.5579C74.9394 17.0535 77.6733 19.7876 77.6733 23.1815V65.0514H77.6735Z" fill="#142346"/>
<path d="M35.3517 61.5604L35.3511 61.5848H35.3517V61.6092H64.6486V57.5198H35.3517V61.5604Z" fill="#142346"/>
<path d="M35.3517 69.9216L35.3511 69.946H35.3517V69.9706H51.1601V65.8691H35.3517V69.9216Z" fill="#142346"/>
</svg>
