<svg width="100" height="100" viewBox="0 0 100 100" fill="none" xmlns="http://www.w3.org/2000/svg">
<path d="M93.5832 25C90.3748 26.4584 86.9165 27.4167 83.3332 27.875C86.9998 25.6667 89.8332 22.1667 91.1665 17.9584C87.7082 20.0417 83.8748 21.5 79.8332 22.3334C76.5415 18.75 71.9165 16.6667 66.6665 16.6667C56.8748 16.6667 48.8748 24.6667 48.8748 34.5417C48.8748 35.9584 49.0415 37.3334 49.3332 38.625C34.4998 37.875 21.2915 30.75 12.4998 19.9584C10.9582 22.5834 10.0832 25.6667 10.0832 28.9167C10.0832 35.125 13.2082 40.625 18.0415 43.75C15.0832 43.75 12.3332 42.9167 9.9165 41.6667V41.7917C9.9165 50.4584 16.0832 57.7084 24.2498 59.3334C21.6279 60.0509 18.8752 60.1507 16.2082 59.625C17.3399 63.177 19.5562 66.2851 22.5457 68.5122C25.5352 70.7394 29.1475 71.9737 32.8748 72.0417C26.5566 77.0435 18.7248 79.7472 10.6665 79.7084C9.24984 79.7084 7.83317 79.625 6.4165 79.4584C14.3332 84.5417 23.7498 87.5 33.8332 87.5C66.6665 87.5 84.7082 60.25 84.7082 36.625C84.7082 35.8334 84.7082 35.0834 84.6665 34.2917C88.1665 31.7917 91.1665 28.625 93.5832 25Z" fill="#142346"/>
</svg>
