<svg width="100" height="100" viewBox="0 0 100 100" fill="none" xmlns="http://www.w3.org/2000/svg">
<path d="M76.9226 23.8556H74.5044L70.6302 11.8454C70.4555 11.3046 69.9524 10.9375 69.3837 10.9375H51.4864V15.4085H48.4299V10.9375H30.5305C29.9631 10.9375 29.4606 11.3034 29.2854 11.843L25.3842 23.8556H22.9898C22.2662 23.8556 21.6797 24.4421 21.6797 25.1657V37.5891C21.6797 38.3121 22.2662 38.8986 22.9898 38.8986H27.1509L27.3297 38.8997C27.3209 39.075 27.3196 39.2479 27.3328 39.4206L27.9485 47.0523C27.8662 47.121 27.7858 47.1924 27.7089 47.2668C26.9119 48.0382 26.5126 49.061 26.6228 50.0694L28.7477 69.9011C28.849 70.853 29.301 71.678 29.9791 72.2722L30.1645 74.5747L31.0199 85.2232C31.1945 87.3764 33.0238 89.0625 35.1857 89.0625H64.7305C66.89 89.0625 68.7181 87.3764 68.8922 85.2234L69.7481 74.5749L69.9341 72.2705C70.6113 71.6769 71.0641 70.8519 71.1655 69.9013L73.2922 50.0696C73.3977 49.0611 73.0008 48.0383 72.202 47.267C72.1257 47.1931 72.047 47.1228 71.9659 47.0549L72.1663 44.5401L72.58 39.4202C72.5937 39.2397 72.5931 39.0678 72.5858 38.8986H76.9226C77.6462 38.8986 78.2327 38.3121 78.2327 37.5891V25.1657C78.2326 24.4421 77.6462 23.8556 76.9226 23.8556ZM41.9138 59.464C41.9138 55.0204 45.5151 51.4217 49.9562 51.4217C54.3979 51.4217 57.9991 55.0206 57.9991 59.464C57.9991 63.9052 54.3977 67.5064 49.9562 67.5064C45.5151 67.5064 41.9138 63.9052 41.9138 59.464ZM65.854 73.2649L65.6955 75.242L64.9158 84.9051C64.9088 85 64.827 85.0745 64.7305 85.0745H35.1857C35.0885 85.0745 35.0038 84.9988 34.9968 84.9046L34.2171 75.242L34.0585 73.2631H63.629L65.854 73.2649ZM70.3285 23.8556H39.3245L29.5821 23.8486L32.4783 14.9263H44.4415V15.952C44.4415 17.8511 45.9865 19.3959 47.886 19.3959H52.0297C53.9293 19.3959 55.4742 17.851 55.4742 15.952V14.9263H67.4374L69.6588 21.7688L70.3285 23.8556ZM74.2445 34.9106H68.4183H31.4943H25.6679V27.9236H74.2444V34.9106H74.2445ZM68.045 46.0583H31.868L31.3089 39.1013C31.3048 39.0465 31.3202 39.0016 31.3631 38.9557C31.378 38.9384 31.4203 38.8986 31.4941 38.8986H68.4181C68.4735 38.8986 68.5176 38.9183 68.557 38.9606C68.5957 39.0018 68.6111 39.0465 68.607 39.1019L68.045 46.0583Z" fill="#142346"/>
</svg>
