<svg width="547" height="355" viewBox="0 0 547 355" fill="none" xmlns="http://www.w3.org/2000/svg">
<g clip-path="url(#clip0_68_699)">
<path d="M493.374 165.887C493.109 165.623 492.817 165.388 492.504 165.183C491.071 164.254 332.762 28.8469 332.762 28.8469L323.373 35.3886C323.373 35.3886 175.056 164.59 174.736 164.522C174.032 164.346 173.298 164.331 172.588 164.479C170.254 164.956 168.561 167.026 168.556 169.408V349.876C168.559 352.635 170.828 354.904 173.587 354.907H489.781C492.539 354.904 494.808 352.635 494.811 349.876V169.408C494.813 168.092 494.297 166.826 493.374 165.887Z" fill="white"/>
<path d="M546.552 166.627C546.553 195.754 523.851 220.275 494.811 222.515C494.336 222.551 493.855 222.586 493.374 222.608V169.408C493.374 168.333 492.888 167.311 492.051 166.634C492.004 166.586 491.951 166.542 491.893 166.505C491.841 166.463 491.785 166.425 491.728 166.39C490.703 165.73 489.41 165.636 488.3 166.139L487.704 164.831C488.355 164.534 489.064 164.379 489.78 164.378L448.848 129.115C449.164 128.756 449.494 128.404 449.825 128.052C460.405 116.898 475.121 110.575 490.494 110.575C521.245 110.575 546.549 135.877 546.552 166.627Z" fill="#F2F2F2"/>
<path d="M14.2127 204.848C14.1229 204.39 14.0776 203.923 14.0776 203.455C14.0776 199.525 17.2748 196.273 21.2049 196.208L53.5164 157.744L61.583 168.058L28.6535 203.855C28.4623 207.712 25.2364 210.782 21.3738 210.782C17.8849 210.782 14.8609 208.277 14.2127 204.848Z" fill="#FFB8B8"/>
<path d="M107.381 286.019L113.624 292.235L140.573 271.113L131.358 261.938L107.381 286.019Z" fill="#FFB8B8"/>
<path d="M119.893 310.021L100.271 290.484L107.819 282.904L119.86 294.893C124.018 299.034 124.033 305.863 119.893 310.021Z" fill="#2F2E41"/>
<path d="M74.1948 345.644H83.0051L87.1961 311.661H74.1934L74.1948 345.644Z" fill="#FFB8B8"/>
<path d="M99.9966 353.824L72.3073 353.825L72.3068 343.127L89.2979 343.126C95.1669 343.126 99.9963 347.955 99.9966 353.824Z" fill="#2F2E41"/>
<path d="M72.2797 319.397L62.2448 245.388C60.6739 234.204 61.1611 222.826 63.6828 211.817C65.7417 202.969 68.5242 196.841 71.952 193.602C72.4924 193.095 73.1852 192.779 73.9232 192.702L107.056 189.25C108.357 189.117 109.623 189.75 110.297 190.87L111.386 192.685C111.519 192.906 111.625 193.14 111.704 193.385L118.709 215.101C118.921 215.764 119.389 216.315 120.009 216.63C131.039 222.261 166.866 241.269 164.815 249.471C162.889 257.177 144.853 269.671 139.37 273.316C138.231 274.079 136.733 274.067 135.605 273.288L126.505 267.062C125.587 266.434 125.037 265.391 125.037 264.279C125.037 263.208 125.547 262.198 126.409 261.564L132.684 256.939C133.355 256.445 133.751 255.66 133.751 254.827C133.751 253.716 133.045 252.72 131.997 252.353L98.2939 240.527C98.015 240.428 97.7211 240.379 97.4258 240.379C96.0668 240.379 94.9221 241.434 94.8114 242.788L88.5975 318.738C88.4559 320.414 87.0848 321.743 85.4046 321.83L75.7894 322.311C75.7312 322.314 75.673 322.316 75.6156 322.316C73.9347 322.322 72.4967 321.064 72.2797 319.397Z" fill="#2F2E41"/>
<path d="M87.4753 127.976C97.2232 127.976 105.125 120.074 105.125 110.326C105.125 100.578 97.2232 92.6758 87.4753 92.6758C77.7274 92.6758 69.8252 100.578 69.8252 110.326C69.8252 120.074 77.7274 127.976 87.4753 127.976Z" fill="#FFB8B8"/>
<path d="M70.9671 190.579L57.9751 143.175L58.1971 143.025C58.4767 142.837 86.48 124.346 119.266 139.247L119.861 139.588L112.162 188.79C111.817 191.097 109.863 192.85 107.531 192.941L75.8523 194.16C75.7883 194.162 75.7251 194.163 75.6611 194.163C73.4729 194.168 71.5384 192.692 70.9671 190.579Z" fill="#CCCCCC"/>
<path d="M57.4804 174.036L46.6601 161.593C45.5887 160.363 45.5556 158.524 46.5832 157.258L57.8951 143.284L66.5782 145.652L71.1817 161.765L62.7882 173.757C62.1953 174.609 61.2389 175.139 60.2019 175.19C60.1415 175.193 60.0811 175.195 60.0208 175.195C59.0463 175.197 58.1179 174.774 57.4804 174.036Z" fill="#CCCCCC"/>
<path d="M493.374 165.887C493.38 166.066 493.318 166.241 493.201 166.376C492.945 166.675 492.488 166.711 492.188 166.455L489.78 164.378L448.848 129.115L334.04 30.1966C332.693 29.0432 330.684 29.0461 329.341 30.2038L174.736 164.522L173.342 165.729C173.288 165.776 173.228 165.815 173.162 165.844C173.047 165.895 172.921 165.915 172.796 165.901C172.616 165.883 172.45 165.798 172.329 165.664C172.213 165.534 172.149 165.365 172.149 165.19C172.149 164.984 172.238 164.787 172.393 164.651L172.587 164.479L328.399 29.1187C330.282 27.501 333.091 27.4953 334.982 29.1043L449.825 128.052L493.122 165.362C493.274 165.495 493.366 165.685 493.374 165.887Z" fill="#3F3D56"/>
<path d="M406.082 187.108L404.192 181.905L397.682 163.94L383.654 125.256L367.974 82.0165L339.696 4.02432C338.548 0.878905 335.02 -0.769615 331.87 0.366529L168.376 59.6458C165.229 60.7927 163.58 64.3219 164.718 67.4716L204.81 178.039L205.493 179.929L247.576 199.001L259.404 204.362L261.323 205.232L311.404 227.933L313.344 227.229L346.192 215.321L395.741 197.356L402.417 194.934C405.565 193.788 407.217 190.26 406.082 187.108Z" fill="#E6E6E6"/>
<path d="M337.526 95.0092C335.838 90.3798 330.647 87.9523 326.013 89.6267L261.323 113.09L230.084 124.415C226.535 125.698 224.156 129.088 224.156 132.862C224.156 137.79 228.21 141.844 233.137 141.844C234.184 141.844 235.223 141.661 236.207 141.303L261.323 132.198L332.143 106.522C336.773 104.835 339.2 99.6436 337.526 95.0092Z" fill="white"/>
<path d="M348.916 126.427C347.229 121.798 342.037 119.371 337.404 121.045L326.445 125.019L261.323 148.633L241.475 155.826C237.931 157.114 235.559 160.501 235.559 164.271C235.559 169.2 239.615 173.256 244.544 173.256C245.585 173.256 246.618 173.075 247.597 172.721L261.323 167.741L343.534 137.933C343.721 137.868 343.9 137.789 344.08 137.71C348.387 135.82 350.517 130.851 348.916 126.427Z" fill="white"/>
<path d="M360.428 158.176C358.744 153.548 353.555 151.12 348.923 152.794L318.188 163.94L294.394 172.57L261.323 184.557L252.987 187.582C249.032 189.023 246.59 193.054 247.144 197.226C247.226 197.831 247.371 198.426 247.576 199.001L259.404 204.362L261.323 203.665H261.337L321.349 181.905L355.046 169.689C359.678 168.006 362.107 162.811 360.428 158.176Z" fill="white"/>
<path d="M293.072 64.1227C291.385 59.4934 286.193 57.0658 281.559 58.7402L244.407 72.2073C240.863 73.495 238.49 76.8819 238.49 80.6518C238.49 85.5808 242.546 89.6367 247.475 89.6367C248.516 89.6367 249.55 89.4556 250.529 89.1021L262.286 84.8406L270.069 82.0165L287.689 75.6279C292.318 73.9442 294.746 68.755 293.072 64.1227Z" fill="white"/>
<path d="M441.338 82.0165H267.432C265.349 82.0186 263.406 83.0851 262.286 84.8407C261.655 85.8194 261.321 86.9606 261.323 88.1248V205.232L311.404 227.933L318.461 231.131L329.607 236.183C330.926 236.779 332.44 236.779 333.76 236.183L344.906 231.131L379.788 215.321L412.299 200.582L447.447 184.657V88.1248C447.445 84.7746 444.688 82.0186 441.338 82.0165Z" fill="#EE0979"/>
<path d="M405.407 163.94H303.362C298.569 163.942 294.58 167.781 294.394 172.57C294.382 172.687 294.377 172.805 294.38 172.922C294.386 177.848 298.437 181.899 303.362 181.905H405.407C410.335 181.905 414.39 177.85 414.39 172.922C414.39 167.995 410.335 163.94 405.407 163.94Z" fill="white"/>
<path d="M411.221 199.497C409.601 198.112 407.538 197.352 405.407 197.356H303.363C298.434 197.356 294.38 201.411 294.38 206.338C294.38 211.266 298.434 215.321 303.363 215.321H379.788L412.299 200.582C411.97 200.191 411.61 199.828 411.221 199.497Z" fill="white"/>
<path d="M318.461 231.131L329.607 236.183C330.926 236.779 332.44 236.779 333.76 236.183L344.906 231.131H318.461Z" fill="white"/>
<path d="M382.583 125.644C381.291 122.11 377.909 119.746 374.147 119.744H334.622C331.104 119.748 327.898 121.815 326.445 125.019C325.912 126.182 325.638 127.448 325.64 128.727C325.646 133.653 329.697 137.703 334.622 137.71H374.147C379.074 137.71 383.13 133.655 383.13 128.728C383.13 127.676 382.944 126.632 382.583 125.644Z" fill="white"/>
<path d="M376.303 215.321L341.421 231.131L333.164 234.875C332.223 235.299 331.144 235.299 330.203 234.875L321.946 231.131H318.461L329.607 236.183C330.926 236.779 332.441 236.779 333.76 236.183L344.906 231.131L379.788 215.321H376.303ZM376.303 215.321L341.421 231.131L333.164 234.875C332.223 235.299 331.144 235.299 330.203 234.875L321.946 231.131H318.461L329.607 236.183C330.926 236.779 332.441 236.779 333.76 236.183L344.906 231.131L379.788 215.321H376.303ZM376.303 215.321L341.421 231.131L333.164 234.875C332.223 235.299 331.144 235.299 330.203 234.875L321.946 231.131H318.461L329.607 236.183C330.926 236.779 332.441 236.779 333.76 236.183L344.906 231.131L379.788 215.321H376.303ZM493.374 165.887C493.109 165.623 492.817 165.388 492.504 165.183C491.071 164.254 489.257 164.121 487.704 164.831L411.221 199.497L376.303 215.321L341.421 231.131L333.164 234.875C332.223 235.299 331.144 235.299 330.203 234.875L321.946 231.131L313.344 227.229L261.338 203.665L261.323 203.658L247.145 197.226L204.811 178.039L175.663 164.831C175.367 164.693 175.056 164.59 174.736 164.522C174.032 164.346 173.298 164.331 172.588 164.479C170.254 164.956 168.561 167.026 168.556 169.408V349.876C168.559 352.635 170.828 354.904 173.587 354.907H489.781C492.539 354.904 494.808 352.635 494.811 349.876V169.408C494.813 168.092 494.297 166.826 493.374 165.887ZM493.374 349.876C493.373 351.847 491.751 353.469 489.781 353.469H173.587C171.615 353.469 169.994 351.847 169.993 349.876V169.408C169.994 168.19 170.614 167.051 171.639 166.39C171.994 166.163 172.385 165.998 172.796 165.901C172.917 165.876 173.039 165.856 173.163 165.844C173.303 165.824 173.444 165.815 173.587 165.815C174.097 165.816 174.602 165.927 175.067 166.139L205.493 179.929L247.576 199.001L259.405 204.362L261.323 205.232L311.404 227.933L318.461 231.131L329.607 236.183C330.926 236.779 332.44 236.779 333.76 236.183L344.906 231.131L379.788 215.321L412.299 200.582L488.3 166.139C489.41 165.636 490.704 165.73 491.728 166.39C491.786 166.425 491.841 166.463 491.894 166.505C491.951 166.542 492.004 166.586 492.052 166.634C492.888 167.311 493.375 168.333 493.374 169.408V349.876ZM376.303 215.321L341.421 231.131L333.164 234.875C332.223 235.299 331.144 235.299 330.203 234.875L321.946 231.131H318.461L329.607 236.183C330.926 236.779 332.441 236.779 333.76 236.183L344.906 231.131L379.788 215.321H376.303ZM376.303 215.321L341.421 231.131L333.164 234.875C332.223 235.299 331.144 235.299 330.203 234.875L321.946 231.131H318.461L329.607 236.183C330.926 236.779 332.441 236.779 333.76 236.183L344.906 231.131L379.788 215.321H376.303ZM259.405 204.362L261.323 205.232V203.665L259.405 204.362ZM376.303 215.321L341.421 231.131L333.164 234.875C332.223 235.299 331.144 235.299 330.203 234.875L321.946 231.131H318.461L329.607 236.183C330.926 236.779 332.441 236.779 333.76 236.183L344.906 231.131L379.788 215.321H376.303Z" fill="#3F3D56"/>
<path d="M126.137 354.907H44.9325C44.5387 354.907 44.2139 354.583 44.2139 354.188C44.2139 353.794 44.5387 353.469 44.9325 353.469H126.137C126.531 353.469 126.856 353.794 126.856 354.188C126.856 354.583 126.531 354.907 126.137 354.907Z" fill="#3F3D56"/>
<path d="M80.7648 123.233C78.1857 121.925 76.5544 119.268 76.5544 116.375C76.5544 113.203 78.517 110.343 81.4763 109.201C86.802 107.145 92.773 111.34 98.356 110.147C103.92 108.958 107.14 102.306 105.811 96.7735C104.483 91.2401 99.6488 87.0728 94.3181 85.0829C87.2705 82.4578 79.398 83.1793 72.9455 87.0419C66.5462 91.0252 62.5197 97.9312 62.2057 105.462C62.0584 113.017 65.9691 120.098 72.4417 123.996C73.8603 124.814 75.5124 125.471 77.1085 125.103C78.4185 124.677 79.6524 124.046 80.7648 123.233Z" fill="#2F2E41"/>
<path d="M75.0451 86.6114C70.3482 80.3823 64.0085 75.2643 56.6311 72.7276C49.2537 70.1901 40.8236 70.3942 33.8946 73.9794C26.9663 77.5653 21.7994 84.6862 21.2598 92.4689C20.3622 105.422 31.4297 116.432 32.5659 129.367C32.6291 130.088 32.6607 130.812 32.6607 131.537C32.6607 145.148 21.461 156.349 7.84952 156.349C5.18199 156.349 2.53099 155.918 0 155.074C5.61892 159.699 12.923 161.772 20.1337 160.788C27.3443 159.705 33.6962 155.431 37.4151 149.16C39.9059 144.832 40.9285 139.805 41.3259 134.827C41.9496 126.956 41.1045 119.038 38.8337 111.476C37.5926 107.351 35.9089 103.105 36.6958 98.8689C37.6113 94.374 41.139 90.8419 45.6326 89.9192C49.1919 89.2523 52.8318 90.3389 56.2301 91.5893C59.6292 92.8397 63.0563 94.2863 66.6767 94.3689C70.2972 94.4516 74.241 92.7944 75.6402 89.4543L75.0451 86.6114Z" fill="#2F2E41"/>
<path d="M167.646 157.506C167.419 157.833 167.219 158.178 167.048 158.537L131.767 163.58L126.41 156.779L115.088 163.522L125.73 180.114L168.758 167.43C170.145 168.685 171.95 169.381 173.82 169.381C177.958 169.381 181.363 165.976 181.363 161.838C181.363 157.7 177.958 154.296 173.82 154.296C171.364 154.296 169.056 155.496 167.646 157.506Z" fill="#FFB8B8"/>
<path d="M117.317 171.443C116.28 171.392 115.323 170.862 114.73 170.01L106.336 158.018L110.374 141.056L118.369 138.876L119.86 139.588L130.934 153.51C131.962 154.776 131.93 156.616 130.858 157.846L120.038 170.289C119.401 171.026 118.472 171.45 117.498 171.448C117.437 171.448 117.377 171.446 117.317 171.443Z" fill="#CCCCCC"/>
</g>
<defs>
<clipPath id="clip0_68_699">
<rect width="546.872" height="355" fill="white"/>
</clipPath>
</defs>
</svg>
