<svg width="200" height="200" viewBox="0 0 200 200" fill="none" xmlns="http://www.w3.org/2000/svg">
<g clip-path="url(#clip0_80_1116)">
<path d="M180 0H20C8.9543 0 0 8.9543 0 20V180C0 191.046 8.9543 200 20 200H180C191.046 200 200 191.046 200 180V20C200 8.9543 191.046 0 180 0Z" fill="white"/>
<path d="M22.4501 16.85C21.2334 17.0333 19.3501 18 18.5834 18.85C17.7334 19.8 17.0167 21.3333 16.8334 22.6167C16.6167 24.15 16.6167 56.0333 16.8334 57.5667C17.0501 58.9667 17.9334 60.75 18.8501 61.5833C19.8001 62.4333 21.3334 63.15 22.6167 63.3333C24.1334 63.55 56.0334 63.55 57.5501 63.3333C58.8334 63.15 60.3667 62.4333 61.3167 61.5833C62.2334 60.75 63.1167 58.9667 63.3334 57.5667C63.5501 56.0167 63.5501 24.15 63.3334 22.6C63.1167 21.2 62.2334 19.4167 61.3167 18.5833C60.3667 17.7333 58.8334 17.0167 57.5501 16.8333C56.1501 16.6333 23.8334 16.65 22.4501 16.85ZM53.1834 24.2667C54.5167 24.9667 55.2834 25.75 56.0334 27.2L56.5834 28.25L56.6667 39.1667C56.7167 45.1667 56.7001 50.5167 56.6334 51.05C56.4834 52.1667 55.7334 53.7333 54.9167 54.65C54.1167 55.5333 52.2834 56.4667 51.0667 56.6167C50.5167 56.7 45.1667 56.7167 39.1667 56.6667L28.2501 56.5833L27.0501 55.9333C26.3834 55.5833 25.5834 55 25.2501 54.65C24.4334 53.7333 23.6834 52.1667 23.5334 51.05C23.4667 50.5167 23.4501 45.1667 23.5001 39.1667L23.5834 28.25L24.2334 27.05C24.9834 25.65 25.7501 24.9 27.2001 24.1333L28.2501 23.5833L39.1667 23.5C45.1667 23.45 50.5167 23.4667 51.0667 23.55C51.6667 23.6167 52.4667 23.9 53.1834 24.2667Z" fill="#142346"/>
<path d="M35.7833 30.1833C34.5666 30.3667 32.6833 31.3333 31.9166 32.1833C31.0666 33.1333 30.3499 34.6667 30.1666 35.95C29.9666 37.4167 29.9666 42.75 30.1666 44.2167C30.3499 45.5 31.0666 47.0333 31.9166 47.9833C32.7499 48.9 34.5333 49.7833 35.9333 50C37.4166 50.2 42.7499 50.2167 44.2166 50C45.4999 49.8167 47.0333 49.1 47.9833 48.25C48.8999 47.4167 49.7833 45.6333 49.9999 44.2333C50.2166 42.75 50.2166 37.4167 49.9999 35.9333C49.7833 34.5333 48.8999 32.75 47.9833 31.9167C47.0333 31.0667 45.4999 30.35 44.2166 30.1667C42.8666 29.9667 37.1499 29.9833 35.7833 30.1833Z" fill="#142346"/>
<path d="M142.45 16.85C141.233 17.0333 139.35 18 138.583 18.85C137.733 19.8 137.017 21.3333 136.833 22.6167C136.617 24.15 136.617 56.0333 136.833 57.5667C137.05 58.9667 137.933 60.75 138.85 61.5833C139.8 62.4333 141.333 63.15 142.617 63.3333C144.133 63.55 176.033 63.55 177.55 63.3333C178.833 63.15 180.367 62.4333 181.317 61.5833C182.233 60.75 183.117 58.9667 183.333 57.5667C183.433 56.8667 183.5 50.0333 183.5 40.0833C183.5 30.1333 183.433 23.3 183.333 22.6C183.117 21.2 182.233 19.4167 181.317 18.5833C180.367 17.7333 178.833 17.0167 177.55 16.8333C176.15 16.6333 143.833 16.65 142.45 16.85ZM173.183 24.2667C174.517 24.9667 175.283 25.75 176.033 27.2L176.583 28.25L176.667 39.1667C176.717 45.1667 176.7 50.5167 176.633 51.05C176.483 52.1667 175.733 53.7333 174.917 54.65C174.117 55.5333 172.283 56.4667 171.067 56.6167C170.517 56.7 165.167 56.7167 159.167 56.6667L148.25 56.5833L147.05 55.9333C146.383 55.5833 145.583 55 145.25 54.65C144.433 53.7333 143.683 52.1667 143.533 51.05C143.467 50.5167 143.45 45.1667 143.5 39.1667L143.583 28.25L144.233 27.05C144.983 25.65 145.75 24.9 147.2 24.1333L148.25 23.5833L159.167 23.5C165.167 23.45 170.517 23.4667 171.067 23.55C171.667 23.6167 172.467 23.9 173.183 24.2667Z" fill="#142346"/>
<path d="M155.783 30.1833C154.567 30.3666 152.683 31.3333 151.917 32.1833C151.067 33.1333 150.35 34.6666 150.167 35.95C150.083 36.5666 150 38.4333 150 40.0833C150 43.75 150.183 45.0333 150.833 46.35C151.533 47.7333 152.317 48.5333 153.65 49.2333C155.1 50 156.25 50.1666 160.083 50.1666C163.75 50.1666 165.033 49.9833 166.35 49.3333C167.733 48.6333 168.533 47.85 169.233 46.5166C170 45.0666 170.167 43.9166 170.167 40.0833C170.167 38.4333 170.083 36.5666 170 35.9333C169.783 34.5333 168.9 32.75 167.983 31.9166C167.033 31.0666 165.5 30.35 164.217 30.1666C162.867 29.9666 157.15 29.9833 155.783 30.1833Z" fill="#142346"/>
<path d="M85.5332 17.5167C84.0832 18.25 83.4998 19.8667 84.1665 21.25C84.8832 22.75 86.4998 23.35 87.9165 22.6667C89.4165 21.95 90.0165 20.3333 89.3332 18.9167C88.6165 17.4167 86.9332 16.8 85.5332 17.5167Z" fill="#142346"/>
<path d="M118.867 17.5167C117.417 18.25 116.833 19.8667 117.5 21.25C118.217 22.75 119.833 23.35 121.25 22.6667C122.75 21.95 123.35 20.3333 122.667 18.9167C121.95 17.4167 120.267 16.8 118.867 17.5167Z" fill="#142346"/>
<path d="M125.533 17.5167C124.083 18.25 123.5 19.8667 124.167 21.25C124.883 22.75 126.5 23.35 127.917 22.6667C129.417 21.95 130.017 20.3333 129.333 18.9167C128.617 17.4167 126.933 16.8 125.533 17.5167Z" fill="#142346"/>
<path d="M72.2002 24.1834C70.7502 24.9167 70.1668 26.5334 70.8335 27.9167C71.5502 29.4167 73.1668 30.0167 74.5835 29.3334C76.0835 28.6167 76.6835 27 76.0002 25.5834C75.2835 24.0834 73.6002 23.4667 72.2002 24.1834Z" fill="#142346"/>
<path d="M78.8667 24.1834C77.4167 24.9167 76.8333 26.5334 77.5 27.9167C78.2167 29.4167 79.8333 30.0167 81.25 29.3334C82.75 28.6167 83.35 27 82.6667 25.5834C81.95 24.0834 80.2667 23.4667 78.8667 24.1834Z" fill="#142346"/>
<path d="M85.5332 24.1834C84.0832 24.9167 83.4998 26.5334 84.1665 27.9167C84.8832 29.4167 86.4998 30.0167 87.9165 29.3334C89.4165 28.6167 90.0165 27 89.3332 25.5834C88.6165 24.0834 86.9332 23.4667 85.5332 24.1834Z" fill="#142346"/>
<path d="M105.533 24.1834C104.083 24.9167 103.5 26.5334 104.167 27.9167C104.883 29.4167 106.5 30.0167 107.917 29.3334C109.417 28.6167 110.017 27 109.333 25.5834C108.617 24.0834 106.933 23.4667 105.533 24.1834Z" fill="#142346"/>
<path d="M118.867 24.1834C117.417 24.9167 116.833 26.5334 117.5 27.9167C118.217 29.4167 119.833 30.0167 121.25 29.3334C122.75 28.6167 123.35 27 122.667 25.5834C121.95 24.0834 120.267 23.4667 118.867 24.1834Z" fill="#142346"/>
<path d="M125.533 24.1834C124.083 24.9167 123.5 26.5334 124.167 27.9167C124.883 29.4167 126.5 30.0167 127.917 29.3334C129.417 28.6167 130.017 27 129.333 25.5834C128.617 24.0834 126.933 23.4667 125.533 24.1834Z" fill="#142346"/>
<path d="M72.2002 30.85C70.7502 31.5833 70.1668 33.2 70.8335 34.5833C71.5502 36.0833 73.1668 36.6833 74.5835 36C76.0835 35.2833 76.6835 33.6667 76.0002 32.25C75.2835 30.75 73.6002 30.1333 72.2002 30.85Z" fill="#142346"/>
<path d="M112.2 30.85C110.75 31.5833 110.167 33.2 110.834 34.5833C111.55 36.0833 113.167 36.6833 114.584 36C116.084 35.2833 116.684 33.6667 116 32.25C115.284 30.75 113.6 30.1333 112.2 30.85Z" fill="#142346"/>
<path d="M118.867 30.85C117.417 31.5833 116.833 33.2 117.5 34.5833C118.217 36.0833 119.833 36.6833 121.25 36C122.75 35.2833 123.35 33.6667 122.667 32.25C121.95 30.75 120.267 30.1333 118.867 30.85Z" fill="#142346"/>
<path d="M78.8667 37.5167C77.4167 38.25 76.8333 39.8667 77.5 41.25C78.2167 42.75 79.8333 43.35 81.25 42.6667C82.75 41.95 83.35 40.3333 82.6667 38.9167C81.95 37.4167 80.2667 36.8 78.8667 37.5167Z" fill="#142346"/>
<path d="M98.8667 37.5167C97.4167 38.25 96.8333 39.8667 97.5 41.25C98.2167 42.75 99.8333 43.35 101.25 42.6667C102.75 41.95 103.35 40.3333 102.667 38.9167C101.95 37.4167 100.267 36.8 98.8667 37.5167Z" fill="#142346"/>
<path d="M105.533 37.5167C104.083 38.25 103.5 39.8667 104.167 41.25C104.883 42.75 106.5 43.35 107.917 42.6667C109.417 41.95 110.017 40.3333 109.333 38.9167C108.617 37.4167 106.933 36.8 105.533 37.5167Z" fill="#142346"/>
<path d="M112.2 37.5167C110.75 38.25 110.167 39.8667 110.834 41.25C111.55 42.75 113.167 43.35 114.584 42.6667C116.084 41.95 116.684 40.3333 116 38.9167C115.284 37.4167 113.6 36.8 112.2 37.5167Z" fill="#142346"/>
<path d="M72.2002 44.1833C70.7502 44.9166 70.1668 46.5333 70.8335 47.9166C71.5502 49.4166 73.1668 50.0166 74.5835 49.3333C76.0835 48.6166 76.6835 47 76.0002 45.5833C75.2835 44.0833 73.6002 43.4666 72.2002 44.1833Z" fill="#142346"/>
<path d="M78.8667 44.1833C77.4167 44.9166 76.8333 46.5333 77.5 47.9166C78.2167 49.4166 79.8333 50.0166 81.25 49.3333C82.75 48.6166 83.35 47 82.6667 45.5833C81.95 44.0833 80.2667 43.4666 78.8667 44.1833Z" fill="#142346"/>
<path d="M85.5332 44.1833C84.0832 44.9166 83.4998 46.5333 84.1665 47.9166C84.8832 49.4166 86.4998 50.0166 87.9165 49.3333C89.4165 48.6166 90.0165 47 89.3332 45.5833C88.6165 44.0833 86.9332 43.4666 85.5332 44.1833Z" fill="#142346"/>
<path d="M98.8667 44.1833C97.4167 44.9166 96.8333 46.5333 97.5 47.9166C98.2167 49.4166 99.8333 50.0166 101.25 49.3333C102.75 48.6166 103.35 47 102.667 45.5833C101.95 44.0833 100.267 43.4666 98.8667 44.1833Z" fill="#142346"/>
<path d="M112.2 44.1833C110.75 44.9166 110.167 46.5333 110.834 47.9166C111.55 49.4166 113.167 50.0166 114.584 49.3333C116.084 48.6166 116.684 47 116 45.5833C115.284 44.0833 113.6 43.4666 112.2 44.1833Z" fill="#142346"/>
<path d="M125.533 44.1833C124.083 44.9166 123.5 46.5333 124.167 47.9166C124.883 49.4166 126.5 50.0166 127.917 49.3333C129.417 48.6166 130.017 47 129.333 45.5833C128.617 44.0833 126.933 43.4666 125.533 44.1833Z" fill="#142346"/>
<path d="M72.2002 50.85C70.7502 51.5833 70.1668 53.2 70.8335 54.5833C71.5502 56.0833 73.1668 56.6833 74.5835 56C76.0835 55.2833 76.6835 53.6667 76.0002 52.25C75.2835 50.75 73.6002 50.1333 72.2002 50.85Z" fill="#142346"/>
<path d="M85.5332 50.85C84.0832 51.5833 83.4998 53.2 84.1665 54.5833C84.8832 56.0833 86.4998 56.6833 87.9165 56C89.4165 55.2833 90.0165 53.6667 89.3332 52.25C88.6165 50.75 86.9332 50.1333 85.5332 50.85Z" fill="#142346"/>
<path d="M98.8667 50.85C97.4167 51.5833 96.8333 53.2 97.5 54.5833C98.2167 56.0833 99.8333 56.6833 101.25 56C102.75 55.2833 103.35 53.6667 102.667 52.25C101.95 50.75 100.267 50.1333 98.8667 50.85Z" fill="#142346"/>
<path d="M112.2 50.85C110.75 51.5833 110.167 53.2 110.834 54.5833C111.55 56.0833 113.167 56.6833 114.584 56C116.084 55.2833 116.684 53.6667 116 52.25C115.284 50.75 113.6 50.1333 112.2 50.85Z" fill="#142346"/>
<path d="M118.867 50.85C117.417 51.5833 116.833 53.2 117.5 54.5833C118.217 56.0833 119.833 56.6833 121.25 56C122.75 55.2833 123.35 53.6667 122.667 52.25C121.95 50.75 120.267 50.1333 118.867 50.85Z" fill="#142346"/>
<path d="M125.533 50.85C124.083 51.5833 123.5 53.2 124.167 54.5833C124.883 56.0833 126.5 56.6833 127.917 56C129.417 55.2833 130.017 53.6667 129.333 52.25C128.617 50.75 126.933 50.1333 125.533 50.85Z" fill="#142346"/>
<path d="M72.2002 57.5167C70.7502 58.25 70.1668 59.8667 70.8335 61.25C71.5502 62.75 73.1668 63.35 74.5835 62.6667C76.0835 61.95 76.6835 60.3333 76.0002 58.9167C75.2835 57.4167 73.6002 56.8 72.2002 57.5167Z" fill="#142346"/>
<path d="M85.5332 57.5167C84.0832 58.25 83.4998 59.8667 84.1665 61.25C84.8832 62.75 86.4998 63.35 87.9165 62.6667C89.4165 61.95 90.0165 60.3333 89.3332 58.9167C88.6165 57.4167 86.9332 56.8 85.5332 57.5167Z" fill="#142346"/>
<path d="M98.8667 57.5167C97.4167 58.25 96.8333 59.8667 97.5 61.25C98.2167 62.75 99.8333 63.35 101.25 62.6667C102.75 61.95 103.35 60.3333 102.667 58.9167C101.95 57.4167 100.267 56.8 98.8667 57.5167Z" fill="#142346"/>
<path d="M112.2 57.5167C110.75 58.25 110.167 59.8667 110.834 61.25C111.55 62.75 113.167 63.35 114.584 62.6667C116.084 61.95 116.684 60.3333 116 58.9167C115.284 57.4167 113.6 56.8 112.2 57.5167Z" fill="#142346"/>
<path d="M125.533 57.5167C124.083 58.25 123.5 59.8667 124.167 61.25C124.883 62.75 126.5 63.35 127.917 62.6667C129.417 61.95 130.017 60.3333 129.333 58.9167C128.617 57.4167 126.933 56.8 125.533 57.5167Z" fill="#142346"/>
<path d="M72.2002 64.1833C70.7502 64.9166 70.1668 66.5333 70.8335 67.9166C71.5502 69.4166 73.1668 70.0166 74.5835 69.3333C76.0835 68.6166 76.6835 67 76.0002 65.5833C75.2835 64.0833 73.6002 63.4666 72.2002 64.1833Z" fill="#142346"/>
<path d="M85.5332 64.1833C84.0832 64.9166 83.4998 66.5333 84.1665 67.9166C84.8832 69.4166 86.4998 70.0166 87.9165 69.3333C89.4165 68.6166 90.0165 67 89.3332 65.5833C88.6165 64.0833 86.9332 63.4666 85.5332 64.1833Z" fill="#142346"/>
<path d="M92.2002 64.1833C90.7502 64.9166 90.1668 66.5333 90.8335 67.9166C91.5502 69.4166 93.1668 70.0166 94.5835 69.3333C96.0835 68.6166 96.6835 67 96.0002 65.5833C95.2835 64.0833 93.6002 63.4666 92.2002 64.1833Z" fill="#142346"/>
<path d="M112.2 64.1833C110.75 64.9166 110.167 66.5333 110.834 67.9166C111.55 69.4166 113.167 70.0166 114.584 69.3333C116.084 68.6166 116.684 67 116 65.5833C115.284 64.0833 113.6 63.4666 112.2 64.1833Z" fill="#142346"/>
<path d="M125.533 64.1833C124.083 64.9166 123.5 66.5333 124.167 67.9166C124.883 69.4166 126.5 70.0166 127.917 69.3333C129.417 68.6166 130.017 67 129.333 65.5833C128.617 64.0833 126.933 63.4666 125.533 64.1833Z" fill="#142346"/>
<path d="M18.8667 70.85C17.4167 71.5833 16.8333 73.2 17.5 74.5833C18.2167 76.0833 19.8333 76.6833 21.25 76C22.75 75.2833 23.35 73.6667 22.6667 72.25C21.95 70.75 20.2667 70.1333 18.8667 70.85Z" fill="#142346"/>
<path d="M25.5332 70.85C24.0832 71.5833 23.4998 73.2 24.1665 74.5833C24.8832 76.0833 26.4998 76.6833 27.9165 76C29.4165 75.2833 30.0165 73.6667 29.3332 72.25C28.6165 70.75 26.9332 70.1333 25.5332 70.85Z" fill="#142346"/>
<path d="M38.8667 70.85C37.4167 71.5833 36.8333 73.2 37.5 74.5833C38.2167 76.0833 39.8333 76.6833 41.25 76C42.75 75.2833 43.35 73.6667 42.6667 72.25C41.95 70.75 40.2667 70.1333 38.8667 70.85Z" fill="#142346"/>
<path d="M58.8667 70.85C57.4167 71.5833 56.8333 73.2 57.5 74.5833C58.2167 76.0833 59.8333 76.6833 61.25 76C62.75 75.2833 63.35 73.6667 62.6667 72.25C61.95 70.75 60.2667 70.1333 58.8667 70.85Z" fill="#142346"/>
<path d="M65.5332 70.85C64.0832 71.5833 63.4998 73.2 64.1665 74.5833C64.8832 76.0833 66.4998 76.6833 67.9165 76C69.4165 75.2833 70.0165 73.6667 69.3332 72.25C68.6165 70.75 66.9332 70.1333 65.5332 70.85Z" fill="#142346"/>
<path d="M92.2002 70.85C90.7502 71.5833 90.1668 73.2 90.8335 74.5833C91.5502 76.0833 93.1668 76.6833 94.5835 76C96.0835 75.2833 96.6835 73.6667 96.0002 72.25C95.2835 70.75 93.6002 70.1333 92.2002 70.85Z" fill="#142346"/>
<path d="M98.8667 70.85C97.4167 71.5833 96.8333 73.2 97.5 74.5833C98.2167 76.0833 99.8333 76.6833 101.25 76C102.75 75.2833 103.35 73.6667 102.667 72.25C101.95 70.75 100.267 70.1333 98.8667 70.85Z" fill="#142346"/>
<path d="M105.533 70.85C104.083 71.5833 103.5 73.2 104.167 74.5833C104.883 76.0833 106.5 76.6833 107.917 76C109.417 75.2833 110.017 73.6667 109.333 72.25C108.617 70.75 106.933 70.1333 105.533 70.85Z" fill="#142346"/>
<path d="M138.867 70.85C137.417 71.5833 136.833 73.2 137.5 74.5833C138.217 76.0833 139.833 76.6833 141.25 76C142.75 75.2833 143.35 73.6667 142.667 72.25C141.95 70.75 140.267 70.1333 138.867 70.85Z" fill="#142346"/>
<path d="M145.533 70.85C144.083 71.5833 143.5 73.2 144.167 74.5833C144.883 76.0833 146.5 76.6833 147.917 76C149.417 75.2833 150.017 73.6667 149.333 72.25C148.617 70.75 146.933 70.1333 145.533 70.85Z" fill="#142346"/>
<path d="M152.2 70.85C150.75 71.5833 150.167 73.2 150.834 74.5833C151.55 76.0833 153.167 76.6833 154.584 76C156.084 75.2833 156.684 73.6667 156 72.25C155.284 70.75 153.6 70.1333 152.2 70.85Z" fill="#142346"/>
<path d="M165.533 70.85C164.083 71.5833 163.5 73.2 164.167 74.5833C164.883 76.0833 166.5 76.6833 167.917 76C169.417 75.2833 170.017 73.6667 169.333 72.25C168.617 70.75 166.933 70.1333 165.533 70.85Z" fill="#142346"/>
<path d="M172.2 70.85C170.75 71.5833 170.167 73.2 170.834 74.5833C171.55 76.0833 173.167 76.6833 174.584 76C176.084 75.2833 176.684 73.6667 176 72.25C175.284 70.75 173.6 70.1333 172.2 70.85Z" fill="#142346"/>
<path d="M18.8667 77.5167C17.4167 78.25 16.8333 79.8667 17.5 81.25C18.2167 82.75 19.8333 83.35 21.25 82.6667C22.75 81.95 23.35 80.3333 22.6667 78.9167C21.95 77.4167 20.2667 76.8 18.8667 77.5167Z" fill="#142346"/>
<path d="M32.2002 77.5167C30.7502 78.25 30.1668 79.8667 30.8335 81.25C31.5502 82.75 33.1668 83.35 34.5835 82.6667C36.0835 81.95 36.6835 80.3333 36.0002 78.9167C35.2835 77.4167 33.6002 76.8 32.2002 77.5167Z" fill="#142346"/>
<path d="M38.8667 77.5167C37.4167 78.25 36.8333 79.8667 37.5 81.25C38.2167 82.75 39.8333 83.35 41.25 82.6667C42.75 81.95 43.35 80.3333 42.6667 78.9167C41.95 77.4167 40.2667 76.8 38.8667 77.5167Z" fill="#142346"/>
<path d="M45.5332 77.5167C44.0832 78.25 43.4998 79.8667 44.1665 81.25C44.8832 82.75 46.4998 83.35 47.9165 82.6667C49.4165 81.95 50.0165 80.3333 49.3332 78.9167C48.6165 77.4167 46.9332 76.8 45.5332 77.5167Z" fill="#142346"/>
<path d="M65.5332 77.5167C64.0832 78.25 63.4998 79.8667 64.1665 81.25C64.8832 82.75 66.4998 83.35 67.9165 82.6667C69.4165 81.95 70.0165 80.3333 69.3332 78.9167C68.6165 77.4167 66.9332 76.8 65.5332 77.5167Z" fill="#142346"/>
<path d="M78.8667 77.5167C77.4167 78.25 76.8333 79.8667 77.5 81.25C78.2167 82.75 79.8333 83.35 81.25 82.6667C82.75 81.95 83.35 80.3333 82.6667 78.9167C81.95 77.4167 80.2667 76.8 78.8667 77.5167Z" fill="#142346"/>
<path d="M92.2002 77.5167C90.7502 78.25 90.1668 79.8667 90.8335 81.25C91.5502 82.75 93.1668 83.35 94.5835 82.6667C96.0835 81.95 96.6835 80.3333 96.0002 78.9167C95.2835 77.4167 93.6002 76.8 92.2002 77.5167Z" fill="#142346"/>
<path d="M98.8667 77.5167C97.4167 78.25 96.8333 79.8667 97.5 81.25C98.2167 82.75 99.8333 83.35 101.25 82.6667C102.75 81.95 103.35 80.3333 102.667 78.9167C101.95 77.4167 100.267 76.8 98.8667 77.5167Z" fill="#142346"/>
<path d="M112.2 77.5167C110.75 78.25 110.167 79.8667 110.834 81.25C111.55 82.75 113.167 83.35 114.584 82.6667C116.084 81.95 116.684 80.3333 116 78.9167C115.284 77.4167 113.6 76.8 112.2 77.5167Z" fill="#142346"/>
<path d="M132.2 77.5167C130.75 78.25 130.167 79.8667 130.834 81.25C131.55 82.75 133.167 83.35 134.584 82.6667C136.084 81.95 136.684 80.3333 136 78.9167C135.284 77.4167 133.6 76.8 132.2 77.5167Z" fill="#142346"/>
<path d="M138.867 77.5167C137.417 78.25 136.833 79.8667 137.5 81.25C138.217 82.75 139.833 83.35 141.25 82.6667C142.75 81.95 143.35 80.3333 142.667 78.9167C141.95 77.4167 140.267 76.8 138.867 77.5167Z" fill="#142346"/>
<path d="M178.867 77.5167C177.417 78.25 176.833 79.8667 177.5 81.25C178.217 82.75 179.833 83.35 181.25 82.6667C182.75 81.95 183.35 80.3333 182.667 78.9167C181.95 77.4167 180.267 76.8 178.867 77.5167Z" fill="#142346"/>
<path d="M45.5332 84.1833C44.0832 84.9166 43.4998 86.5333 44.1665 87.9166C44.8832 89.4166 46.4998 90.0166 47.9165 89.3333C49.4165 88.6166 50.0165 87 49.3332 85.5833C48.6165 84.0833 46.9332 83.4666 45.5332 84.1833Z" fill="#142346"/>
<path d="M52.2002 84.1833C50.7502 84.9166 50.1668 86.5333 50.8335 87.9166C51.5502 89.4166 53.1668 90.0166 54.5835 89.3333C56.0835 88.6166 56.6835 87 56.0002 85.5833C55.2835 84.0833 53.6002 83.4666 52.2002 84.1833Z" fill="#142346"/>
<path d="M58.8667 84.1833C57.4167 84.9166 56.8333 86.5333 57.5 87.9166C58.2167 89.4166 59.8333 90.0166 61.25 89.3333C62.75 88.6166 63.35 87 62.6667 85.5833C61.95 84.0833 60.2667 83.4666 58.8667 84.1833Z" fill="#142346"/>
<path d="M72.2002 84.1833C70.7502 84.9166 70.1668 86.5333 70.8335 87.9166C71.5502 89.4166 73.1668 90.0166 74.5835 89.3333C76.0835 88.6166 76.6835 87 76.0002 85.5833C75.2835 84.0833 73.6002 83.4666 72.2002 84.1833Z" fill="#142346"/>
<path d="M92.2002 84.1833C90.7502 84.9166 90.1668 86.5333 90.8335 87.9166C91.5502 89.4166 93.1668 90.0166 94.5835 89.3333C96.0835 88.6166 96.6835 87 96.0002 85.5833C95.2835 84.0833 93.6002 83.4666 92.2002 84.1833Z" fill="#142346"/>
<path d="M98.8667 84.1833C97.4167 84.9166 96.8333 86.5333 97.5 87.9166C98.2167 89.4166 99.8333 90.0166 101.25 89.3333C102.75 88.6166 103.35 87 102.667 85.5833C101.95 84.0833 100.267 83.4666 98.8667 84.1833Z" fill="#142346"/>
<path d="M105.533 84.1833C104.083 84.9166 103.5 86.5333 104.167 87.9166C104.883 89.4166 106.5 90.0166 107.917 89.3333C109.417 88.6166 110.017 87 109.333 85.5833C108.617 84.0833 106.933 83.4666 105.533 84.1833Z" fill="#142346"/>
<path d="M112.2 84.1833C110.75 84.9166 110.167 86.5333 110.834 87.9166C111.55 89.4166 113.167 90.0166 114.584 89.3333C116.084 88.6166 116.684 87 116 85.5833C115.284 84.0833 113.6 83.4666 112.2 84.1833Z" fill="#142346"/>
<path d="M125.533 84.1833C124.083 84.9166 123.5 86.5333 124.167 87.9166C124.883 89.4166 126.5 90.0166 127.917 89.3333C129.417 88.6166 130.017 87 129.333 85.5833C128.617 84.0833 126.933 83.4666 125.533 84.1833Z" fill="#142346"/>
<path d="M145.533 84.1833C144.083 84.9166 143.5 86.5333 144.167 87.9166C144.883 89.4166 146.5 90.0166 147.917 89.3333C149.417 88.6166 150.017 87 149.333 85.5833C148.617 84.0833 146.933 83.4666 145.533 84.1833Z" fill="#142346"/>
<path d="M172.2 84.1833C170.75 84.9166 170.167 86.5333 170.834 87.9166C171.55 89.4166 173.167 90.0166 174.584 89.3333C176.084 88.6166 176.684 87 176 85.5833C175.284 84.0833 173.6 83.4666 172.2 84.1833Z" fill="#142346"/>
<path d="M178.867 84.1833C177.417 84.9166 176.833 86.5333 177.5 87.9166C178.217 89.4166 179.833 90.0166 181.25 89.3333C182.75 88.6166 183.35 87 182.667 85.5833C181.95 84.0833 180.267 83.4666 178.867 84.1833Z" fill="#142346"/>
<path d="M25.5332 90.85C24.0832 91.5833 23.4998 93.2 24.1665 94.5833C24.8832 96.0833 26.4998 96.6833 27.9165 96C29.4165 95.2833 30.0165 93.6667 29.3332 92.25C28.6165 90.75 26.9332 90.1333 25.5332 90.85Z" fill="#142346"/>
<path d="M52.2002 90.85C50.7502 91.5833 50.1668 93.2 50.8335 94.5833C51.5502 96.0833 53.1668 96.6833 54.5835 96C56.0835 95.2833 56.6835 93.6667 56.0002 92.25C55.2835 90.75 53.6002 90.1333 52.2002 90.85Z" fill="#142346"/>
<path d="M65.5332 90.85C64.0832 91.5833 63.4998 93.2 64.1665 94.5833C64.8832 96.0833 66.4998 96.6833 67.9165 96C69.4165 95.2833 70.0165 93.6667 69.3332 92.25C68.6165 90.75 66.9332 90.1333 65.5332 90.85Z" fill="#142346"/>
<path d="M72.2002 90.85C70.7502 91.5833 70.1668 93.2 70.8335 94.5833C71.5502 96.0833 73.1668 96.6833 74.5835 96C76.0835 95.2833 76.6835 93.6667 76.0002 92.25C75.2835 90.75 73.6002 90.1333 72.2002 90.85Z" fill="#142346"/>
<path d="M78.8667 90.85C77.4167 91.5833 76.8333 93.2 77.5 94.5833C78.2167 96.0833 79.8333 96.6833 81.25 96C82.75 95.2833 83.35 93.6667 82.6667 92.25C81.95 90.75 80.2667 90.1333 78.8667 90.85Z" fill="#142346"/>
<path d="M85.5332 90.85C84.0832 91.5833 83.4998 93.2 84.1665 94.5833C84.8832 96.0833 86.4998 96.6833 87.9165 96C89.4165 95.2833 90.0165 93.6667 89.3332 92.25C88.6165 90.75 86.9332 90.1333 85.5332 90.85Z" fill="#142346"/>
<path d="M92.2002 90.85C90.7502 91.5833 90.1668 93.2 90.8335 94.5833C91.5502 96.0833 93.1668 96.6833 94.5835 96C96.0835 95.2833 96.6835 93.6667 96.0002 92.25C95.2835 90.75 93.6002 90.1333 92.2002 90.85Z" fill="#142346"/>
<path d="M98.8667 90.85C97.4167 91.5833 96.8333 93.2 97.5 94.5833C98.2167 96.0833 99.8333 96.6833 101.25 96C102.75 95.2833 103.35 93.6667 102.667 92.25C101.95 90.75 100.267 90.1333 98.8667 90.85Z" fill="#142346"/>
<path d="M105.533 90.85C104.083 91.5833 103.5 93.2 104.167 94.5833C104.883 96.0833 106.5 96.6833 107.917 96C109.417 95.2833 110.017 93.6667 109.333 92.25C108.617 90.75 106.933 90.1333 105.533 90.85Z" fill="#142346"/>
<path d="M125.533 90.85C124.083 91.5833 123.5 93.2 124.167 94.5833C124.883 96.0833 126.5 96.6833 127.917 96C129.417 95.2833 130.017 93.6667 129.333 92.25C128.617 90.75 126.933 90.1333 125.533 90.85Z" fill="#142346"/>
<path d="M132.2 90.85C130.75 91.5833 130.167 93.2 130.834 94.5833C131.55 96.0833 133.167 96.6833 134.584 96C136.084 95.2833 136.684 93.6667 136 92.25C135.284 90.75 133.6 90.1333 132.2 90.85Z" fill="#142346"/>
<path d="M145.533 90.85C144.083 91.5833 143.5 93.2 144.167 94.5833C144.883 96.0833 146.5 96.6833 147.917 96C149.417 95.2833 150.017 93.6667 149.333 92.25C148.617 90.75 146.933 90.1333 145.533 90.85Z" fill="#142346"/>
<path d="M152.2 90.85C150.75 91.5833 150.167 93.2 150.834 94.5833C151.55 96.0833 153.167 96.6833 154.584 96C156.084 95.2833 156.684 93.6667 156 92.25C155.284 90.75 153.6 90.1333 152.2 90.85Z" fill="#142346"/>
<path d="M18.8667 97.5167C17.4167 98.25 16.8333 99.8667 17.5 101.25C18.2167 102.75 19.8333 103.35 21.25 102.667C22.75 101.95 23.35 100.333 22.6667 98.9167C21.95 97.4167 20.2667 96.8 18.8667 97.5167Z" fill="#142346"/>
<path d="M25.5332 97.5167C24.0832 98.25 23.4998 99.8667 24.1665 101.25C24.8832 102.75 26.4998 103.35 27.9165 102.667C29.4165 101.95 30.0165 100.333 29.3332 98.9167C28.6165 97.4167 26.9332 96.8 25.5332 97.5167Z" fill="#142346"/>
<path d="M45.5332 97.5167C44.0832 98.25 43.4998 99.8667 44.1665 101.25C44.8832 102.75 46.4998 103.35 47.9165 102.667C49.4165 101.95 50.0165 100.333 49.3332 98.9167C48.6165 97.4167 46.9332 96.8 45.5332 97.5167Z" fill="#142346"/>
<path d="M58.8667 97.5167C57.4167 98.25 56.8333 99.8667 57.5 101.25C58.2167 102.75 59.8333 103.35 61.25 102.667C62.75 101.95 63.35 100.333 62.6667 98.9167C61.95 97.4167 60.2667 96.8 58.8667 97.5167Z" fill="#142346"/>
<path d="M72.2002 97.5167C70.7502 98.25 70.1668 99.8667 70.8335 101.25C71.5502 102.75 73.1668 103.35 74.5835 102.667C76.0835 101.95 76.6835 100.333 76.0002 98.9167C75.2835 97.4167 73.6002 96.8 72.2002 97.5167Z" fill="#142346"/>
<path d="M85.5332 97.5167C84.0832 98.25 83.4998 99.8667 84.1665 101.25C84.8832 102.75 86.4998 103.35 87.9165 102.667C89.4165 101.95 90.0165 100.333 89.3332 98.9167C88.6165 97.4167 86.9332 96.8 85.5332 97.5167Z" fill="#142346"/>
<path d="M92.2002 97.5167C90.7502 98.25 90.1668 99.8667 90.8335 101.25C91.5502 102.75 93.1668 103.35 94.5835 102.667C96.0835 101.95 96.6835 100.333 96.0002 98.9167C95.2835 97.4167 93.6002 96.8 92.2002 97.5167Z" fill="#142346"/>
<path d="M105.533 97.5167C104.083 98.25 103.5 99.8667 104.167 101.25C104.883 102.75 106.5 103.35 107.917 102.667C109.417 101.95 110.017 100.333 109.333 98.9167C108.617 97.4167 106.933 96.8 105.533 97.5167Z" fill="#142346"/>
<path d="M118.867 97.5167C117.417 98.25 116.833 99.8667 117.5 101.25C118.217 102.75 119.833 103.35 121.25 102.667C122.75 101.95 123.35 100.333 122.667 98.9167C121.95 97.4167 120.267 96.8 118.867 97.5167Z" fill="#142346"/>
<path d="M125.533 97.5167C124.083 98.25 123.5 99.8667 124.167 101.25C124.883 102.75 126.5 103.35 127.917 102.667C129.417 101.95 130.017 100.333 129.333 98.9167C128.617 97.4167 126.933 96.8 125.533 97.5167Z" fill="#142346"/>
<path d="M132.2 97.5167C130.75 98.25 130.167 99.8667 130.834 101.25C131.55 102.75 133.167 103.35 134.584 102.667C136.084 101.95 136.684 100.333 136 98.9167C135.284 97.4167 133.6 96.8 132.2 97.5167Z" fill="#142346"/>
<path d="M138.867 97.5167C137.417 98.25 136.833 99.8667 137.5 101.25C138.217 102.75 139.833 103.35 141.25 102.667C142.75 101.95 143.35 100.333 142.667 98.9167C141.95 97.4167 140.267 96.8 138.867 97.5167Z" fill="#142346"/>
<path d="M158.867 97.5167C157.417 98.25 156.833 99.8667 157.5 101.25C158.217 102.75 159.833 103.35 161.25 102.667C162.75 101.95 163.35 100.333 162.667 98.9167C161.95 97.4167 160.267 96.8 158.867 97.5167Z" fill="#142346"/>
<path d="M172.2 97.5167C170.75 98.25 170.167 99.8667 170.834 101.25C171.55 102.75 173.167 103.35 174.584 102.667C176.084 101.95 176.684 100.333 176 98.9167C175.284 97.4167 173.6 96.8 172.2 97.5167Z" fill="#142346"/>
<path d="M178.867 97.5167C177.417 98.25 176.833 99.8667 177.5 101.25C178.217 102.75 179.833 103.35 181.25 102.667C182.75 101.95 183.35 100.333 182.667 98.9167C181.95 97.4167 180.267 96.8 178.867 97.5167Z" fill="#142346"/>
<path d="M25.5332 104.183C24.0832 104.917 23.4998 106.533 24.1665 107.917C24.8832 109.417 26.4998 110.017 27.9165 109.333C29.4165 108.617 30.0165 107 29.3332 105.583C28.6165 104.083 26.9332 103.467 25.5332 104.183Z" fill="#142346"/>
<path d="M32.2002 104.183C30.7502 104.917 30.1668 106.533 30.8335 107.917C31.5502 109.417 33.1668 110.017 34.5835 109.333C36.0835 108.617 36.6835 107 36.0002 105.583C35.2835 104.083 33.6002 103.467 32.2002 104.183Z" fill="#142346"/>
<path d="M38.8667 104.183C37.4167 104.917 36.8333 106.533 37.5 107.917C38.2167 109.417 39.8333 110.017 41.25 109.333C42.75 108.617 43.35 107 42.6667 105.583C41.95 104.083 40.2667 103.467 38.8667 104.183Z" fill="#142346"/>
<path d="M45.5332 104.183C44.0832 104.917 43.4998 106.533 44.1665 107.917C44.8832 109.417 46.4998 110.017 47.9165 109.333C49.4165 108.617 50.0165 107 49.3332 105.583C48.6165 104.083 46.9332 103.467 45.5332 104.183Z" fill="#142346"/>
<path d="M52.2002 104.183C50.7502 104.917 50.1668 106.533 50.8335 107.917C51.5502 109.417 53.1668 110.017 54.5835 109.333C56.0835 108.617 56.6835 107 56.0002 105.583C55.2835 104.083 53.6002 103.467 52.2002 104.183Z" fill="#142346"/>
<path d="M65.5332 104.183C64.0832 104.917 63.4998 106.533 64.1665 107.917C64.8832 109.417 66.4998 110.017 67.9165 109.333C69.4165 108.617 70.0165 107 69.3332 105.583C68.6165 104.083 66.9332 103.467 65.5332 104.183Z" fill="#142346"/>
<path d="M72.2002 104.183C70.7502 104.917 70.1668 106.533 70.8335 107.917C71.5502 109.417 73.1668 110.017 74.5835 109.333C76.0835 108.617 76.6835 107 76.0002 105.583C75.2835 104.083 73.6002 103.467 72.2002 104.183Z" fill="#142346"/>
<path d="M92.2002 104.183C90.7502 104.917 90.1668 106.533 90.8335 107.917C91.5502 109.417 93.1668 110.017 94.5835 109.333C96.0835 108.617 96.6835 107 96.0002 105.583C95.2835 104.083 93.6002 103.467 92.2002 104.183Z" fill="#142346"/>
<path d="M105.533 104.183C104.083 104.917 103.5 106.533 104.167 107.917C104.883 109.417 106.5 110.017 107.917 109.333C109.417 108.617 110.017 107 109.333 105.583C108.617 104.083 106.933 103.467 105.533 104.183Z" fill="#142346"/>
<path d="M125.533 104.183C124.083 104.917 123.5 106.533 124.167 107.917C124.883 109.417 126.5 110.017 127.917 109.333C129.417 108.617 130.017 107 129.333 105.583C128.617 104.083 126.933 103.467 125.533 104.183Z" fill="#142346"/>
<path d="M138.867 104.183C137.417 104.917 136.833 106.533 137.5 107.917C138.217 109.417 139.833 110.017 141.25 109.333C142.75 108.617 143.35 107 142.667 105.583C141.95 104.083 140.267 103.467 138.867 104.183Z" fill="#142346"/>
<path d="M145.533 104.183C144.083 104.917 143.5 106.533 144.167 107.917C144.883 109.417 146.5 110.017 147.917 109.333C149.417 108.617 150.017 107 149.333 105.583C148.617 104.083 146.933 103.467 145.533 104.183Z" fill="#142346"/>
<path d="M158.867 104.183C157.417 104.917 156.833 106.533 157.5 107.917C158.217 109.417 159.833 110.017 161.25 109.333C162.75 108.617 163.35 107 162.667 105.583C161.95 104.083 160.267 103.467 158.867 104.183Z" fill="#142346"/>
<path d="M165.533 104.183C164.083 104.917 163.5 106.533 164.167 107.917C164.883 109.417 166.5 110.017 167.917 109.333C169.417 108.617 170.017 107 169.333 105.583C168.617 104.083 166.933 103.467 165.533 104.183Z" fill="#142346"/>
<path d="M178.867 104.183C177.417 104.917 176.833 106.533 177.5 107.917C178.217 109.417 179.833 110.017 181.25 109.333C182.75 108.617 183.35 107 182.667 105.583C181.95 104.083 180.267 103.467 178.867 104.183Z" fill="#142346"/>
<path d="M18.8667 110.85C17.4167 111.583 16.8333 113.2 17.5 114.583C18.2167 116.083 19.8333 116.683 21.25 116C22.75 115.283 23.35 113.667 22.6667 112.25C21.95 110.75 20.2667 110.133 18.8667 110.85Z" fill="#142346"/>
<path d="M38.8667 110.85C37.4167 111.583 36.8333 113.2 37.5 114.583C38.2167 116.083 39.8333 116.683 41.25 116C42.75 115.283 43.35 113.667 42.6667 112.25C41.95 110.75 40.2667 110.133 38.8667 110.85Z" fill="#142346"/>
<path d="M52.2002 110.85C50.7502 111.583 50.1668 113.2 50.8335 114.583C51.5502 116.083 53.1668 116.683 54.5835 116C56.0835 115.283 56.6835 113.667 56.0002 112.25C55.2835 110.75 53.6002 110.133 52.2002 110.85Z" fill="#142346"/>
<path d="M58.8667 110.85C57.4167 111.583 56.8333 113.2 57.5 114.583C58.2167 116.083 59.8333 116.683 61.25 116C62.75 115.283 63.35 113.667 62.6667 112.25C61.95 110.75 60.2667 110.133 58.8667 110.85Z" fill="#142346"/>
<path d="M65.5332 110.85C64.0832 111.583 63.4998 113.2 64.1665 114.583C64.8832 116.083 66.4998 116.683 67.9165 116C69.4165 115.283 70.0165 113.667 69.3332 112.25C68.6165 110.75 66.9332 110.133 65.5332 110.85Z" fill="#142346"/>
<path d="M78.8667 110.85C77.4167 111.583 76.8333 113.2 77.5 114.583C78.2167 116.083 79.8333 116.683 81.25 116C82.75 115.283 83.35 113.667 82.6667 112.25C81.95 110.75 80.2667 110.133 78.8667 110.85Z" fill="#142346"/>
<path d="M85.5332 110.85C84.0832 111.583 83.4998 113.2 84.1665 114.583C84.8832 116.083 86.4998 116.683 87.9165 116C89.4165 115.283 90.0165 113.667 89.3332 112.25C88.6165 110.75 86.9332 110.133 85.5332 110.85Z" fill="#142346"/>
<path d="M92.2002 110.85C90.7502 111.583 90.1668 113.2 90.8335 114.583C91.5502 116.083 93.1668 116.683 94.5835 116C96.0835 115.283 96.6835 113.667 96.0002 112.25C95.2835 110.75 93.6002 110.133 92.2002 110.85Z" fill="#142346"/>
<path d="M105.533 110.85C104.083 111.583 103.5 113.2 104.167 114.583C104.883 116.083 106.5 116.683 107.917 116C109.417 115.283 110.017 113.667 109.333 112.25C108.617 110.75 106.933 110.133 105.533 110.85Z" fill="#142346"/>
<path d="M138.867 110.85C137.417 111.583 136.833 113.2 137.5 114.583C138.217 116.083 139.833 116.683 141.25 116C142.75 115.283 143.35 113.667 142.667 112.25C141.95 110.75 140.267 110.133 138.867 110.85Z" fill="#142346"/>
<path d="M145.533 110.85C144.083 111.583 143.5 113.2 144.167 114.583C144.883 116.083 146.5 116.683 147.917 116C149.417 115.283 150.017 113.667 149.333 112.25C148.617 110.75 146.933 110.133 145.533 110.85Z" fill="#142346"/>
<path d="M152.2 110.85C150.75 111.583 150.167 113.2 150.834 114.583C151.55 116.083 153.167 116.683 154.584 116C156.084 115.283 156.684 113.667 156 112.25C155.284 110.75 153.6 110.133 152.2 110.85Z" fill="#142346"/>
<path d="M165.533 110.85C164.083 111.583 163.5 113.2 164.167 114.583C164.883 116.083 166.5 116.683 167.917 116C169.417 115.283 170.017 113.667 169.333 112.25C168.617 110.75 166.933 110.133 165.533 110.85Z" fill="#142346"/>
<path d="M178.867 110.85C177.417 111.583 176.833 113.2 177.5 114.583C178.217 116.083 179.833 116.683 181.25 116C182.75 115.283 183.35 113.667 182.667 112.25C181.95 110.75 180.267 110.133 178.867 110.85Z" fill="#142346"/>
<path d="M25.5332 117.517C24.0832 118.25 23.4998 119.867 24.1665 121.25C24.8832 122.75 26.4998 123.35 27.9165 122.667C29.4165 121.95 30.0165 120.333 29.3332 118.917C28.6165 117.417 26.9332 116.8 25.5332 117.517Z" fill="#142346"/>
<path d="M32.2002 117.517C30.7502 118.25 30.1668 119.867 30.8335 121.25C31.5502 122.75 33.1668 123.35 34.5835 122.667C36.0835 121.95 36.6835 120.333 36.0002 118.917C35.2835 117.417 33.6002 116.8 32.2002 117.517Z" fill="#142346"/>
<path d="M45.5332 117.517C44.0832 118.25 43.4998 119.867 44.1665 121.25C44.8832 122.75 46.4998 123.35 47.9165 122.667C49.4165 121.95 50.0165 120.333 49.3332 118.917C48.6165 117.417 46.9332 116.8 45.5332 117.517Z" fill="#142346"/>
<path d="M78.8667 117.517C77.4167 118.25 76.8333 119.867 77.5 121.25C78.2167 122.75 79.8333 123.35 81.25 122.667C82.75 121.95 83.35 120.333 82.6667 118.917C81.95 117.417 80.2667 116.8 78.8667 117.517Z" fill="#142346"/>
<path d="M92.2002 117.517C90.7502 118.25 90.1668 119.867 90.8335 121.25C91.5502 122.75 93.1668 123.35 94.5835 122.667C96.0835 121.95 96.6835 120.333 96.0002 118.917C95.2835 117.417 93.6002 116.8 92.2002 117.517Z" fill="#142346"/>
<path d="M105.533 117.517C104.083 118.25 103.5 119.867 104.167 121.25C104.883 122.75 106.5 123.35 107.917 122.667C109.417 121.95 110.017 120.333 109.333 118.917C108.617 117.417 106.933 116.8 105.533 117.517Z" fill="#142346"/>
<path d="M118.867 117.517C117.417 118.25 116.833 119.867 117.5 121.25C118.217 122.75 119.833 123.35 121.25 122.667C122.75 121.95 123.35 120.333 122.667 118.917C121.95 117.417 120.267 116.8 118.867 117.517Z" fill="#142346"/>
<path d="M132.2 117.517C130.75 118.25 130.167 119.867 130.834 121.25C131.55 122.75 133.167 123.35 134.584 122.667C136.084 121.95 136.684 120.333 136 118.917C135.284 117.417 133.6 116.8 132.2 117.517Z" fill="#142346"/>
<path d="M152.2 117.517C150.75 118.25 150.167 119.867 150.834 121.25C151.55 122.75 153.167 123.35 154.584 122.667C156.084 121.95 156.684 120.333 156 118.917C155.284 117.417 153.6 116.8 152.2 117.517Z" fill="#142346"/>
<path d="M172.2 117.517C170.75 118.25 170.167 119.867 170.834 121.25C171.55 122.75 173.167 123.35 174.584 122.667C176.084 121.95 176.684 120.333 176 118.917C175.284 117.417 173.6 116.8 172.2 117.517Z" fill="#142346"/>
<path d="M18.8667 124.183C17.4167 124.917 16.8333 126.533 17.5 127.917C18.2167 129.417 19.8333 130.017 21.25 129.333C22.75 128.617 23.35 127 22.6667 125.583C21.95 124.083 20.2667 123.467 18.8667 124.183Z" fill="#142346"/>
<path d="M25.5332 124.183C24.0832 124.917 23.4998 126.533 24.1665 127.917C24.8832 129.417 26.4998 130.017 27.9165 129.333C29.4165 128.617 30.0165 127 29.3332 125.583C28.6165 124.083 26.9332 123.467 25.5332 124.183Z" fill="#142346"/>
<path d="M32.2002 124.183C30.7502 124.917 30.1668 126.533 30.8335 127.917C31.5502 129.417 33.1668 130.017 34.5835 129.333C36.0835 128.617 36.6835 127 36.0002 125.583C35.2835 124.083 33.6002 123.467 32.2002 124.183Z" fill="#142346"/>
<path d="M45.5332 124.183C44.0832 124.917 43.4998 126.533 44.1665 127.917C44.8832 129.417 46.4998 130.017 47.9165 129.333C49.4165 128.617 50.0165 127 49.3332 125.583C48.6165 124.083 46.9332 123.467 45.5332 124.183Z" fill="#142346"/>
<path d="M52.2002 124.183C50.7502 124.917 50.1668 126.533 50.8335 127.917C51.5502 129.417 53.1668 130.017 54.5835 129.333C56.0835 128.617 56.6835 127 56.0002 125.583C55.2835 124.083 53.6002 123.467 52.2002 124.183Z" fill="#142346"/>
<path d="M58.8667 124.183C57.4167 124.917 56.8333 126.533 57.5 127.917C58.2167 129.417 59.8333 130.017 61.25 129.333C62.75 128.617 63.35 127 62.6667 125.583C61.95 124.083 60.2667 123.467 58.8667 124.183Z" fill="#142346"/>
<path d="M72.2002 124.183C70.7502 124.917 70.1668 126.533 70.8335 127.917C71.5502 129.417 73.1668 130.017 74.5835 129.333C76.0835 128.617 76.6835 127 76.0002 125.583C75.2835 124.083 73.6002 123.467 72.2002 124.183Z" fill="#142346"/>
<path d="M85.5332 124.183C84.0832 124.917 83.4998 126.533 84.1665 127.917C84.8832 129.417 86.4998 130.017 87.9165 129.333C89.4165 128.617 90.0165 127 89.3332 125.583C88.6165 124.083 86.9332 123.467 85.5332 124.183Z" fill="#142346"/>
<path d="M98.8667 124.183C97.4167 124.917 96.8333 126.533 97.5 127.917C98.2167 129.417 99.8333 130.017 101.25 129.333C102.75 128.617 103.35 127 102.667 125.583C101.95 124.083 100.267 123.467 98.8667 124.183Z" fill="#142346"/>
<path d="M118.867 124.183C117.417 124.917 116.833 126.533 117.5 127.917C118.217 129.417 119.833 130.017 121.25 129.333C122.75 128.617 123.35 127 122.667 125.583C121.95 124.083 120.267 123.467 118.867 124.183Z" fill="#142346"/>
<path d="M125.533 124.183C124.083 124.917 123.5 126.533 124.167 127.917C124.883 129.417 126.5 130.017 127.917 129.333C129.417 128.617 130.017 127 129.333 125.583C128.617 124.083 126.933 123.467 125.533 124.183Z" fill="#142346"/>
<path d="M132.2 124.183C130.75 124.917 130.167 126.533 130.834 127.917C131.55 129.417 133.167 130.017 134.584 129.333C136.084 128.617 136.684 127 136 125.583C135.284 124.083 133.6 123.467 132.2 124.183Z" fill="#142346"/>
<path d="M138.867 124.183C137.417 124.917 136.833 126.533 137.5 127.917C138.217 129.417 139.833 130.017 141.25 129.333C142.75 128.617 143.35 127 142.667 125.583C141.95 124.083 140.267 123.467 138.867 124.183Z" fill="#142346"/>
<path d="M145.533 124.183C144.083 124.917 143.5 126.533 144.167 127.917C144.883 129.417 146.5 130.017 147.917 129.333C149.417 128.617 150.017 127 149.333 125.583C148.617 124.083 146.933 123.467 145.533 124.183Z" fill="#142346"/>
<path d="M152.2 124.183C150.75 124.917 150.167 126.533 150.834 127.917C151.55 129.417 153.167 130.017 154.584 129.333C156.084 128.617 156.684 127 156 125.583C155.284 124.083 153.6 123.467 152.2 124.183Z" fill="#142346"/>
<path d="M158.867 124.183C157.417 124.917 156.833 126.533 157.5 127.917C158.217 129.417 159.833 130.017 161.25 129.333C162.75 128.617 163.35 127 162.667 125.583C161.95 124.083 160.267 123.467 158.867 124.183Z" fill="#142346"/>
<path d="M165.533 124.183C164.083 124.917 163.5 126.533 164.167 127.917C164.883 129.417 166.5 130.017 167.917 129.333C169.417 128.617 170.017 127 169.333 125.583C168.617 124.083 166.933 123.467 165.533 124.183Z" fill="#142346"/>
<path d="M72.2002 130.85C70.7502 131.583 70.1668 133.2 70.8335 134.583C71.5502 136.083 73.1668 136.683 74.5835 136C76.0835 135.283 76.6835 133.667 76.0002 132.25C75.2835 130.75 73.6002 130.133 72.2002 130.85Z" fill="#142346"/>
<path d="M78.8667 130.85C77.4167 131.583 76.8333 133.2 77.5 134.583C78.2167 136.083 79.8333 136.683 81.25 136C82.75 135.283 83.35 133.667 82.6667 132.25C81.95 130.75 80.2667 130.133 78.8667 130.85Z" fill="#142346"/>
<path d="M85.5332 130.85C84.0832 131.583 83.4998 133.2 84.1665 134.583C84.8832 136.083 86.4998 136.683 87.9165 136C89.4165 135.283 90.0165 133.667 89.3332 132.25C88.6165 130.75 86.9332 130.133 85.5332 130.85Z" fill="#142346"/>
<path d="M98.8667 130.85C97.4167 131.583 96.8333 133.2 97.5 134.583C98.2167 136.083 99.8333 136.683 101.25 136C102.75 135.283 103.35 133.667 102.667 132.25C101.95 130.75 100.267 130.133 98.8667 130.85Z" fill="#142346"/>
<path d="M105.533 130.85C104.083 131.583 103.5 133.2 104.167 134.583C104.883 136.083 106.5 136.683 107.917 136C109.417 135.283 110.017 133.667 109.333 132.25C108.617 130.75 106.933 130.133 105.533 130.85Z" fill="#142346"/>
<path d="M112.2 130.85C110.75 131.583 110.167 133.2 110.834 134.583C111.55 136.083 113.167 136.683 114.584 136C116.084 135.283 116.684 133.667 116 132.25C115.284 130.75 113.6 130.133 112.2 130.85Z" fill="#142346"/>
<path d="M125.533 130.85C124.083 131.583 123.5 133.2 124.167 134.583C124.883 136.083 126.5 136.683 127.917 136C129.417 135.283 130.017 133.667 129.333 132.25C128.617 130.75 126.933 130.133 125.533 130.85Z" fill="#142346"/>
<path d="M152.2 130.85C150.75 131.583 150.167 133.2 150.834 134.583C151.55 136.083 153.167 136.683 154.584 136C156.084 135.283 156.684 133.667 156 132.25C155.284 130.75 153.6 130.133 152.2 130.85Z" fill="#142346"/>
<path d="M158.867 130.85C157.417 131.583 156.833 133.2 157.5 134.583C158.217 136.083 159.833 136.683 161.25 136C162.75 135.283 163.35 133.667 162.667 132.25C161.95 130.75 160.267 130.133 158.867 130.85Z" fill="#142346"/>
<path d="M178.867 130.85C177.417 131.583 176.833 133.2 177.5 134.583C178.217 136.083 179.833 136.683 181.25 136C182.75 135.283 183.35 133.667 182.667 132.25C181.95 130.75 180.267 130.133 178.867 130.85Z" fill="#142346"/>
<path d="M22.4501 136.85C21.2334 137.033 19.3501 138 18.5834 138.85C17.7334 139.8 17.0167 141.333 16.8334 142.617C16.6167 144.15 16.6167 176.033 16.8334 177.567C17.0501 178.967 17.9334 180.75 18.8501 181.583C19.8001 182.433 21.3334 183.15 22.6167 183.333C24.1334 183.55 56.0334 183.55 57.5501 183.333C58.8334 183.15 60.3667 182.433 61.3167 181.583C62.2334 180.75 63.1167 178.967 63.3334 177.567C63.5501 176.017 63.5501 144.15 63.3334 142.6C63.1167 141.2 62.2334 139.417 61.3167 138.583C60.3667 137.733 58.8334 137.017 57.5501 136.833C56.1501 136.633 23.8334 136.65 22.4501 136.85ZM53.1834 144.267C54.5167 144.967 55.2834 145.75 56.0334 147.2L56.5834 148.25L56.6667 159.167C56.7167 165.167 56.7001 170.517 56.6334 171.05C56.4834 172.167 55.7334 173.733 54.9167 174.65C54.1167 175.533 52.2834 176.467 51.0667 176.617C50.5167 176.7 45.1667 176.717 39.1667 176.667L28.2501 176.583L27.0501 175.933C26.3834 175.583 25.5834 175 25.2501 174.65C24.4334 173.733 23.6834 172.167 23.5334 171.05C23.4667 170.517 23.4501 165.167 23.5001 159.167L23.5834 148.25L24.2334 147.05C24.9834 145.65 25.7501 144.9 27.2001 144.133L28.2501 143.583L39.1667 143.5C45.1667 143.45 50.5167 143.467 51.0667 143.55C51.6667 143.617 52.4667 143.9 53.1834 144.267Z" fill="#142346"/>
<path d="M35.7833 150.183C34.5666 150.367 32.6833 151.333 31.9166 152.183C31.0666 153.133 30.3499 154.667 30.1666 155.95C29.9666 157.417 29.9666 162.75 30.1666 164.217C30.3499 165.5 31.0666 167.033 31.9166 167.983C32.7499 168.9 34.5333 169.783 35.9333 170C37.4166 170.2 42.7499 170.217 44.2166 170C45.4999 169.817 47.0333 169.1 47.9833 168.25C48.8999 167.417 49.7833 165.633 49.9999 164.233C50.2166 162.75 50.2166 157.417 49.9999 155.933C49.7833 154.533 48.8999 152.75 47.9833 151.917C47.0333 151.067 45.4999 150.35 44.2166 150.167C42.8666 149.967 37.1499 149.983 35.7833 150.183Z" fill="#142346"/>
<path d="M139.033 136.85C138.217 137.1 137.067 138.333 136.833 139.183C136.433 140.633 137.083 142.183 138.45 143.017C139.4 143.6 140.867 143.583 141.8 142.95C142.9 142.233 143.417 141.317 143.417 140.083C143.417 139.25 143.333 138.933 142.95 138.367C142.083 137.033 140.467 136.417 139.033 136.85Z" fill="#142346"/>
<path d="M72.2002 137.517C70.7502 138.25 70.1668 139.867 70.8335 141.25C71.5502 142.75 73.1668 143.35 74.5835 142.667C76.0835 141.95 76.6835 140.333 76.0002 138.917C75.2835 137.417 73.6002 136.8 72.2002 137.517Z" fill="#142346"/>
<path d="M85.5332 137.517C84.0832 138.25 83.4998 139.867 84.1665 141.25C84.8832 142.75 86.4998 143.35 87.9165 142.667C89.4165 141.95 90.0165 140.333 89.3332 138.917C88.6165 137.417 86.9332 136.8 85.5332 137.517Z" fill="#142346"/>
<path d="M92.2002 137.517C90.7502 138.25 90.1668 139.867 90.8335 141.25C91.5502 142.75 93.1668 143.35 94.5835 142.667C96.0835 141.95 96.6835 140.333 96.0002 138.917C95.2835 137.417 93.6002 136.8 92.2002 137.517Z" fill="#142346"/>
<path d="M98.8667 137.517C97.4167 138.25 96.8333 139.867 97.5 141.25C98.2167 142.75 99.8333 143.35 101.25 142.667C102.75 141.95 103.35 140.333 102.667 138.917C101.95 137.417 100.267 136.8 98.8667 137.517Z" fill="#142346"/>
<path d="M118.867 137.517C117.417 138.25 116.833 139.867 117.5 141.25C118.217 142.75 119.833 143.35 121.25 142.667C122.75 141.95 123.35 140.333 122.667 138.917C121.95 137.417 120.267 136.8 118.867 137.517Z" fill="#142346"/>
<path d="M125.533 137.517C124.083 138.25 123.5 139.867 124.167 141.25C124.883 142.75 126.5 143.35 127.917 142.667C129.417 141.95 130.017 140.333 129.333 138.917C128.617 137.417 126.933 136.8 125.533 137.517Z" fill="#142346"/>
<path d="M152.2 137.517C150.75 138.25 150.167 139.867 150.834 141.25C151.55 142.75 153.167 143.35 154.584 142.667C156.084 141.95 156.684 140.333 156 138.917C155.284 137.417 153.6 136.8 152.2 137.517Z" fill="#142346"/>
<path d="M158.867 137.517C157.417 138.25 156.833 139.867 157.5 141.25C158.217 142.75 159.833 143.35 161.25 142.667C162.75 141.95 163.35 140.333 162.667 138.917C161.95 137.417 160.267 136.8 158.867 137.517Z" fill="#142346"/>
<path d="M172.2 137.517C170.75 138.25 170.167 139.867 170.834 141.25C171.55 142.75 173.167 143.35 174.584 142.667C176.084 141.95 176.684 140.333 176 138.917C175.284 137.417 173.6 136.8 172.2 137.517Z" fill="#142346"/>
<path d="M178.867 137.517C177.417 138.25 176.833 139.867 177.5 141.25C178.217 142.75 179.833 143.35 181.25 142.667C182.75 141.95 183.35 140.333 182.667 138.917C181.95 137.417 180.267 136.8 178.867 137.517Z" fill="#142346"/>
<path d="M85.5332 144.183C84.0832 144.917 83.4998 146.533 84.1665 147.917C84.8832 149.417 86.4998 150.017 87.9165 149.333C89.4165 148.617 90.0165 147 89.3332 145.583C88.6165 144.083 86.9332 143.467 85.5332 144.183Z" fill="#142346"/>
<path d="M98.8667 144.183C97.4167 144.917 96.8333 146.533 97.5 147.917C98.2167 149.417 99.8333 150.017 101.25 149.333C102.75 148.617 103.35 147 102.667 145.583C101.95 144.083 100.267 143.467 98.8667 144.183Z" fill="#142346"/>
<path d="M112.2 144.183C110.75 144.917 110.167 146.533 110.834 147.917C111.55 149.417 113.167 150.017 114.584 149.333C116.084 148.617 116.684 147 116 145.583C115.284 144.083 113.6 143.467 112.2 144.183Z" fill="#142346"/>
<path d="M125.533 144.183C124.083 144.917 123.5 146.533 124.167 147.917C124.883 149.417 126.5 150.017 127.917 149.333C129.417 148.617 130.017 147 129.333 145.583C128.617 144.083 126.933 143.467 125.533 144.183Z" fill="#142346"/>
<path d="M152.2 144.183C150.75 144.917 150.167 146.533 150.834 147.917C151.55 149.417 153.167 150.017 154.584 149.333C156.084 148.617 156.684 147 156 145.583C155.284 144.083 153.6 143.467 152.2 144.183Z" fill="#142346"/>
<path d="M158.867 144.183C157.417 144.917 156.833 146.533 157.5 147.917C158.217 149.417 159.833 150.017 161.25 149.333C162.75 148.617 163.35 147 162.667 145.583C161.95 144.083 160.267 143.467 158.867 144.183Z" fill="#142346"/>
<path d="M165.533 144.183C164.083 144.917 163.5 146.533 164.167 147.917C164.883 149.417 166.5 150.017 167.917 149.333C169.417 148.617 170.017 147 169.333 145.583C168.617 144.083 166.933 143.467 165.533 144.183Z" fill="#142346"/>
<path d="M172.2 144.183C170.75 144.917 170.167 146.533 170.834 147.917C171.55 149.417 173.167 150.017 174.584 149.333C176.084 148.617 176.684 147 176 145.583C175.284 144.083 173.6 143.467 172.2 144.183Z" fill="#142346"/>
<path d="M178.867 144.183C177.417 144.917 176.833 146.533 177.5 147.917C178.217 149.417 179.833 150.017 181.25 149.333C182.75 148.617 183.35 147 182.667 145.583C181.95 144.083 180.267 143.467 178.867 144.183Z" fill="#142346"/>
<path d="M125.533 150.85C124.083 151.583 123.5 153.2 124.167 154.583C124.883 156.083 126.5 156.683 127.917 156C129.417 155.283 130.017 153.667 129.333 152.25C128.617 150.75 126.933 150.133 125.533 150.85Z" fill="#142346"/>
<path d="M132.2 150.85C130.75 151.583 130.167 153.2 130.834 154.583C131.55 156.083 133.167 156.683 134.584 156C136.084 155.283 136.684 153.667 136 152.25C135.284 150.75 133.6 150.133 132.2 150.85Z" fill="#142346"/>
<path d="M138.867 150.85C137.417 151.583 136.833 153.2 137.5 154.583C138.217 156.083 139.833 156.683 141.25 156C142.75 155.283 143.35 153.667 142.667 152.25C141.95 150.75 140.267 150.133 138.867 150.85Z" fill="#142346"/>
<path d="M145.533 150.85C144.083 151.583 143.5 153.2 144.167 154.583C144.883 156.083 146.5 156.683 147.917 156C149.417 155.283 150.017 153.667 149.333 152.25C148.617 150.75 146.933 150.133 145.533 150.85Z" fill="#142346"/>
<path d="M152.2 150.85C150.75 151.583 150.167 153.2 150.834 154.583C151.55 156.083 153.167 156.683 154.584 156C156.084 155.283 156.684 153.667 156 152.25C155.284 150.75 153.6 150.133 152.2 150.85Z" fill="#142346"/>
<path d="M158.867 150.85C157.417 151.583 156.833 153.2 157.5 154.583C158.217 156.083 159.833 156.683 161.25 156C162.75 155.283 163.35 153.667 162.667 152.25C161.95 150.75 160.267 150.133 158.867 150.85Z" fill="#142346"/>
<path d="M178.867 150.85C177.417 151.583 176.833 153.2 177.5 154.583C178.217 156.083 179.833 156.683 181.25 156C182.75 155.283 183.35 153.667 182.667 152.25C181.95 150.75 180.267 150.133 178.867 150.85Z" fill="#142346"/>
<path d="M72.2002 157.517C70.7502 158.25 70.1668 159.867 70.8335 161.25C71.5502 162.75 73.1668 163.35 74.5835 162.667C76.0835 161.95 76.6835 160.333 76.0002 158.917C75.2835 157.417 73.6002 156.8 72.2002 157.517Z" fill="#142346"/>
<path d="M92.2002 157.517C90.7502 158.25 90.1668 159.867 90.8335 161.25C91.5502 162.75 93.1668 163.35 94.5835 162.667C96.0835 161.95 96.6835 160.333 96.0002 158.917C95.2835 157.417 93.6002 156.8 92.2002 157.517Z" fill="#142346"/>
<path d="M118.867 157.517C117.417 158.25 116.833 159.867 117.5 161.25C118.217 162.75 119.833 163.35 121.25 162.667C122.75 161.95 123.35 160.333 122.667 158.917C121.95 157.417 120.267 156.8 118.867 157.517Z" fill="#142346"/>
<path d="M132.2 157.517C130.75 158.25 130.167 159.867 130.834 161.25C131.55 162.75 133.167 163.35 134.584 162.667C136.084 161.95 136.684 160.333 136 158.917C135.284 157.417 133.6 156.8 132.2 157.517Z" fill="#142346"/>
<path d="M145.533 157.517C144.083 158.25 143.5 159.867 144.167 161.25C144.883 162.75 146.5 163.35 147.917 162.667C149.417 161.95 150.017 160.333 149.333 158.917C148.617 157.417 146.933 156.8 145.533 157.517Z" fill="#142346"/>
<path d="M152.2 157.517C150.75 158.25 150.167 159.867 150.834 161.25C151.55 162.75 153.167 163.35 154.584 162.667C156.084 161.95 156.684 160.333 156 158.917C155.284 157.417 153.6 156.8 152.2 157.517Z" fill="#142346"/>
<path d="M158.867 157.517C157.417 158.25 156.833 159.867 157.5 161.25C158.217 162.75 159.833 163.35 161.25 162.667C162.75 161.95 163.35 160.333 162.667 158.917C161.95 157.417 160.267 156.8 158.867 157.517Z" fill="#142346"/>
<path d="M165.533 157.517C164.083 158.25 163.5 159.867 164.167 161.25C164.883 162.75 166.5 163.35 167.917 162.667C169.417 161.95 170.017 160.333 169.333 158.917C168.617 157.417 166.933 156.8 165.533 157.517Z" fill="#142346"/>
<path d="M78.8667 164.183C77.4167 164.917 76.8333 166.533 77.5 167.917C78.2167 169.417 79.8333 170.017 81.25 169.333C82.75 168.617 83.35 167 82.6667 165.583C81.95 164.083 80.2667 163.467 78.8667 164.183Z" fill="#142346"/>
<path d="M85.5332 164.183C84.0832 164.917 83.4998 166.533 84.1665 167.917C84.8832 169.417 86.4998 170.017 87.9165 169.333C89.4165 168.617 90.0165 167 89.3332 165.583C88.6165 164.083 86.9332 163.467 85.5332 164.183Z" fill="#142346"/>
<path d="M118.867 164.183C117.417 164.917 116.833 166.533 117.5 167.917C118.217 169.417 119.833 170.017 121.25 169.333C122.75 168.617 123.35 167 122.667 165.583C121.95 164.083 120.267 163.467 118.867 164.183Z" fill="#142346"/>
<path d="M125.533 164.183C124.083 164.917 123.5 166.533 124.167 167.917C124.883 169.417 126.5 170.017 127.917 169.333C129.417 168.617 130.017 167 129.333 165.583C128.617 164.083 126.933 163.467 125.533 164.183Z" fill="#142346"/>
<path d="M145.533 164.183C144.083 164.917 143.5 166.533 144.167 167.917C144.883 169.417 146.5 170.017 147.917 169.333C149.417 168.617 150.017 167 149.333 165.583C148.617 164.083 146.933 163.467 145.533 164.183Z" fill="#142346"/>
<path d="M152.2 164.183C150.75 164.917 150.167 166.533 150.834 167.917C151.55 169.417 153.167 170.017 154.584 169.333C156.084 168.617 156.684 167 156 165.583C155.284 164.083 153.6 163.467 152.2 164.183Z" fill="#142346"/>
<path d="M165.533 164.183C164.083 164.917 163.5 166.533 164.167 167.917C164.883 169.417 166.5 170.017 167.917 169.333C169.417 168.617 170.017 167 169.333 165.583C168.617 164.083 166.933 163.467 165.533 164.183Z" fill="#142346"/>
<path d="M178.867 164.183C177.417 164.917 176.833 166.533 177.5 167.917C178.217 169.417 179.833 170.017 181.25 169.333C182.75 168.617 183.35 167 182.667 165.583C181.95 164.083 180.267 163.467 178.867 164.183Z" fill="#142346"/>
<path d="M72.2002 170.85C70.7502 171.583 70.1668 173.2 70.8335 174.583C71.5502 176.083 73.1668 176.683 74.5835 176C76.0835 175.283 76.6835 173.667 76.0002 172.25C75.2835 170.75 73.6002 170.133 72.2002 170.85Z" fill="#142346"/>
<path d="M78.8667 170.85C77.4167 171.583 76.8333 173.2 77.5 174.583C78.2167 176.083 79.8333 176.683 81.25 176C82.75 175.283 83.35 173.667 82.6667 172.25C81.95 170.75 80.2667 170.133 78.8667 170.85Z" fill="#142346"/>
<path d="M85.5332 170.85C84.0832 171.583 83.4998 173.2 84.1665 174.583C84.8832 176.083 86.4998 176.683 87.9165 176C89.4165 175.283 90.0165 173.667 89.3332 172.25C88.6165 170.75 86.9332 170.133 85.5332 170.85Z" fill="#142346"/>
<path d="M112.2 170.85C110.75 171.583 110.167 173.2 110.834 174.583C111.55 176.083 113.167 176.683 114.584 176C116.084 175.283 116.684 173.667 116 172.25C115.284 170.75 113.6 170.133 112.2 170.85Z" fill="#142346"/>
<path d="M118.867 170.85C117.417 171.583 116.833 173.2 117.5 174.583C118.217 176.083 119.833 176.683 121.25 176C122.75 175.283 123.35 173.667 122.667 172.25C121.95 170.75 120.267 170.133 118.867 170.85Z" fill="#142346"/>
<path d="M125.533 170.85C124.083 171.583 123.5 173.2 124.167 174.583C124.883 176.083 126.5 176.683 127.917 176C129.417 175.283 130.017 173.667 129.333 172.25C128.617 170.75 126.933 170.133 125.533 170.85Z" fill="#142346"/>
<path d="M132.2 170.85C130.75 171.583 130.167 173.2 130.834 174.583C131.55 176.083 133.167 176.683 134.584 176C136.084 175.283 136.684 173.667 136 172.25C135.284 170.75 133.6 170.133 132.2 170.85Z" fill="#142346"/>
<path d="M138.867 170.85C137.417 171.583 136.833 173.2 137.5 174.583C138.217 176.083 139.833 176.683 141.25 176C142.75 175.283 143.35 173.667 142.667 172.25C141.95 170.75 140.267 170.133 138.867 170.85Z" fill="#142346"/>
<path d="M158.867 170.85C157.417 171.583 156.833 173.2 157.5 174.583C158.217 176.083 159.833 176.683 161.25 176C162.75 175.283 163.35 173.667 162.667 172.25C161.95 170.75 160.267 170.133 158.867 170.85Z" fill="#142346"/>
<path d="M72.2002 177.517C70.7502 178.25 70.1668 179.867 70.8335 181.25C71.5502 182.75 73.1668 183.35 74.5835 182.667C76.0835 181.95 76.6835 180.333 76.0002 178.917C75.2835 177.417 73.6002 176.8 72.2002 177.517Z" fill="#142346"/>
<path d="M85.5332 177.517C84.0832 178.25 83.4998 179.867 84.1665 181.25C84.8832 182.75 86.4998 183.35 87.9165 182.667C89.4165 181.95 90.0165 180.333 89.3332 178.917C88.6165 177.417 86.9332 176.8 85.5332 177.517Z" fill="#142346"/>
<path d="M98.8667 177.517C97.4167 178.25 96.8333 179.867 97.5 181.25C98.2167 182.75 99.8333 183.35 101.25 182.667C102.75 181.95 103.35 180.333 102.667 178.917C101.95 177.417 100.267 176.8 98.8667 177.517Z" fill="#142346"/>
<path d="M118.867 177.517C117.417 178.25 116.833 179.867 117.5 181.25C118.217 182.75 119.833 183.35 121.25 182.667C122.75 181.95 123.35 180.333 122.667 178.917C121.95 177.417 120.267 176.8 118.867 177.517Z" fill="#142346"/>
<path d="M125.533 177.517C124.083 178.25 123.5 179.867 124.167 181.25C124.883 182.75 126.5 183.35 127.917 182.667C129.417 181.95 130.017 180.333 129.333 178.917C128.617 177.417 126.933 176.8 125.533 177.517Z" fill="#142346"/>
<path d="M145.533 177.517C144.083 178.25 143.5 179.867 144.167 181.25C144.883 182.75 146.5 183.35 147.917 182.667C149.417 181.95 150.017 180.333 149.333 178.917C148.617 177.417 146.933 176.8 145.533 177.517Z" fill="#142346"/>
<path d="M172.2 177.517C170.75 178.25 170.167 179.867 170.834 181.25C171.55 182.75 173.167 183.35 174.584 182.667C176.084 181.95 176.684 180.333 176 178.917C175.284 177.417 173.6 176.8 172.2 177.517Z" fill="#142346"/>
<path d="M178.867 177.517C177.417 178.25 176.833 179.867 177.5 181.25C178.217 182.75 179.833 183.35 181.25 182.667C182.75 181.95 183.35 180.333 182.667 178.917C181.95 177.417 180.267 176.8 178.867 177.517Z" fill="#142346"/>
</g>
<defs>
<clipPath id="clip0_80_1116">
<rect width="200" height="200" fill="white"/>
</clipPath>
</defs>
</svg>
