<svg width="44" height="44" viewBox="0 0 44 44" fill="none" xmlns="http://www.w3.org/2000/svg">
<circle cx="22" cy="22" r="22" fill="#EE0979"/>
<path d="M32 23C32.5523 23 33 22.5523 33 22C33 21.4477 32.5523 21 32 21L32 23ZM11.2929 21.2929C10.9024 21.6834 10.9024 22.3166 11.2929 22.7071L17.6569 29.0711C18.0474 29.4616 18.6805 29.4616 19.0711 29.0711C19.4616 28.6805 19.4616 28.0474 19.0711 27.6569L13.4142 22L19.0711 16.3431C19.4616 15.9526 19.4616 15.3195 19.0711 14.9289C18.6805 14.5384 18.0474 14.5384 17.6569 14.9289L11.2929 21.2929ZM32 21L12 21L12 23L32 23L32 21Z" fill="white"/>
</svg>
